<?xml version="1.0" standalone="no"?><!DOCTYPE svg PUBLIC "-//W3C//DTD SVG 1.1//EN" "http://www.w3.org/Graphics/SVG/1.1/DTD/svg11.dtd" ><svg xmlns="http://www.w3.org/2000/svg"><metadata>Generated by Glyphter</metadata><defs><font id="iconfont" horiz-adv-x="0"><font-face units-per-em="1024" ascent="1024" descent="0" font-family="iconfont" font-weight="normal" /><missing-glyph horiz-adv-x="0" /><glyph unicode="&#x0041;" d="M899.198,786.158C927.752,814.988,974.03,814.988,1002.584,786.158C1031.139,757.328,1031.139,710.617,1002.584,681.787C1002.584,681.787,563.674,238.623,563.674,238.623C535.119,209.792,488.881,209.792,460.287,238.623C460.287,238.623,21.416,681.787,21.416,681.787C-7.139,710.617,-7.139,757.328,21.416,786.158C49.97,814.988,96.209,814.988,124.802,786.158C124.802,786.158,512,395.219,512,395.219C512,395.219,899.198,786.158,899.198,786.158C899.198,786.158,899.198,786.158,899.198,786.158" class="icon-angle-down"/><glyph unicode="&#x0042;" d="M765.157,124.811C791.85,96.275,791.85,49.989,765.157,21.453C738.464,-7.151,695.319,-7.151,668.695,21.453C668.695,21.453,259.02,460.347,259.02,460.347C232.327,488.883,232.327,535.168,259.02,563.704C259.02,563.704,668.695,1002.598,668.695,1002.598C695.319,1031.134,738.464,1031.134,765.157,1002.598C791.85,974.062,791.85,927.777,765.157,899.241C765.157,899.241,403.747,512.026,403.747,512.026C403.747,512.026,765.157,124.811,765.157,124.811C765.157,124.811,765.157,124.811,765.157,124.811" class="icon-angle-left"/><glyph unicode="&#x0043;" d="M227.477,124.811C197.508,96.275,197.508,49.989,227.477,21.453C257.447,-7.151,306.053,-7.151,336.023,21.453C336.023,21.453,796.899,460.347,796.899,460.347C826.868,488.883,826.868,535.168,796.899,563.704C796.899,563.704,336.023,1002.598,336.023,1002.598C306.053,1031.134,257.447,1031.134,227.477,1002.598C197.508,974.062,197.508,927.777,227.477,899.241C227.477,899.241,634.08,512.026,634.08,512.026C634.08,512.026,227.477,124.811,227.477,124.811C227.477,124.811,227.477,124.811,227.477,124.811" class="icon-angle-right"/><glyph unicode="&#x0044;" d="M899.198,238.623C927.752,209.792,974.03,209.792,1002.584,238.623C1031.139,267.453,1031.139,314.164,1002.584,342.994C1002.584,342.994,563.674,786.158,563.674,786.158C535.119,814.988,488.881,814.988,460.287,786.158C460.287,786.158,21.416,342.994,21.416,342.994C-7.139,314.164,-7.139,267.453,21.416,238.623C49.97,209.792,96.209,209.792,124.802,238.623C124.802,238.623,512,629.562,512,629.562C512,629.562,899.198,238.623,899.198,238.623C899.198,238.623,899.198,238.623,899.198,238.623" class="icon-angle-up"/><glyph unicode="&#x0045;" d="M1005.761,557.727C1030.746,532.741,1030.746,492.191,1005.761,467.205C1005.761,467.205,557.727,19.239,557.727,19.239C532.741,-5.746,492.259,-5.746,467.273,19.239C467.273,19.239,19.239,467.205,19.239,467.205C-5.746,492.191,-5.746,532.741,19.239,557.727C44.225,582.712,84.775,582.712,109.761,557.727C109.761,557.727,448.5,218.987,448.5,218.987C448.5,218.987,448.5,960.5,448.5,960.5C448.5,995.794,477.172,1024.466,512.534,1024.466C547.828,1024.466,576.5,995.794,576.5,960.5C576.5,960.5,576.5,218.987,576.5,218.987C576.5,218.987,915.239,557.727,915.239,557.727C940.225,582.712,980.775,582.712,1005.761,557.727C1005.761,557.727,1005.761,557.727,1005.761,557.727" class="icon-arrow-down"/><glyph unicode="&#x0046;" d="M557.727,1005.761C532.741,1030.746,492.191,1030.746,467.205,1005.761C467.205,1005.761,19.239,557.727,19.239,557.727C-5.746,532.741,-5.746,492.259,19.239,467.273C19.239,467.273,467.205,19.239,467.205,19.239C492.191,-5.746,532.741,-5.746,557.727,19.239C582.712,44.225,582.712,84.775,557.727,109.761C557.727,109.761,218.987,448.5,218.987,448.5C218.987,448.5,960.5,448.5,960.5,448.5C995.794,448.5,1024.466,477.172,1024.466,512.534C1024.466,547.828,995.794,576.5,960.5,576.5C960.5,576.5,218.987,576.5,218.987,576.5C218.987,576.5,557.727,915.239,557.727,915.239C582.712,940.225,582.712,980.775,557.727,1005.761C557.727,1005.761,557.727,1005.761,557.727,1005.761" class="icon-arrow-left"/><glyph unicode="&#x0047;" d="M467.239,1005.761C492.225,1030.746,532.775,1030.746,557.761,1005.761C557.761,1005.761,1005.727,557.727,1005.727,557.727C1030.713,532.741,1030.713,492.259,1005.727,467.273C1005.727,467.273,557.761,19.239,557.761,19.239C532.775,-5.746,492.225,-5.746,467.239,19.239C442.254,44.225,442.254,84.775,467.239,109.761C467.239,109.761,805.978,448.5,805.978,448.5C805.978,448.5,64.466,448.5,64.466,448.5C29.172,448.5,0.5,477.172,0.5,512.534C0.5,547.828,29.172,576.5,64.466,576.5C64.466,576.5,805.978,576.5,805.978,576.5C805.978,576.5,467.239,915.239,467.239,915.239C442.254,940.225,442.254,980.775,467.239,1005.761C467.239,1005.761,467.239,1005.761,467.239,1005.761" class="icon-arrow-right"/><glyph unicode="&#x0048;" d="M1024,94.003C1024,42.121,981.879,0,929.929,0C878.046,0,835.925,42.121,835.925,94.003C835.925,94.003,835.925,702.942,835.925,702.942C835.925,702.942,160.495,27.511,160.495,27.511C123.836,-9.148,64.239,-9.148,27.58,27.511C-9.148,64.239,-9.148,123.767,27.58,160.495C27.58,160.495,702.942,835.925,702.942,835.925C702.942,835.925,94.003,835.925,94.003,835.925C42.121,835.925,0,877.978,0,929.929C0,981.879,42.121,1024,94.003,1024C94.003,1024,929.929,1024,929.929,1024C981.879,1023.932,1024,981.879,1024,929.929C1024,929.929,1024,94.003,1024,94.003C1024,94.003,1024,94.003,1024,94.003" class="icon-arrow-up-right"/><glyph unicode="&#x0049;" d="M1005.761,467.239C1030.746,492.225,1030.746,532.775,1005.761,557.761C1005.761,557.761,557.727,1005.727,557.727,1005.727C532.741,1030.713,492.259,1030.713,467.273,1005.727C467.273,1005.727,19.239,557.761,19.239,557.761C-5.746,532.775,-5.746,492.225,19.239,467.239C44.225,442.254,84.775,442.254,109.761,467.239C109.761,467.239,448.5,805.978,448.5,805.978C448.5,805.978,448.5,64.466,448.5,64.466C448.5,29.172,477.172,0.5,512.534,0.5C547.828,0.5,576.5,29.172,576.5,64.466C576.5,64.466,576.5,805.978,576.5,805.978C576.5,805.978,915.239,467.239,915.239,467.239C940.225,442.254,980.775,442.254,1005.761,467.239C1005.761,467.239,1005.761,467.239,1005.761,467.239" class="icon-arrow-up"/><glyph unicode="&#x004a;" d="M113.801,0C82.534,0,55.706,11.127,33.451,33.451C11.196,55.706,0,82.466,0,113.801C0,113.801,0,910.199,0,910.199C0,941.534,11.196,968.294,33.451,990.549C55.706,1012.873,82.534,1024,113.801,1024C113.801,1024,910.268,1024,910.268,1024C941.534,1024,968.294,1012.873,990.618,990.549C1012.873,968.294,1024,941.534,1024,910.199C1024,910.199,1024,113.801,1024,113.801C1024,82.466,1012.873,55.706,990.618,33.451C968.294,11.127,941.534,0,910.268,0C910.268,0,113.801,0,113.801,0C113.801,0,113.801,0,113.801,0M284.467,227.533C284.467,227.533,568.934,227.533,568.934,227.533C585.045,227.533,598.562,232.994,609.417,243.917C620.339,254.839,625.801,268.356,625.801,284.467C625.801,300.578,620.339,314.095,609.417,324.949C598.562,335.872,585.045,341.333,568.934,341.333C568.934,341.333,284.467,341.333,284.467,341.333C268.356,341.333,254.839,335.872,243.917,324.949C233.062,314.095,227.601,300.578,227.601,284.467C227.601,268.356,233.062,254.839,243.917,243.917C254.839,232.994,268.356,227.533,284.467,227.533C284.467,227.533,284.467,227.533,284.467,227.533M284.467,455.134C284.467,455.134,739.601,455.134,739.601,455.134C755.712,455.134,769.229,460.595,780.083,471.45C791.006,482.372,796.467,495.889,796.467,512C796.467,528.111,791.006,541.628,780.083,552.55C769.229,563.405,755.712,568.866,739.601,568.866C739.601,568.866,284.467,568.866,284.467,568.866C268.356,568.866,254.839,563.405,243.917,552.55C233.062,541.628,227.601,528.111,227.601,512C227.601,495.889,233.062,482.372,243.917,471.45C254.839,460.595,268.356,455.134,284.467,455.134C284.467,455.134,284.467,455.134,284.467,455.134M284.467,682.667C284.467,682.667,739.601,682.667,739.601,682.667C755.712,682.667,769.229,688.128,780.083,699.051C791.006,709.905,796.467,723.422,796.467,739.533C796.467,755.644,791.006,769.161,780.083,780.083C769.229,791.006,755.712,796.467,739.601,796.467C739.601,796.467,284.467,796.467,284.467,796.467C268.356,796.467,254.839,791.006,243.917,780.083C233.062,769.161,227.601,755.644,227.601,739.533C227.601,723.422,233.062,709.905,243.917,699.051C254.839,688.128,268.356,682.667,284.467,682.667C284.467,682.667,284.467,682.667,284.467,682.667" class="icon-article"/><glyph unicode="&#x004b;" d="M1019.351,583.364C1000.919,717.508,929.785,838.818,821.65,920.67C713.515,1002.522,577.186,1038.158,442.7,1019.726C308.215,1001.362,186.631,930.433,104.574,822.571C22.517,714.641,-13.186,578.721,5.246,444.577C20.469,333.575,71.601,230.492,150.928,151.166C230.185,71.771,333.337,20.434,444.612,4.938C467.345,2.002,490.282,0.501,513.288,0.501C606.063,0.364,697.063,25.555,776.457,73.478C781.987,76.823,786.834,81.26,790.725,86.449C794.548,91.705,797.347,97.576,798.917,103.925C800.487,110.206,800.829,116.759,799.873,123.176C798.849,129.593,796.664,135.737,793.319,141.267C789.974,146.865,785.537,151.712,780.28,155.535C775.092,159.358,769.085,162.157,762.804,163.727C750.038,166.867,736.589,164.887,725.325,158.129C668.869,124.268,605.039,104.471,539.298,100.239C473.557,96.074,407.748,107.611,347.4,134.031C287.052,160.382,233.872,200.796,192.434,251.859C150.928,302.923,122.324,363.134,108.943,427.51C95.563,491.818,97.816,558.446,115.565,621.73C133.315,685.081,165.946,743.176,210.798,791.305C255.717,839.433,311.491,876.16,373.478,898.347C435.464,920.602,501.956,927.702,567.219,919.032C627.909,910.977,686.004,889.541,737.34,856.363C788.745,823.117,832.027,778.948,864.112,726.997C896.266,674.978,916.336,616.541,923.026,555.852C929.717,495.231,922.753,433.791,902.683,376.105C897.495,362.247,888.074,350.369,875.786,342.04C863.498,333.78,848.889,329.479,834.075,329.82C814.482,329.82,795.777,337.603,781.919,351.393C768.061,365.182,760.346,383.888,760.278,403.412C760.278,403.412,760.278,708.497,760.278,708.497C760.278,721.604,755.09,734.165,745.806,743.381C736.521,752.666,723.892,757.854,710.785,757.854C697.609,757.854,685.048,752.666,675.764,743.381C666.479,734.165,661.223,721.604,661.223,708.497C661.223,708.497,661.223,708.019,661.223,708.019C623.744,736.281,578.893,753.28,531.994,757.035C485.162,760.858,438.126,751.232,396.552,729.318C354.977,707.405,320.503,674.159,297.155,633.403C273.808,592.716,262.612,546.158,264.797,499.327C266.981,452.496,282.546,407.235,309.58,368.869C336.682,330.435,374.092,300.602,417.578,282.648C461.064,264.762,508.714,259.574,555.068,267.697C601.353,275.821,644.429,296.984,679.109,328.591C693.172,299.441,715.085,274.865,742.529,257.594C769.904,240.322,801.648,231.106,834.075,231.038C869.505,230.697,904.117,241.346,933.198,261.553C962.28,281.76,984.33,310.501,996.277,343.815C1022.969,420.683,1030.888,502.809,1019.351,583.364C1019.351,583.364,1019.351,583.364,1019.351,583.364M512.674,362.725C483.319,362.725,454.579,371.463,430.208,387.711C405.768,404.026,386.721,427.169,375.457,454.203C364.193,481.305,361.258,511.069,366.992,539.809C372.727,568.55,386.926,594.969,407.679,615.722C428.433,636.407,454.92,650.538,483.729,656.273C512.537,661.939,542.438,659.003,569.54,647.808C596.711,636.612,619.921,617.634,636.237,593.262C652.553,568.891,661.223,540.219,661.223,510.932C661.223,471.611,645.521,433.996,617.669,406.211C589.816,378.426,552.064,362.793,512.674,362.725C512.674,362.725,512.674,362.725,512.674,362.725" class="icon-at"/><glyph unicode="&#x004c;" d="M878.616,853.84C911.872,885.974,965.803,885.974,999.058,853.84C1032.314,821.706,1032.314,769.58,999.058,737.494C999.058,737.494,412.209,170.54,412.209,170.54C396.215,155.131,374.565,146.5,351.939,146.5C329.362,146.5,307.712,155.131,291.718,170.54C291.718,170.54,24.942,428.246,24.942,428.246C-8.314,460.38,-8.314,512.507,24.942,544.592C58.197,576.726,112.177,576.726,145.432,544.592C145.432,544.592,351.939,345.107,351.939,345.107C351.939,345.107,878.616,853.84,878.616,853.84C878.616,853.84,878.616,853.84,878.616,853.84" class="icon-check"/><glyph unicode="&#x004d;" d="M888.35,286.443C887.025,286.322,885.64,286.262,884.254,286.262C882.869,286.262,881.544,286.322,880.218,286.443C880.218,286.443,702.163,286.443,702.163,286.443C700.838,286.322,699.452,286.262,698.067,286.262C696.681,286.262,695.356,286.322,693.971,286.443C693.971,286.443,651.625,286.443,651.625,286.443C651.625,286.443,651.625,150.913,651.625,150.913C651.625,150.913,930.876,150.913,930.876,150.913C930.876,150.913,930.876,286.443,930.876,286.443C930.876,286.443,888.35,286.443,888.35,286.443C888.35,286.443,888.35,286.443,888.35,286.443M419.298,602.618C444.958,602.618,465.8,582.379,465.8,557.441C465.8,532.504,444.958,512.265,419.298,512.265C419.298,512.265,418.816,512.265,418.816,512.265C393.096,512.265,372.254,532.504,372.254,557.441C372.254,582.439,393.096,602.618,418.816,602.618C418.816,602.618,419.298,602.618,419.298,602.618C419.298,602.618,419.298,602.618,419.298,602.618M744.689,692.91C744.689,692.91,744.689,828.5,744.689,828.5C744.689,840.427,739.75,851.992,731.076,860.425C722.342,868.918,710.475,873.676,698.127,873.676C698.127,873.676,325.752,873.676,325.752,873.676C313.404,873.676,301.598,868.918,292.864,860.425C284.13,851.992,279.191,840.427,279.191,828.5C279.191,828.5,279.191,241.206,279.191,241.206C279.191,241.206,418.936,241.206,418.936,241.206C444.597,241.206,465.438,221.027,465.438,196.09C465.438,171.092,444.597,150.913,418.936,150.913C418.936,150.913,236.785,150.913,236.785,150.913C235.4,150.793,234.074,150.672,232.689,150.672C231.304,150.672,229.918,150.793,228.593,150.913C228.593,150.913,46.562,150.913,46.562,150.913C20.841,150.913,0,171.092,0,196.09C0,221.027,20.841,241.206,46.562,241.206C46.562,241.206,186.127,241.206,186.127,241.206C186.127,241.206,186.127,828.5,186.127,828.5C186.127,864.4,200.824,898.915,227.027,924.334C253.169,949.754,288.768,964.029,325.752,964.029C325.752,964.029,698.127,964.029,698.127,964.029C735.172,964.029,770.711,949.754,796.853,924.334C823.055,898.915,837.752,864.4,837.752,828.5C837.752,828.5,837.752,692.91,837.752,692.91C837.752,667.973,816.911,647.734,791.191,647.734C765.53,647.734,744.689,667.973,744.689,692.91C744.689,692.91,744.689,692.91,744.689,692.91M837.692,421.791C837.692,433.778,832.813,445.283,824.079,453.776C815.345,462.209,803.539,467.028,791.191,467.028C778.842,467.028,766.976,462.269,758.242,453.776C749.508,445.283,744.629,433.778,744.629,421.791C744.629,421.791,744.629,376.796,744.629,376.796C744.629,376.796,837.752,376.796,837.752,376.796C837.752,376.796,837.752,421.791,837.752,421.791C837.752,421.791,837.752,421.791,837.752,421.791M930.816,376.796C930.816,376.796,930.876,376.796,930.876,376.796C982.317,376.796,1024,336.378,1024,286.443C1024,286.443,1024,150.913,1024,150.913C1024,100.978,982.317,60.5,930.876,60.5C930.876,60.5,651.625,60.5,651.625,60.5C600.184,60.5,558.562,100.978,558.562,150.913C558.562,150.913,558.562,286.443,558.562,286.443C558.562,336.317,600.184,376.735,651.565,376.796C651.565,376.796,651.565,421.791,651.565,421.791C651.565,457.752,666.263,492.267,692.405,517.686C718.607,543.105,754.146,557.381,791.191,557.381C828.235,557.381,863.714,543.105,889.916,517.686C916.119,492.267,930.816,457.752,930.816,421.791C930.816,421.791,930.816,376.796,930.816,376.796C930.816,376.796,930.816,376.796,930.816,376.796" class="icon-door-lock"/><glyph unicode="&#x004e;" d="M954.596,691.822C954.596,691.822,578.844,446.631,578.844,446.631C578.446,446.403,578.048,446.119,577.593,445.891C557.739,434.058,535.211,427.8,512.228,427.8C489.244,427.857,466.716,434.058,446.862,445.891C446.464,446.119,446.066,446.346,445.668,446.631C445.668,446.631,69.461,691.879,69.461,691.879C69.461,691.879,69.461,218.848,69.461,218.848C69.461,184.487,96.654,156.611,130.219,156.611C130.219,156.611,893.838,156.611,893.838,156.611C927.403,156.611,954.596,184.487,954.596,218.848C954.596,218.848,954.596,691.822,954.596,691.822C954.596,691.822,954.596,691.822,954.596,691.822M954.596,805.486C954.596,839.847,927.403,867.722,893.838,867.722C893.838,867.722,130.162,867.722,130.162,867.722C96.654,867.722,69.461,839.847,69.461,805.486C69.461,805.486,69.461,776.188,69.461,776.188C69.461,776.188,482.02,507.217,482.02,507.217C491.236,501.813,501.646,498.968,512.228,498.912C522.923,498.912,533.447,501.87,542.72,507.388C542.72,507.388,954.596,776.188,954.596,776.188C954.596,776.188,954.596,805.486,954.596,805.486C954.596,805.486,954.596,805.486,954.596,805.486M1024,218.848C1024,145.176,965.746,85.5,893.838,85.5C893.838,85.5,130.162,85.5,130.162,85.5C58.311,85.5,0,145.176,0,218.848C0,218.848,0,805.486,0,805.486C0,879.157,58.311,938.833,130.162,938.833C130.162,938.833,893.838,938.833,893.838,938.833C965.746,938.833,1024,879.157,1024,805.486C1024,805.486,1024,218.848,1024,218.848C1024,218.848,1024,218.848,1024,218.848" class="icon-envelope"/><glyph unicode="&#x004f;" d="M499.481,992.355C216.478,985.699,-6.878,762.983,0.162,495.084C5.666,295.599,139.679,118.962,337.884,50.996C363.483,42.484,391.067,55.284,400.091,79.539C402.139,84.275,403.163,89.459,403.163,94.707C403.163,94.707,403.163,334.575,403.163,334.575C403.163,334.575,307.804,334.575,307.804,334.575C287.709,335.023,271.645,350.254,271.133,369.262C271.133,369.262,271.133,453.292,271.133,453.292C271.133,472.3,287.709,487.98,307.804,487.98C307.804,487.98,403.163,487.98,403.163,487.98C403.163,487.98,403.163,608.106,403.163,608.106C403.163,738.279,484.953,809.51,603.863,809.51C636.951,809.51,668.118,808.102,691.158,806.63C710.229,805.222,725.269,790.054,725.269,772.007C725.269,772.007,725.269,701.224,725.269,701.224C725.269,682.216,708.757,667.049,688.662,666.537C688.662,666.537,642.518,666.537,642.518,666.537C577.24,666.537,565.208,636.137,565.208,592.426C565.208,592.426,565.208,487.468,565.208,487.468C565.208,487.468,670.614,487.468,670.614,487.468C690.646,487.468,706.709,471.788,706.709,452.844C706.709,451.373,706.709,449.965,706.261,448.557C706.261,448.557,694.678,364.974,694.678,364.974C692.182,347.886,677.142,335.023,658.582,334.575C658.582,334.575,564.184,334.575,564.184,334.575C564.184,334.575,564.184,79.027,564.184,79.027C564.184,53.364,586.775,32.5,613.911,32.5C617.431,32.5,620.439,32.948,623.959,33.46C900.434,92.339,1073.551,352.622,1011.344,613.802C958.161,839.398,743.893,997.603,499.481,992.355C499.481,992.355,499.481,992.355,499.481,992.355" class="icon-facebook"/><glyph unicode="&#x0050;" d="M972.8,32C965.952,32,959.552,33.28,953.6,35.84C947.648,38.464,942.08,42.304,936.96,47.488C936.96,47.488,819.2,166.208,819.2,166.208C819.2,166.208,307.2,166.208,307.2,166.208C279.04,166.208,254.912,176.32,234.88,196.544C214.848,216.704,204.8,241.024,204.8,269.44C204.8,269.44,204.8,321.024,204.8,321.024C204.8,321.024,768,321.024,768,321.024C796.16,321.024,820.288,331.136,840.32,351.36C860.352,371.584,870.4,395.84,870.4,424.256C870.4,424.256,870.4,785.536,870.4,785.536C870.4,785.536,921.6,785.536,921.6,785.536C949.76,785.536,973.888,775.424,993.92,755.2C1013.952,735.04,1024,710.72,1024,682.304C1024,682.304,1024,84.928,1024,84.928C1024,69.44,1018.88,56.704,1008.64,46.848C998.4,36.928,986.432,32,972.8,32C972.8,32,972.8,32,972.8,32M51.2,290.048C37.568,290.048,25.6,294.976,15.36,304.896C5.12,314.816,0,327.488,0,342.976C0,342.976,0,888.768,0,888.768C0,917.184,10.048,941.44,30.08,961.664C50.112,981.888,74.24,992,102.4,992C102.4,992,665.6,992,665.6,992C693.76,992,717.888,981.888,737.92,961.664C757.952,941.44,768,917.184,768,888.768C768,888.768,768,527.488,768,527.488C768,499.072,757.952,474.816,737.92,454.592C717.888,434.368,693.76,424.256,665.6,424.256C665.6,424.256,204.8,424.256,204.8,424.256C204.8,424.256,87.04,305.536,87.04,305.536C81.92,300.352,76.352,296.512,70.4,293.952C64.448,291.328,58.048,290.048,51.2,290.048C51.2,290.048,51.2,290.048,51.2,290.048" class="icon-forum"/><glyph unicode="&#x0051;" d="M511.863,1024C530.5,1024,547.362,1012.941,554.667,995.806C562.039,978.671,558.421,958.805,545.587,945.357C445.03,839.748,384.683,702.874,373.965,558.421C373.965,558.421,442.163,558.421,442.163,558.421C467.9,558.421,488.721,537.6,488.721,511.932C488.721,486.195,467.9,465.374,442.163,465.374C442.163,465.374,373.965,465.374,373.965,465.374C383.454,337.988,431.65,216.474,511.863,117.146C573.986,194.082,617.404,284.74,637.952,382.02C643.277,407.142,667.921,423.185,693.111,417.86C718.234,412.604,734.276,387.891,729.02,362.701C709.564,271.019,672.495,184.388,620.407,107.452C681.643,123.836,738.577,153.941,786.705,195.721C845.141,246.511,888.422,312.457,911.633,386.321C919.347,410.829,945.493,424.482,970.001,416.768C994.509,409.054,1008.162,382.908,1000.448,358.4C972.049,268.151,919.211,187.529,847.735,125.474C776.329,63.42,689.084,22.391,595.695,6.895C568.252,2.321,540.535,0.137,512.819,0.068C512.546,0.068,512.205,0,511.932,0C511.659,0,511.454,0.068,511.249,0.068C445.577,0.137,380.245,12.834,318.942,37.82C231.287,73.523,155.238,132.779,99.26,209.033C43.281,285.355,9.489,375.671,1.707,469.948C0.614,483.601,0.137,497.186,0.068,510.839C0.068,511.181,0,511.522,0,511.932C0,512.341,0.068,512.751,0.068,513.229C0.273,592.964,18.978,671.812,55.228,743.287C97.963,827.733,163.294,898.594,243.849,948.156C324.471,997.717,417.246,1024,511.863,1024C511.863,1024,511.863,1024,511.863,1024M95.778,465.374C103.902,392.67,130.935,323.243,174.285,264.124C220.092,201.728,282.351,153.259,354.031,124.041C370.074,117.487,386.526,112.026,403.183,107.588C331.503,213.47,289.041,336.896,280.713,465.374C280.713,465.374,95.778,465.374,95.778,465.374C95.778,465.374,95.778,465.374,95.778,465.374M651.605,744.653C651.605,744.653,651.605,605.047,651.605,605.047C651.605,605.047,930.884,605.047,930.884,605.047C930.884,605.047,930.884,744.653,930.884,744.653C930.884,744.653,651.605,744.653,651.605,744.653C651.605,744.653,651.605,744.653,651.605,744.653M403.183,916.48C364.407,906.103,327.134,890.129,292.591,868.898C226.645,828.348,173.261,770.321,138.24,701.235C115.575,656.384,101.239,607.983,95.778,558.421C95.778,558.421,280.713,558.421,280.713,558.421C289.041,686.967,331.503,810.53,403.183,916.48C403.183,916.48,403.183,916.48,403.183,916.48M837.769,884.395C837.769,896.683,832.853,908.561,824.115,917.299C815.377,926.037,803.567,930.953,791.211,930.953C778.854,930.953,766.976,926.037,758.306,917.299C749.568,908.561,744.653,896.683,744.653,884.395C744.653,884.395,744.653,837.7,744.653,837.7C744.653,837.7,837.769,837.7,837.769,837.7C837.769,837.7,837.769,884.395,837.769,884.395C837.769,884.395,837.769,884.395,837.769,884.395M930.816,837.7C930.816,837.7,930.884,837.7,930.884,837.7C982.289,837.7,1024,796.058,1024,744.653C1024,744.653,1024,605.047,1024,605.047C1024,553.574,982.357,511.932,930.884,511.932C930.884,511.932,651.605,511.932,651.605,511.932C600.201,511.932,558.558,553.643,558.558,605.047C558.558,605.047,558.558,744.653,558.558,744.653C558.558,796.058,600.201,837.7,651.537,837.7C651.537,837.7,651.537,884.395,651.537,884.395C651.537,921.395,666.283,956.962,692.429,983.108C718.643,1009.323,754.142,1024,791.211,1024C828.211,1024,863.778,1009.323,889.924,983.108C916.139,956.962,930.816,921.395,930.816,884.395C930.816,884.395,930.816,837.7,930.816,837.7C930.816,837.7,930.816,837.7,930.816,837.7" class="icon-globe-lock"/><glyph unicode="&#x0052;" d="M881.459,698.027C881.459,698.027,930.884,698.027,930.884,698.027C955.597,698.027,979.285,688.196,996.693,670.788C1014.17,653.312,1024,629.623,1024,604.979C1024,604.979,1024,418.816,1024,418.816C1024,394.172,1014.17,370.483,996.693,353.007C979.285,335.599,955.597,325.769,930.884,325.769C930.884,325.769,881.459,325.769,881.459,325.769C870.127,235.793,826.3,153.054,758.306,93.116C690.244,33.109,602.658,0,512,0C512,0.068,512,93.116,512,93.116C586.069,93.116,657.067,122.539,709.427,174.899C761.856,227.26,791.279,298.257,791.279,372.326C791.279,372.326,791.279,651.469,791.279,651.469C791.279,725.538,761.856,796.535,709.427,848.896C657.067,901.257,586.069,930.679,512,930.679C437.931,930.679,366.865,901.257,314.505,848.896C262.144,796.535,232.721,725.538,232.721,651.469C232.721,651.469,232.721,325.769,232.721,325.769C232.721,325.769,93.047,325.769,93.047,325.769C68.403,325.769,44.715,335.531,27.238,353.007C9.762,370.483,0,394.172,0,418.816C0,418.816,0,604.979,0,604.979C0,629.623,9.762,653.312,27.238,670.788C44.715,688.196,68.403,698.027,93.047,698.027C93.047,698.027,142.473,698.027,142.473,698.027C153.805,788.07,197.564,870.878,265.557,930.884C333.619,990.891,421.205,1024,512,1024C602.726,1024,690.381,990.891,758.374,930.884C826.436,870.878,870.195,788.07,881.459,698.027C881.459,698.027,881.459,698.027,881.459,698.027M93.047,604.979C93.047,604.979,93.047,418.816,93.047,418.816C93.047,418.816,139.605,418.816,139.605,418.816C139.605,418.816,139.605,604.979,139.605,604.979C139.605,604.979,93.047,604.979,93.047,604.979C93.047,604.979,93.047,604.979,93.047,604.979M884.326,604.979C884.326,604.979,884.326,418.816,884.326,418.816C884.326,418.816,930.884,418.816,930.884,418.816C930.884,418.816,930.884,604.979,930.884,604.979C930.884,604.979,884.326,604.979,884.326,604.979C884.326,604.979,884.326,604.979,884.326,604.979M314.641,335.735C314.641,335.735,363.998,414.857,363.998,414.857C408.371,387.14,459.639,372.463,512,372.463C564.292,372.463,615.629,387.14,660.002,414.857C660.002,414.857,709.359,335.735,709.359,335.735C650.103,298.803,581.769,279.211,512,279.211C442.163,279.211,373.828,298.803,314.641,335.735C314.641,335.735,314.641,335.735,314.641,335.735" class="icon-headset"/><glyph unicode="&#x0053;" d="M409.6,439.386C409.6,439.386,409.6,97.985,409.6,97.985C409.6,97.985,614.4,97.985,614.4,97.985C614.4,97.985,614.4,439.386,614.4,439.386C614.4,439.386,409.6,439.386,409.6,439.386C409.6,439.386,409.6,439.386,409.6,439.386M768,634.424C768,634.424,768,731.977,768,731.977C768,731.977,665.6,731.977,665.6,731.977C637.338,731.977,614.4,753.754,614.4,780.72C614.4,807.617,637.338,829.462,665.6,829.462C665.6,829.462,768,829.462,768,829.462C768,829.462,768,927.015,768,927.015C768,953.912,790.938,975.758,819.2,975.758C847.531,975.758,870.4,953.912,870.4,927.015C870.4,927.015,870.4,829.462,870.4,829.462C870.4,829.462,972.8,829.462,972.8,829.462C1001.131,829.462,1024,807.617,1024,780.72C1024,753.754,1001.131,731.977,972.8,731.977C972.8,731.977,870.4,731.977,870.4,731.977C870.4,731.977,870.4,634.424,870.4,634.424C870.4,607.527,847.531,585.682,819.2,585.682C790.938,585.682,768,607.527,768,634.424C768,634.424,768,634.424,768,634.424M716.8,97.985C716.8,97.985,870.4,97.985,870.4,97.985C883.985,97.985,897.024,103.173,906.65,112.321C916.207,121.469,921.668,133.825,921.668,146.795C921.668,146.795,921.668,505.4,921.668,505.4C921.668,532.297,944.538,554.143,972.8,554.143C1001.131,554.143,1024,532.297,1024,505.4C1024,505.4,1024,146.795,1024,146.795C1024,107.952,1007.821,70.746,979.081,43.303C950.272,15.928,911.155,0.5,870.4,0.5C870.4,0.5,153.6,0.5,153.6,0.5C112.913,0.5,73.796,15.928,44.988,43.303C16.179,70.746,0,107.952,0,146.795C0,146.795,0,585.614,0,585.614C0,606.913,4.847,627.939,14.268,647.258C23.689,666.578,37.41,683.645,54.477,697.366C54.477,697.366,412.877,989.957,412.877,989.957C412.877,989.957,423.253,997.603,423.253,997.603C448.171,1014.397,477.798,1023.749,508.518,1024.432C543.607,1025.183,577.946,1014.533,605.73,994.121C628.122,977.669,632.286,947.086,615.083,925.718C597.811,904.419,565.658,900.391,543.266,916.843C533.982,923.602,522.513,927.22,510.839,926.947C499.166,926.674,487.902,922.646,478.959,915.41C478.959,915.41,120.559,622.955,120.559,622.955C114.825,618.382,110.319,612.647,107.179,606.23C104.038,599.813,102.4,592.782,102.4,585.682C102.4,585.682,102.4,146.795,102.4,146.795C102.4,133.825,107.793,121.469,117.419,112.321C126.976,103.173,140.015,97.985,153.6,97.985C153.6,97.985,307.2,97.985,307.2,97.985C307.2,97.985,307.2,439.386,307.2,439.386C307.2,465.259,317.986,490.04,337.169,508.336C356.42,526.631,382.43,536.871,409.6,536.871C409.6,536.871,614.4,536.871,614.4,536.871C641.57,536.871,667.648,526.631,686.831,508.336C706.014,490.04,716.8,465.259,716.8,439.386C716.8,439.386,716.8,97.985,716.8,97.985C716.8,97.985,716.8,97.985,716.8,97.985" class="icon-home-plus"/><glyph unicode="&#x0054;" d="M192.192,337.92C192.192,505.984,324.928,643.904,487.936,643.904C487.936,643.904,608.064,643.904,608.064,643.904C625.408,643.904,639.488,629.376,639.488,611.392C639.488,593.472,625.408,578.88,608.064,578.88C608.064,578.88,487.936,578.88,487.936,578.88C359.68,578.88,255.04,470.208,255.04,337.92C255.04,205.696,360.128,96.96,487.936,96.96C487.936,96.96,728.256,96.96,728.256,96.96C856.448,96.96,961.152,205.696,961.152,337.92C961.152,396.096,940.864,449.472,907.392,491.2C896.32,504.96,898.112,525.44,911.488,536.96C924.8,548.416,944.576,546.56,955.648,532.736C998.08,480,1024,412.032,1024,337.92C1024,169.856,891.2,32,728.256,32C728.256,32,487.936,32,487.936,32C325.44,32,192.192,169.792,192.192,337.92C192.192,337.92,192.192,337.92,192.192,337.92M768.96,685.952C768.96,818.176,663.808,926.976,536,926.976C536,926.976,295.744,926.976,295.744,926.976C167.488,926.976,62.784,818.24,62.784,685.952C62.784,627.84,83.072,574.464,116.544,532.736C127.68,518.976,125.824,498.432,112.512,486.976C99.136,475.52,79.36,477.376,68.288,491.2C25.856,543.936,0,611.904,0,685.952C0,854.08,132.736,992,295.744,992C295.744,992,536,992,536,992C698.496,992,831.744,854.08,831.744,685.952C831.744,517.888,699.008,380.032,536,380.032C536,380.032,415.872,380.032,415.872,380.032C398.528,380.032,384.448,394.624,384.448,412.544C384.448,430.464,398.528,444.992,415.872,444.992C415.872,444.992,536,444.992,536,444.992C664.256,444.992,768.896,553.728,768.96,685.952C768.96,685.952,768.96,685.952,768.96,685.952" class="icon-link"/><glyph unicode="&#x0055;" d="M512,1024C229.308,1024,0,794.692,0,512C0,229.308,229.308,0,512,0C794.692,0,1024,229.308,1024,512C1024,794.692,794.692,1024,512,1024C512,1024,512,1024,512,1024M363.042,250.129C363.042,250.129,238.455,250.129,238.455,250.129C238.455,250.129,238.455,625.391,238.455,625.391C238.455,625.391,363.042,625.391,363.042,625.391C363.042,625.391,363.042,250.129,363.042,250.129C363.042,250.129,363.042,250.129,363.042,250.129M300.988,676.727C300.988,676.727,299.964,676.727,299.964,676.727C260.847,676.727,228.83,708.745,229.308,748.407C229.308,787.593,261.325,819.61,300.988,819.132C340.173,819.132,372.19,787.046,371.644,747.383C371.166,708.267,339.627,676.727,300.988,676.727C300.988,676.727,300.988,676.727,300.988,676.727M812.988,250.129C812.988,250.129,688.401,250.129,688.401,250.129C688.401,250.129,688.401,450.97,688.401,450.97C688.401,501.35,670.106,535.893,625.391,535.893C596.378,535.893,570.982,517.598,561.289,490.155C558.285,480.461,556.715,469.811,557.261,459.639C557.261,459.639,557.261,250.129,557.261,250.129C557.261,250.129,432.674,250.129,432.674,250.129C432.674,250.129,434.176,590.302,432.674,625.391C432.674,625.391,557.261,625.391,557.261,625.391C557.261,625.391,557.261,572.484,557.261,572.484C580.13,612.693,623.343,636.041,669.628,634.539C751.479,634.539,812.988,581.154,812.988,465.715C812.988,465.715,812.988,250.129,812.988,250.129C812.988,250.129,812.988,250.129,812.988,250.129" class="icon-linkedin"/><glyph unicode="&#x0056;" d="M512.711,885.304C431.133,885.304,364.777,817.993,364.777,735.322C364.777,652.583,431.133,585.272,512.711,585.272C594.29,585.272,660.645,652.583,660.645,735.322C660.645,817.993,594.29,885.304,512.711,885.304C512.711,885.304,512.711,885.304,512.711,885.304M512.711,645.279C463.764,645.279,423.965,685.693,423.965,735.322C423.965,784.952,463.764,825.298,512.711,825.298C561.658,825.298,601.458,784.952,601.458,735.322C601.458,685.693,561.658,645.279,512.711,645.279C512.711,645.279,512.711,645.279,512.711,645.279M680.852,347.909C788.304,518.917,774.787,497.55,777.859,502.055C816.976,557.966,837.661,623.843,837.661,692.519C837.661,874.518,691.979,1024.5,512.233,1024.5C333.102,1024.5,186.874,874.859,186.874,692.519C186.874,623.911,207.969,556.327,248.383,499.598C248.383,499.598,343.683,347.909,343.683,347.909C241.761,332.071,68.5,284.694,68.5,180.519C68.5,142.495,93.008,88.359,209.471,46.17C290.776,16.747,398.365,0.5,512.233,0.5C725.294,0.5,956.035,61.462,956.035,180.519C956.035,284.762,782.979,332.003,680.852,347.909C680.852,347.909,680.852,347.909,680.852,347.909M297.808,532.639C297.466,533.117,297.125,533.594,296.784,534.141C263.128,581.04,245.993,636.609,245.993,692.519C245.993,842.501,365.187,964.494,512.233,964.494C659.075,964.494,778.542,842.501,778.542,692.519C778.542,636.541,761.68,582.815,729.936,537.144C727.069,533.321,741.951,556.737,512.233,191.305C512.233,191.305,297.808,532.639,297.808,532.639C297.808,532.639,297.808,532.639,297.808,532.639M512.233,60.506C279.581,60.506,127.687,129.865,127.687,180.519C127.687,214.516,205.716,270.495,378.635,292.272C378.635,292.272,487.316,119.352,487.316,119.352C492.777,110.751,502.13,105.494,512.233,105.494C522.337,105.494,531.758,110.751,537.219,119.352C537.219,119.352,645.899,292.272,645.899,292.272C818.819,270.495,896.848,214.516,896.848,180.519C896.848,130.275,746.32,60.506,512.233,60.506C512.233,60.506,512.233,60.506,512.233,60.506" class="icon-location-pin"/><glyph unicode="&#x0057;" d="M799.376,574.342C799.376,767.462,642.778,924.061,449.658,924.061C256.538,924.061,99.939,767.462,99.939,574.342C99.939,381.222,256.538,224.624,449.658,224.624C642.778,224.624,799.376,381.222,799.376,574.342C799.376,574.342,799.376,574.342,799.376,574.342M899.315,574.342C899.315,468.191,862.384,370.71,800.878,293.776C800.878,293.776,1009.357,85.296,1009.357,85.296C1028.881,65.773,1028.881,34.166,1009.357,14.643C989.834,-4.881,958.227,-4.881,938.704,14.643C938.704,14.643,730.224,223.122,730.224,223.122C653.29,161.616,555.809,124.685,449.658,124.685C201.312,124.685,0,325.997,0,574.342C0,822.688,201.312,1024,449.658,1024C698.003,1024,899.315,822.688,899.315,574.342C899.315,574.342,899.315,574.342,899.315,574.342" class="icon-magnifying-glass"/><glyph unicode="&#x0058;" d="M949.419,876.54C903.964,899.637,848.555,901.4,801.28,881.091C801.28,881.091,688.071,832.622,688.071,832.622C673.849,826.535,657.465,826.535,643.186,832.622C643.186,832.622,427.634,924.895,427.634,924.895C406.244,933.998,382.862,938.549,359.424,938.663C359.083,938.663,358.798,938.833,358.457,938.833C358.116,938.833,357.831,938.663,357.49,938.663C334.052,938.549,310.613,933.998,289.223,924.895C289.223,924.895,112.754,849.347,112.754,849.347C43.236,819.594,0,759.975,0,693.813C0,693.813,0,259.58,0,259.58C0,213.386,27.932,171.63,74.638,147.793C120.149,124.696,175.445,122.99,222.834,143.299C222.834,143.299,336.043,191.712,336.043,191.712C350.265,197.799,366.649,197.799,380.871,191.712C380.871,191.712,596.48,99.438,596.48,99.438C617.927,90.279,641.479,85.671,665.031,85.614C665.202,85.614,665.429,85.5,665.657,85.5C665.827,85.5,666.055,85.614,666.226,85.614C689.778,85.671,713.33,90.279,734.777,99.438C734.777,99.438,911.303,174.986,911.303,174.986C980.821,204.739,1024,264.359,1024,330.52C1024,330.52,1024,764.753,1024,764.753C1024.057,810.947,996.181,852.76,949.419,876.54C949.419,876.54,949.419,876.54,949.419,876.54M176.128,219.246C153.941,209.802,135.168,217.141,128.114,220.725C112.128,228.86,102.514,243.424,102.514,259.694C102.514,259.694,102.514,693.87,102.514,693.87C102.514,727.946,124.359,758.439,159.573,773.457C159.573,773.457,307.314,836.718,307.314,836.718C307.314,836.718,307.314,273.233,307.314,273.233C301.34,271.413,295.083,270.161,289.337,267.715C289.337,267.715,176.128,219.246,176.128,219.246C176.128,219.246,176.128,219.246,176.128,219.246M427.691,267.715C421.945,270.161,415.687,271.413,409.714,273.233C409.714,273.233,409.714,836.718,409.714,836.718C409.714,836.718,596.537,756.789,596.537,756.789C602.226,754.286,608.484,753.091,614.457,751.214C614.457,751.214,614.457,187.729,614.457,187.729C614.457,187.729,427.691,267.715,427.691,267.715C427.691,267.715,427.691,267.715,427.691,267.715M921.657,330.52C921.657,296.501,899.811,265.952,864.597,250.933C864.597,250.933,716.857,187.729,716.857,187.729C716.857,187.729,716.857,751.214,716.857,751.214C722.887,753.034,729.088,754.286,734.834,756.789C734.834,756.789,848.043,805.201,848.043,805.201C870.172,814.702,889.003,807.363,896.057,803.779C912.043,795.587,921.657,781.08,921.657,764.81C921.657,764.81,921.657,330.52,921.657,330.52C921.657,330.52,921.657,330.52,921.657,330.52" class="icon-map"/><glyph unicode="&#x0059;" d="M325.837,884.395C325.837,896.751,320.922,908.629,312.183,917.367C303.445,926.037,291.635,930.953,279.279,930.953C279.279,930.953,139.674,930.953,139.674,930.953C127.317,930.953,115.439,926.037,106.701,917.367C97.963,908.629,93.116,896.751,93.116,884.395C93.116,674.543,176.469,473.293,324.881,324.881C473.225,176.538,674.543,93.116,884.395,93.116C896.751,93.116,908.561,98.031,917.299,106.769C926.037,115.507,930.884,127.317,930.884,139.674C930.884,139.674,930.884,279.279,930.884,279.279C930.884,291.635,926.037,303.445,917.299,312.183C908.561,320.922,896.751,325.837,884.395,325.837C884.395,325.837,744.721,325.837,744.721,325.837C737.553,325.837,730.385,324.13,723.9,320.922C717.483,317.713,711.817,313.003,707.516,307.268C707.516,307.268,707.311,306.927,707.311,306.927C707.311,306.927,690.722,285.355,690.722,285.355C677.956,268.561,659.797,256.478,639.249,251.358C618.769,246.238,597.129,248.286,577.877,257.092C577.536,257.297,577.195,257.502,576.785,257.638C438.272,325.632,326.178,437.589,258.048,575.966C258.048,575.966,257.911,576.171,257.911,576.171C248.491,595.49,246.033,617.54,251.017,638.43C255.932,659.388,268.015,677.956,285.082,690.995C285.082,690.995,285.423,691.2,285.423,691.2C285.423,691.2,307.268,707.584,307.268,707.584C313.003,711.885,317.713,717.551,320.922,723.968C324.13,730.453,325.837,737.553,325.837,744.789C325.837,744.789,325.837,884.395,325.837,884.395C325.837,884.395,325.837,884.395,325.837,884.395M418.953,744.789C418.953,723.081,413.833,701.713,404.139,682.325C394.445,662.938,380.45,646.076,363.11,633.037C363.11,633.037,341.606,616.994,341.606,616.994C400.521,497.459,497.254,400.794,616.721,341.811C616.721,341.811,633.242,363.452,633.242,363.452C646.212,380.587,663.006,394.581,682.325,404.207C701.713,413.901,723.081,418.953,744.721,418.953C744.721,418.953,884.395,418.953,884.395,418.953C921.395,418.953,956.962,404.207,983.108,378.061C1009.323,351.846,1024,316.348,1024,279.279C1024,279.279,1024,139.674,1024,139.674C1024,102.605,1009.323,67.106,983.108,40.96C960.239,18.022,930.133,3.891,898.185,0.751C898.185,0.751,884.395,0,884.395,0C649.83,0,424.892,93.252,259.004,259.072C93.184,424.892,0.068,649.83,0,884.395C0,921.463,14.677,956.962,40.892,983.177C67.106,1009.391,102.605,1024,139.674,1024C139.674,1024,279.279,1024,279.279,1024C316.348,1024,351.846,1009.323,378.061,983.177C404.207,956.962,418.953,921.463,418.953,884.395C418.953,884.395,418.953,744.789,418.953,744.789C418.953,744.789,418.953,744.789,418.953,744.789" class="icon-phone"/><glyph unicode="&#x005a;" d="M246.204,15.749C183.943,-25.144,102.5,21.005,102.5,97.192C102.5,97.192,102.5,927.875,102.5,927.875C102.5,1003.993,183.943,1050.143,246.204,1009.25C246.204,1009.25,878.432,593.909,878.432,593.909C936.186,556.02,936.186,469.047,878.432,431.09C878.432,431.09,246.204,15.749,246.204,15.749C246.204,15.749,246.204,15.749,246.204,15.749" class="icon-play"/><glyph unicode="&#x0061;" d="M680.098,219.682C679.961,220.774,679.757,221.798,679.757,222.959C679.757,222.959,679.757,337.237,679.757,337.237C679.757,337.237,345.318,337.237,345.318,337.237C345.318,337.237,345.318,174.763,345.318,174.763C345.318,131.277,356.446,104.175,373.376,87.723C390.306,71.339,418.227,60.484,463.078,60.484C463.078,60.484,562.338,60.484,562.338,60.484C607.121,60.484,635.042,71.339,651.972,87.723C668.902,104.175,680.098,131.277,680.098,174.763C680.098,174.763,680.098,219.682,680.098,219.682C680.098,219.682,680.098,219.682,680.098,219.682M413.38,590.438C430.583,590.37,444.441,576.853,444.441,560.196C444.441,543.471,430.583,529.954,413.38,529.954C413.38,529.954,264.422,529.954,264.422,529.954C247.219,529.954,233.293,543.471,233.293,560.196C233.293,576.853,247.219,590.438,264.422,590.438C264.422,590.438,413.38,590.438,413.38,590.438C413.38,590.438,413.38,590.438,413.38,590.438M927.906,608.324C927.906,651.878,916.778,678.912,899.848,695.364C882.918,711.748,854.997,722.671,810.146,722.671C810.146,722.671,214.587,722.671,214.587,722.671C169.736,722.671,141.815,711.748,124.885,695.364C107.955,678.912,96.827,651.878,96.827,608.324C96.827,608.324,96.827,367.479,96.827,367.479C96.827,323.994,107.955,296.892,124.885,280.439C141.815,264.055,169.736,253.201,214.587,253.201C214.587,253.201,282.718,253.201,282.718,253.201C282.718,253.201,282.718,337.237,282.718,337.237C282.718,337.237,264.422,337.237,264.422,337.237C247.219,337.237,233.293,350.754,233.293,367.479C233.293,384.137,247.219,397.722,264.422,397.722C264.422,397.722,760.789,397.722,760.789,397.722C777.992,397.722,791.919,384.137,791.919,367.479C791.919,350.822,777.992,337.237,760.789,337.237C760.789,337.237,742.357,337.237,742.357,337.237C742.357,337.237,742.357,253.201,742.357,253.201C742.357,253.201,810.146,253.201,810.146,253.201C854.997,253.201,882.918,264.055,899.848,280.439C916.778,296.892,927.906,323.925,927.906,367.479C927.906,367.479,927.906,608.324,927.906,608.324C927.906,608.324,927.906,608.324,927.906,608.324M717.03,849.237C717.03,894.703,708.019,921.327,692.864,936.96C678.118,952.252,651.289,963.516,599.27,963.516C599.27,963.516,425.531,963.516,425.531,963.516C373.444,963.516,346.615,952.252,331.938,936.96C316.783,921.327,307.771,894.703,307.771,849.237C307.771,849.237,307.771,783.087,307.771,783.087C307.771,783.087,717.03,783.087,717.03,783.087C717.03,783.087,717.03,849.237,717.03,849.237C717.03,849.237,717.03,849.237,717.03,849.237M779.289,783.087C779.289,783.087,810.146,783.087,810.146,783.087C864.623,783.087,911.181,769.843,943.88,738.099C976.58,706.355,990.233,661.163,990.233,608.324C990.233,608.324,990.233,367.479,990.233,367.479C990.233,314.641,976.58,269.449,943.88,237.705C911.181,205.961,864.623,192.717,810.146,192.717C810.146,192.717,742.357,192.717,742.357,192.717C742.357,192.717,742.357,174.763,742.357,174.763C742.357,121.924,728.704,76.732,696.004,44.988C663.304,13.244,616.746,0,562.338,0C562.338,0,463.078,0,463.078,0C408.601,0,362.043,13.244,329.344,44.988C296.644,76.732,282.991,121.924,282.991,174.763C282.991,174.763,282.991,192.717,282.991,192.717C282.991,192.717,214.587,192.717,214.587,192.717C160.111,192.717,113.553,205.961,80.853,237.705C48.153,269.449,34.5,314.641,34.5,367.479C34.5,367.479,34.5,608.324,34.5,608.324C34.5,661.163,48.153,706.355,80.853,738.099C113.553,769.843,160.111,783.087,214.587,783.087C214.587,783.087,245.444,783.087,245.444,783.087C245.444,783.087,245.444,849.237,245.444,849.237C245.444,900.096,255.07,945.766,286.472,978.261C318.285,1011.234,365.935,1024,425.531,1024C425.531,1024,599.27,1024,599.27,1024C658.867,1024,706.449,1011.234,738.261,978.261C769.664,945.766,779.289,900.096,779.289,849.237C779.289,849.237,779.289,783.087,779.289,783.087C779.289,783.087,779.289,783.087,779.289,783.087" class="icon-printer"/><glyph unicode="&#x0062;" d="M0.5,148.912C0.5,148.912,0.5,252.814,0.5,252.814C0.5,277.39,20.434,297.323,45.01,297.323C69.586,297.323,89.588,277.39,89.588,252.814C89.588,252.814,89.588,148.912,89.588,148.912C89.588,133.142,95.8,118.055,106.928,106.928C118.055,95.8,133.142,89.588,148.912,89.588C148.912,89.588,252.814,89.588,252.814,89.588C277.39,89.588,297.323,69.586,297.323,45.01C297.323,20.434,277.39,0.5,252.814,0.5C252.814,0.5,148.912,0.5,148.912,0.5C109.522,0.5,71.839,16.133,43.986,43.986C16.133,71.839,0.5,109.522,0.5,148.912C0.5,148.912,0.5,148.912,0.5,148.912M935.412,148.912C935.412,148.912,935.412,252.814,935.412,252.814C935.48,277.39,955.414,297.323,979.99,297.323C1004.566,297.323,1024.5,277.39,1024.5,252.814C1024.5,252.814,1024.5,148.912,1024.5,148.912C1024.5,109.59,1008.867,71.839,981.014,43.986C953.161,16.133,915.478,0.5,876.088,0.5C876.088,0.5,772.186,0.5,772.186,0.5C747.61,0.5,727.677,20.434,727.677,45.01C727.677,69.654,747.61,89.588,772.186,89.588C772.186,89.588,876.088,89.588,876.088,89.588C891.858,89.588,906.945,95.8,918.072,106.928C929.2,118.055,935.412,133.142,935.412,148.912C935.412,148.912,935.412,148.912,935.412,148.912M623.775,512.5C623.775,574.008,573.94,623.775,512.5,623.775C451.06,623.775,401.225,574.008,401.225,512.5C401.225,451.06,451.06,401.225,512.5,401.225C539.67,401.225,564.587,410.987,583.907,427.167C585.614,429.897,587.662,432.491,590.051,434.881C592.44,437.27,595.103,439.318,597.833,441.093C614.013,460.413,623.775,485.33,623.775,512.5C623.775,512.5,623.775,512.5,623.775,512.5M0.5,772.186C0.5,772.186,0.5,876.088,0.5,876.088C0.5,915.478,16.133,953.161,43.986,981.014C71.839,1008.867,109.522,1024.5,148.912,1024.5C148.912,1024.5,252.814,1024.5,252.814,1024.5C277.39,1024.5,297.323,1004.566,297.323,979.99C297.323,955.414,277.39,935.48,252.814,935.48C252.814,935.48,148.912,935.48,148.912,935.48C133.142,935.48,118.055,929.2,106.928,918.072C95.8,906.945,89.588,891.858,89.588,876.088C89.588,876.088,89.588,772.186,89.588,772.186C89.588,747.61,69.586,727.677,45.01,727.677C20.434,727.677,0.5,747.61,0.5,772.186C0.5,772.186,0.5,772.186,0.5,772.186M935.412,772.186C935.412,772.186,935.412,876.088,935.412,876.088C935.412,891.858,929.2,906.945,918.072,918.072C906.945,929.2,891.858,935.48,876.088,935.48C876.088,935.48,772.186,935.48,772.186,935.48C747.61,935.48,727.677,955.414,727.677,979.99C727.677,1004.566,747.61,1024.5,772.186,1024.5C772.186,1024.5,876.088,1024.5,876.088,1024.5C915.478,1024.5,953.161,1008.867,981.014,981.014C1008.867,953.161,1024.5,915.478,1024.5,876.088C1024.5,876.088,1024.5,772.186,1024.5,772.186C1024.5,747.61,1004.566,727.677,979.99,727.677C955.414,727.677,935.48,747.61,935.412,772.186C935.412,772.186,935.412,772.186,935.412,772.186M712.863,512.5C712.863,473.315,701.53,436.792,682.074,405.867C682.074,405.867,751.706,336.235,751.706,336.235C769.114,318.827,769.114,290.633,751.706,273.225C734.367,255.886,706.173,255.886,688.765,273.225C688.765,273.225,619.064,342.926,619.064,342.926C588.208,323.47,551.685,312.137,512.5,312.137C401.84,312.137,312.137,401.84,312.137,512.5C312.137,623.16,401.84,712.863,512.5,712.863C623.16,712.863,712.863,623.16,712.863,512.5C712.863,512.5,712.863,512.5,712.863,512.5" class="icon-scan"/><glyph unicode="&#x0063;" d="M458.374,476.979C458.374,476.979,386.694,549.547,386.694,549.547C376.454,559.923,364.507,565.111,350.854,565.111C337.201,565.111,325.254,559.923,315.014,549.547C304.774,539.17,299.654,526.882,299.654,512.614C299.654,498.347,304.774,486.059,315.014,475.682C315.014,475.682,422.534,365.5,422.534,365.5C432.774,355.123,444.721,349.935,458.374,349.935C472.027,349.935,483.974,355.123,494.214,365.5C494.214,365.5,711.848,585.865,711.848,585.865C722.02,596.241,727.14,608.529,727.14,622.797C727.14,637.065,722.02,649.353,711.78,659.729C701.54,670.106,689.389,675.294,675.326,675.294C661.263,675.294,649.111,670.106,638.871,659.729C638.871,659.729,458.374,476.979,458.374,476.979C458.374,476.979,458.374,476.979,458.374,476.979M512.1,0C506.161,0,500.631,0.41,495.511,1.297C490.391,2.116,485.271,3.413,480.151,5.188C364.917,44.032,273.167,115.985,204.9,220.979C136.633,325.973,102.5,438.955,102.5,559.923C102.5,559.923,102.5,804.932,102.5,804.932C102.5,826.505,108.712,845.961,121.069,863.232C133.493,880.503,149.467,893.065,169.06,900.847C169.06,900.847,476.26,1017.515,476.26,1017.515C488.207,1021.815,500.153,1024,512.1,1024C524.047,1024,535.993,1021.815,547.94,1017.515C547.94,1017.515,855.208,900.847,855.208,900.847C874.801,893.065,890.775,880.503,903.2,863.232C915.556,845.961,921.768,826.505,921.768,804.932C921.768,804.932,921.768,559.923,921.768,559.923C921.768,438.955,887.635,325.973,819.368,220.979C751.102,115.985,659.351,44.032,544.117,5.188C538.997,3.413,533.877,2.116,528.757,1.297C523.637,0.41,518.107,0,512.1,0C512.1,0,512.1,0,512.1,0" class="icon-shield-check-filled"/><glyph unicode="&#x0064;" d="M830.684,791.783C725.147,791.783,601.791,853.973,517.143,929.542C515.709,930.771,513.934,931.385,512.091,931.385C510.248,931.385,508.473,930.703,507.108,929.474C507.108,929.474,507.04,929.542,507.04,929.542C422.868,854.519,299.104,791.783,193.566,791.783C193.566,791.783,193.566,466.022,193.566,466.022C193.566,466.022,193.976,446.84,193.976,446.84C198.003,352.565,232.067,282.73,283.949,228.391C340.541,169.136,420.342,126.267,511.955,93.909C512.296,93.841,512.637,93.772,512.979,93.636C604.18,126.198,683.846,169,740.302,228.254C795.596,286.28,830.684,361.986,830.684,466.022C830.684,466.022,830.684,791.783,830.684,791.783C830.684,791.783,830.684,791.783,830.684,791.783M616.468,638.528C634.217,656.687,663.025,656.687,680.843,638.528C698.592,620.37,698.592,590.879,680.843,572.652C680.843,572.652,498.779,386.493,498.779,386.493C481.03,368.334,452.222,368.334,434.405,386.493C434.405,386.493,343.408,479.607,343.408,479.607C325.659,497.766,325.659,527.256,343.408,545.482C361.157,563.641,389.965,563.641,407.781,545.482C407.781,545.482,466.626,485.273,466.626,485.273C466.626,485.273,616.468,638.528,616.468,638.528C616.468,638.528,616.468,638.528,616.468,638.528M921.682,466.022C921.682,337.343,877.173,238.494,805.494,163.266C735.045,89.403,640.498,40.457,542.538,5.505C542.538,5.505,542.196,5.368,542.196,5.368C522.741,-1.322,501.578,-1.117,482.259,5.983C482.259,5.983,482.259,5.915,482.259,5.915C481.986,6.051,481.713,6.188,481.44,6.256C481.372,6.324,481.303,6.256,481.235,6.324C481.235,6.324,481.235,6.324,481.235,6.324C383.412,41.003,289.069,89.745,218.823,163.334C151.583,233.784,108.234,325.055,103.046,442.198C103.046,442.198,102.5,466.022,102.5,466.022C102.5,466.022,102.5,791.783,102.5,791.783C102.5,816.427,112.125,840.115,129.192,857.591C146.258,875.067,169.4,884.829,193.566,884.829C193.566,884.829,208.174,885.375,208.174,885.375C282.652,891.041,378.019,937.802,447.58,999.924C447.58,999.924,447.99,1000.265,447.99,1000.265C465.875,1015.898,488.608,1024.5,512.091,1024.5C535.643,1024.5,558.375,1015.898,576.261,1000.265C576.261,1000.265,576.67,999.924,576.67,999.924C651.284,933.229,754.365,884.829,830.684,884.829C854.85,884.829,877.992,875.067,895.059,857.591C912.125,840.115,921.682,816.427,921.682,791.783C921.682,791.783,921.682,466.022,921.682,466.022C921.682,466.022,921.682,466.022,921.682,466.022" class="icon-shield-check"/><glyph unicode="&#x0065;" d="M435.3,358.4C435.3,358.4,588.9,358.4,588.9,358.4C588.9,358.4,559.477,523.537,559.477,523.537C576.544,532.07,589.992,544.427,599.754,560.606C609.585,576.853,614.5,594.739,614.5,614.4C614.5,642.526,604.465,666.692,584.394,686.694C564.392,706.765,540.226,716.8,512.1,716.8C483.974,716.8,459.808,706.765,439.806,686.694C419.735,666.692,409.7,642.526,409.7,614.4C409.7,594.739,414.615,576.853,424.446,560.606C434.208,544.427,447.656,532.07,464.723,523.537C464.723,523.537,435.3,358.4,435.3,358.4C435.3,358.4,435.3,358.4,435.3,358.4M512.1,0C393.521,29.901,295.558,97.894,218.349,204.186C141.139,310.409,102.5,428.373,102.5,558.08C102.5,558.08,102.5,870.4,102.5,870.4C102.5,870.4,512.1,1024,512.1,1024C512.1,1024,921.7,870.4,921.7,870.4C921.7,870.4,921.7,558.08,921.7,558.08C921.7,428.373,883.061,310.409,805.851,204.186C728.642,97.894,630.679,29.901,512.1,0C512.1,0,512.1,0,512.1,0" class="icon-shield-lock"/><glyph unicode="&#x0066;" d="M204.787,85.377C204.787,85.377,204.787,809.932,204.787,809.932C204.787,809.932,87.345,687.626,87.345,687.626C67.377,666.826,34.993,666.826,15.024,687.626C-5.008,708.491,-5.008,742.219,15.024,763.083C15.024,763.083,219.763,976.399,219.763,976.399C219.763,976.399,223.667,980.047,223.667,980.047C243.828,997.135,273.46,995.919,292.213,976.399C292.213,976.399,497.016,763.083,497.016,763.083C516.984,742.219,516.984,708.491,497.016,687.626C476.983,666.826,444.599,666.826,424.567,687.626C424.567,687.626,307.189,809.932,307.189,809.932C307.189,809.932,307.189,85.377,307.189,85.377C307.189,55.936,284.276,32,255.988,32C227.7,32,204.787,55.936,204.787,85.377C204.787,85.377,204.787,85.377,204.787,85.377M716.795,938.702C716.795,968.143,739.772,992.015,768.06,992.015C796.284,992.015,819.197,968.143,819.197,938.702C819.197,938.702,819.197,214.147,819.197,214.147C819.197,214.147,936.639,336.389,936.639,336.389C956.671,357.189,988.991,357.189,1009.024,336.389C1028.992,315.524,1028.992,281.796,1009.024,260.996C1009.024,260.996,804.221,47.616,804.221,47.616C784.252,26.816,751.804,26.816,731.771,47.616C731.771,47.616,527.032,260.996,527.032,260.996C507,281.796,507,315.524,527.032,336.389C547.001,357.189,579.449,357.189,599.417,336.389C599.417,336.389,716.795,214.147,716.795,214.147C716.795,214.147,716.795,938.702,716.795,938.702C716.795,938.702,716.795,938.702,716.795,938.702" class="icon-sort"/><glyph unicode="&#x0067;" d="M945.22,879.616C945.22,915.866,915.797,945.22,879.616,945.22C879.616,945.22,144.384,945.22,144.384,945.22C108.134,945.22,78.78,915.866,78.78,879.616C78.78,879.616,78.78,144.452,78.78,144.452C78.78,108.203,108.134,78.78,144.384,78.78C144.384,78.78,879.616,78.78,879.616,78.78C915.797,78.78,945.22,108.203,945.22,144.452C945.22,144.452,945.22,879.616,945.22,879.616C945.22,879.616,945.22,879.616,945.22,879.616M641.707,697.412C657.067,712.772,681.984,712.772,697.412,697.412C712.772,682.052,712.772,657.067,697.344,641.707C697.344,641.707,382.293,326.656,382.293,326.656C366.933,311.228,342.016,311.228,326.588,326.656C311.228,342.016,311.228,366.933,326.588,382.362C326.588,382.293,641.707,697.412,641.707,697.412C641.707,697.412,641.707,697.412,641.707,697.412M670.037,393.899C691.814,393.899,709.427,376.218,709.427,354.509C709.427,332.732,691.814,315.119,670.037,315.119C670.037,315.119,669.559,315.119,669.559,315.119C647.782,315.119,630.17,332.732,630.17,354.509C630.17,376.218,647.782,393.899,669.559,393.899C669.559,393.899,670.037,393.899,670.037,393.899C670.037,393.899,670.037,393.899,670.037,393.899M354.987,708.949C376.695,708.949,394.377,691.337,394.377,669.559C394.377,647.782,376.695,630.17,354.987,630.17C354.987,630.17,354.441,630.17,354.441,630.17C332.732,630.17,315.051,647.782,315.051,669.559C315.051,691.337,332.732,708.949,354.441,708.949C354.441,708.949,354.987,708.949,354.987,708.949C354.987,708.949,354.987,708.949,354.987,708.949M1024,144.452C1024,64.649,959.351,0,879.616,0C879.616,0,144.384,0,144.384,0C64.649,0,0,64.649,0,144.452C0,144.452,0,879.616,0,879.616C0,959.351,64.649,1024,144.384,1024C144.384,1024,879.616,1024,879.616,1024C959.351,1024,1024,959.351,1024,879.616C1024,879.616,1024,144.452,1024,144.452C1024,144.452,1024,144.452,1024,144.452" class="icon-square-discount"/><glyph unicode="&#x0068;" d="M512,1024C512,1024,632.9,632.9,632.9,632.9C632.9,632.9,1024,632.9,1024,632.9C1024,632.9,707.584,391.1,707.584,391.1C707.584,391.1,828.416,0,828.416,0C828.416,0,512,241.732,512,241.732C512,241.732,195.584,0,195.584,0C195.584,0,316.416,391.1,316.416,391.1C316.416,391.1,0,632.9,0,632.9C0,632.9,391.1,632.9,391.1,632.9C391.1,632.9,512,1024,512,1024C512,1024,512,1024,512,1024" class="icon-star"/><glyph unicode="&#x0069;" d="M800.134,146.5C800.134,146.5,634.636,146.5,634.636,146.5C634.636,146.5,590.068,146.5,590.068,146.5C590.068,146.5,580.462,146.5,580.462,146.5C580.462,146.5,580.462,364.417,580.462,364.417C580.462,364.417,653.068,364.417,653.068,364.417C671.451,364.417,682.325,384.946,671.451,399.769C671.451,399.769,530.237,591.599,530.237,591.599C521.216,603.935,502.589,603.935,493.617,591.599C493.617,591.599,352.354,399.769,352.354,399.769C341.48,384.946,352.158,364.417,370.786,364.417C370.786,364.417,443.392,364.417,443.392,364.417C443.392,364.417,443.392,146.5,443.392,146.5C443.392,146.5,433.786,146.5,433.786,146.5C433.786,146.5,389.218,146.5,389.218,146.5C389.218,146.5,197.339,146.5,197.339,146.5C87.479,152.449,0,253.289,0,362.564C0,437.95,41.643,503.681,103.375,539.228C97.719,554.198,94.793,570.241,94.793,587.064C94.793,664.108,158.184,726.328,236.642,726.328C253.611,726.328,269.946,723.451,285.208,717.941C330.606,812.393,428.52,877.929,542.379,877.929C689.64,877.734,811.008,766.995,824.808,625.927C938.033,606.812,1024,503.876,1024,387.433C1024,262.943,925.257,155.131,800.134,146.5C800.134,146.5,800.134,146.5,800.134,146.5" class="icon-upload"/><glyph unicode="&#x006a;" d="M660.224,74.228C660.224,74.228,660.224,171.636,660.224,171.636C660.224,212.212,644.608,251.124,616.832,279.86C588.992,308.532,551.296,324.66,512,324.66C512,324.66,229.056,324.66,229.056,324.66C189.76,324.66,152.064,308.532,124.288,279.86C96.448,251.124,80.896,212.212,80.896,171.636C80.896,171.636,80.896,74.228,80.896,74.228C80.896,51.188,62.784,32.5,40.448,32.5C18.112,32.5,0,51.188,0,74.228C0,74.228,0,171.636,0,171.636C0,234.356,24.128,294.516,67.072,338.868C110.08,383.22,168.32,408.116,229.056,408.116C229.056,408.116,512,408.116,512,408.116C572.736,408.116,631.04,383.22,673.984,338.868C716.928,294.516,741.056,234.356,741.056,171.636C741.056,171.636,741.056,74.228,741.056,74.228C741.056,51.188,722.944,32.5,700.608,32.5C678.336,32.5,660.224,51.188,660.224,74.228C660.224,74.228,660.224,74.228,660.224,74.228M943.168,74.228C943.168,74.228,943.168,171.572,943.168,171.572C943.168,171.572,943.04,177.908,943.04,177.908C941.76,209.588,930.944,240.116,912.064,265.204C891.968,292.02,863.808,311.156,832,319.668C810.368,325.428,797.376,348.148,802.944,370.484C808.576,392.82,830.592,406.26,852.224,400.5C901.376,387.38,944.896,357.812,976,316.404C1007.104,274.932,1024,224.052,1024,171.636C1024,171.636,1024,74.228,1024,74.228C1024,51.188,1005.888,32.5,983.616,32.5C961.28,32.5,943.168,51.188,943.168,74.228C943.168,74.228,943.168,74.228,943.168,74.228M518.784,755.956C518.784,840.5,452.416,908.98,370.56,908.98C288.704,908.98,222.336,840.5,222.336,755.956C222.336,671.412,288.704,602.932,370.56,602.932C452.416,602.932,518.72,671.412,518.784,755.956C518.784,755.956,518.784,755.956,518.784,755.956M801.536,755.956C801.536,789.876,790.592,822.772,770.496,849.588C750.4,876.404,722.304,895.604,690.496,904.116C668.864,909.876,655.936,932.66,661.504,954.996C667.136,977.268,689.152,990.708,710.784,984.884C759.936,971.764,803.392,942.132,834.432,900.724C865.536,859.252,882.368,808.372,882.368,755.956C882.368,703.54,865.536,652.66,834.432,611.188C803.392,569.78,759.936,540.148,710.784,527.028C689.152,521.204,667.136,534.644,661.504,556.916C655.936,579.252,668.864,602.036,690.496,607.796C722.304,616.308,750.4,635.508,770.496,662.324C790.592,689.076,801.536,722.036,801.536,755.956C801.536,755.956,801.536,755.956,801.536,755.956M599.616,755.956C599.616,625.332,497.024,519.412,370.56,519.412C244.032,519.412,141.504,625.332,141.504,755.956C141.504,886.58,244.032,992.5,370.56,992.5C497.024,992.5,599.616,886.58,599.616,755.956C599.616,755.956,599.616,755.956,599.616,755.956" class="icon-users"/><glyph unicode="&#x006b;" d="M512,1024C229.717,1024,0,794.283,0,512C0,423.868,22.801,337.169,65.946,260.71C65.946,260.71,0.819,28.262,0.819,28.262C-1.297,20.617,0.751,12.425,6.281,6.758C10.513,2.389,16.316,0,22.255,0C24.03,0,25.873,0.205,27.58,0.614C27.58,0.614,270.131,60.757,270.131,60.757C344.201,20.958,427.622,0,512,0C794.283,0,1024,229.717,1024,512C1024,794.283,794.283,1024,512,1024C512,1024,512,1024,512,1024M769.57,331.366C758.579,300.988,706.082,273.34,680.823,269.653C658.159,266.308,629.487,264.875,598.016,274.773C578.97,280.781,554.462,288.768,523.059,302.148C391.236,358.332,305.152,489.472,298.53,498.142C291.977,506.743,244.873,568.457,244.873,632.354C244.873,696.183,278.801,727.586,290.884,740.625C302.967,753.596,317.167,756.873,325.973,756.873C334.711,756.873,343.45,756.736,351.164,756.395C359.219,755.985,370.074,759.467,380.723,734.14C391.714,708.13,417.997,644.233,421.205,637.747C424.482,631.262,426.667,623.616,422.366,614.946C417.997,606.345,415.812,600.883,409.19,593.306C402.637,585.728,395.401,576.375,389.461,570.573C382.908,564.087,376.081,557.056,383.727,544.085C391.373,531.046,417.724,488.585,456.841,454.178C507.017,409.941,549.41,396.22,562.517,389.734C575.693,383.249,583.339,384.341,590.985,393.011C598.63,401.681,623.889,430.899,632.627,443.87C641.365,456.841,650.103,454.724,662.187,450.355C674.27,446.054,738.918,414.652,752.026,408.166C765.133,401.681,773.939,398.404,777.216,393.011C780.493,387.618,780.493,361.609,769.57,331.366C769.57,331.366,769.57,331.366,769.57,331.366" class="icon-whatsapp"/><glyph unicode="&#x006c;" d="M446.008,172.539C446.008,172.539,26.804,582.429,26.804,582.429C16.808,592.23,9.64,602.957,5.398,614.66C1.155,626.363,-0.6,638.651,0.18,651.475C0.96,664.3,3.837,676.392,8.86,687.705C13.882,699.018,21.782,708.819,32.607,717.157C95.119,769.966,170.212,809.999,257.837,837.159C345.461,864.32,430.16,877.924,512.031,877.924C594.633,877.924,679.332,864.125,766.176,836.574C853.021,809.024,928.114,768.844,991.406,715.987C1002.231,707.697,1010.131,697.701,1015.153,685.998C1020.176,674.296,1023.052,662.398,1023.833,650.354C1024.613,638.261,1022.662,626.363,1018.03,614.66C1013.398,602.957,1006.474,592.23,997.209,582.429C997.209,582.429,980.971,566.532,980.971,566.532C957.858,605.054,925.968,636.359,885.447,660.545C844.926,684.682,797.628,696.775,743.6,696.775C666.41,696.775,600.777,670.346,546.749,617.488C492.721,564.68,465.707,500.509,465.707,425.026C465.707,372.949,478.239,326.723,503.351,286.3C528.415,245.925,559.866,214.815,597.705,192.921C597.705,192.921,578.005,172.539,578.005,172.539C568.741,163.469,558.549,156.886,547.334,152.741C536.119,148.548,524.368,146.5,512.031,146.5C499.645,146.5,487.894,148.548,476.679,152.741C465.512,156.886,455.272,163.469,446.008,172.539C446.008,172.539,446.008,172.539,446.008,172.539M924.261,184.973C924.261,184.973,837.417,268.794,837.417,268.794C823.52,260.456,808.843,254.263,793.385,250.07C777.977,245.925,761.349,243.877,743.6,243.877C691.132,243.877,647.1,261.236,611.602,295.954C576.104,330.673,558.354,373.68,558.354,425.026C558.354,476.372,576.104,519.38,611.602,554.098C647.1,588.817,691.132,606.176,743.6,606.176C796.116,606.176,840.099,588.817,875.597,554.098C911.145,519.38,928.894,476.372,928.894,425.026C928.894,407.667,926.748,391.43,922.506,376.313C918.264,361.246,911.925,346.91,903.392,333.306C903.392,333.306,989.114,248.412,989.114,248.412C997.599,240.074,1002.036,229.736,1002.426,217.253C1002.816,204.819,998.379,194.043,989.114,184.973C980.63,176.683,969.805,172.539,956.688,172.539C943.571,172.539,932.746,176.683,924.261,184.973C924.261,184.973,924.261,184.973,924.261,184.973M743.6,334.427C769.833,334.427,791.874,343.107,809.623,360.466C827.372,377.825,836.247,399.378,836.247,425.026C836.247,450.675,827.372,472.179,809.623,489.538C791.874,506.946,769.833,515.625,743.6,515.625C717.366,515.625,695.374,506.946,677.625,489.538C659.827,472.179,650.953,450.675,650.953,425.026C650.953,399.378,659.827,377.825,677.625,360.466C695.374,343.107,717.366,334.427,743.6,334.427C743.6,334.427,743.6,334.427,743.6,334.427" class="icon-wifi-find"/><glyph unicode="&#x006d;" d="M564.675,734.87C564.675,758.901,574.097,781.976,590.891,799.111C590.891,799.111,727.907,936.127,727.907,936.127C698.892,941.111,668.991,941.043,639.703,935.718C588.843,926.433,542.01,901.856,505.486,865.332C468.962,828.808,444.454,781.976,435.169,731.184C425.884,680.323,432.37,627.893,453.67,580.855C460.906,564.744,457.493,545.901,445.068,533.408C445.068,533.408,103.518,191.858,103.518,191.858C91.776,180.184,85.222,164.277,85.222,147.688C85.222,131.099,91.776,115.26,103.518,103.518C115.26,91.776,131.099,85.222,147.688,85.222C164.277,85.222,180.184,91.776,191.858,103.518C191.858,103.518,533.408,445.068,533.408,445.068C533.408,445.068,535.798,447.253,535.798,447.253C548.223,457.903,565.768,460.497,580.787,453.67C627.893,432.37,680.323,425.953,731.184,435.169C781.976,444.454,828.808,468.962,865.332,505.554C901.856,542.078,926.433,588.843,935.649,639.703C941.043,669.059,941.043,698.892,936.127,727.975C936.127,727.975,799.384,591.232,799.384,591.232C799.316,591.164,799.18,591.027,799.111,590.959C781.976,574.097,758.901,564.675,734.87,564.675C710.839,564.675,687.765,574.097,670.629,590.959C670.492,591.027,670.356,591.164,670.288,591.232C670.288,591.232,591.232,670.288,591.232,670.288C591.096,670.424,591.027,670.492,590.891,670.629C574.097,687.765,564.675,710.839,564.675,734.87C564.675,734.87,564.675,734.87,564.675,734.87M649.397,734.87C649.397,733.027,650.148,731.252,651.445,729.955C651.445,729.955,729.887,651.445,729.887,651.445C729.887,651.445,730.979,650.558,730.979,650.558C732.139,649.807,733.437,649.397,734.87,649.397C736.713,649.397,738.488,650.148,739.786,651.445C739.786,651.445,925.819,837.479,925.819,837.479C925.819,837.479,927.73,839.254,927.73,839.254C937.424,847.855,950.532,851.542,963.367,849.221C977.021,846.695,988.626,837.683,994.361,824.985C1022.761,762.246,1031.363,692.27,1019.006,624.547C1006.649,556.756,973.948,494.358,925.273,445.614C876.528,396.938,814.131,364.169,746.339,351.813C688.379,341.299,628.917,346.078,573.619,365.466C573.619,365.466,251.798,43.578,251.798,43.578C224.218,15.997,186.738,0.5,147.688,0.5C108.638,0.5,71.227,15.997,43.578,43.578C15.997,71.227,0.5,108.638,0.5,147.688C0.5,186.738,15.997,224.149,43.578,251.798C43.578,251.798,365.398,573.619,365.398,573.619C346.078,628.917,341.299,688.447,351.813,746.339C364.169,814.131,396.87,876.528,445.614,925.273C494.29,973.948,556.688,1006.718,624.479,1019.006C692.27,1031.363,762.178,1022.761,824.985,994.361C837.615,988.626,846.695,977.089,849.153,963.367C851.679,949.713,847.309,935.649,837.479,925.819C837.479,925.819,651.445,739.786,651.445,739.786C651.445,739.786,650.558,738.762,650.558,738.762C649.807,737.601,649.397,736.236,649.397,734.87C649.397,734.87,649.397,734.87,649.397,734.87" class="icon-wrench"/><glyph unicode="&#x006e;" d="M375.945,750.319C375.945,750.319,710.315,272.043,710.315,272.043C710.315,272.043,647.578,272.043,647.578,272.043C647.578,272.043,313.276,750.319,313.276,750.319C313.276,750.319,375.945,750.319,375.945,750.319C375.945,750.319,375.945,750.319,375.945,750.319M512,1024C794.761,1024,1024,794.761,1024,512C1024,229.239,794.761,0,512,0C229.239,0,0,229.239,0,512C0,794.761,229.239,1024,512,1024C512,1024,512,1024,512,1024M229.854,795.921C229.854,795.921,234.906,788.617,234.906,788.617C234.906,788.617,446.191,481.075,446.191,481.075C446.191,481.075,235.179,235.793,235.179,235.793C235.179,235.793,228.557,228.079,228.557,228.079C228.557,228.079,289.109,228.079,289.109,228.079C289.109,228.079,290.475,229.717,290.475,229.717C290.475,229.717,473.088,442.027,473.088,442.027C473.088,442.027,618.701,230.127,618.701,230.127C618.701,230.127,620.066,228.079,620.066,228.079C620.066,228.079,794.078,228.079,794.078,228.079C794.078,228.079,569.822,554.53,569.822,554.53C569.822,554.53,771.004,788.207,771.004,788.207C771.004,788.207,777.557,795.921,777.557,795.921C777.557,795.921,717.073,795.921,717.073,795.921C717.073,795.921,715.708,794.351,715.708,794.351C715.708,794.351,542.925,593.579,542.925,593.579C542.925,593.579,405.299,793.941,405.299,793.941C405.299,793.941,403.866,795.921,403.866,795.921C403.866,795.921,229.854,795.921,229.854,795.921C229.854,795.921,229.854,795.921,229.854,795.921" class="icon-x"/><glyph unicode="&#x006f;" d="M568.557,512.483C568.557,512.483,1012.276,956.201,1012.276,956.201C1027.908,971.834,1027.908,997.16,1012.276,1012.724C996.643,1028.357,971.317,1028.357,955.684,1012.724C955.684,1012.724,511.966,569.074,511.966,569.074C511.966,569.074,68.316,1012.724,68.316,1012.724C52.683,1028.357,27.357,1028.357,11.724,1012.724C-3.908,997.16,-3.908,971.834,11.724,956.201C11.724,956.201,455.443,512.483,455.443,512.483C455.443,512.483,11.724,68.764,11.724,68.764C-3.908,53.132,-3.908,27.806,11.724,12.241C19.507,4.391,29.746,0.5,39.986,0.5C50.226,0.5,60.465,4.391,68.316,12.241C68.316,12.241,511.966,455.892,511.966,455.892C511.966,455.892,955.684,12.241,955.684,12.241C963.467,4.391,973.706,0.5,983.946,0.5C994.186,0.5,1004.425,4.391,1012.276,12.241C1027.908,27.806,1027.908,53.132,1012.276,68.764C1012.276,68.764,568.557,512.483,568.557,512.483C568.557,512.483,568.557,512.483,568.557,512.483" class="icon-xmark"/><glyph unicode="&#x0070;" d="M512,921.664C555.779,921.664,600.685,920.537,644.167,918.698C644.167,918.698,695.599,916.266,695.599,916.266C695.599,916.266,744.776,913.3,744.776,913.3C744.776,913.3,790.868,910.215,790.868,910.215C790.868,910.215,832.986,906.893,832.986,906.893C878.663,903.453,921.612,883.936,954.357,851.903C987.043,819.869,1007.449,777.277,1011.839,731.659C1011.839,731.659,1013.915,709.888,1013.915,709.888C1013.915,709.888,1017.712,663.321,1017.712,663.321C1021.331,615.034,1024,562.416,1024,512.112C1024,461.748,1021.331,409.131,1017.712,360.843C1017.712,360.843,1013.915,314.276,1013.915,314.276C1013.915,314.276,1011.839,292.505,1011.839,292.505C1007.449,246.887,987.043,204.295,954.298,172.262C921.612,140.169,878.604,120.712,832.927,117.271C832.927,117.271,790.928,114.008,790.928,114.008C790.928,114.008,744.835,110.864,744.835,110.864C744.835,110.864,695.599,107.958,695.599,107.958C695.599,107.958,644.167,105.466,644.167,105.466C600.151,103.568,556.076,102.559,512,102.5C467.924,102.559,423.849,103.568,379.833,105.466C379.833,105.466,328.401,107.958,328.401,107.958C328.401,107.958,279.224,110.864,279.224,110.864C279.224,110.864,233.132,114.008,233.132,114.008C233.132,114.008,191.014,117.271,191.014,117.271C145.337,120.712,102.388,140.228,69.643,172.262C36.957,204.354,16.551,246.887,12.161,292.505C12.161,292.505,10.085,314.276,10.085,314.276C10.085,314.276,6.288,360.843,6.288,360.843C2.373,411.147,0.297,461.63,0,512.112C0,562.416,2.669,615.034,6.288,663.321C6.288,663.321,10.085,709.888,10.085,709.888C10.085,709.888,12.161,731.659,12.161,731.659C16.551,777.277,36.898,819.81,69.643,851.903C102.329,883.936,145.337,903.453,191.014,906.893C191.014,906.893,233.013,910.215,233.013,910.215C233.013,910.215,279.106,913.3,279.106,913.3C279.106,913.3,328.342,916.266,328.342,916.266C328.342,916.266,379.773,918.698,379.773,918.698C423.79,920.597,467.924,921.605,512,921.664C512,921.664,512,921.664,512,921.664M409.612,636.212C409.612,636.212,409.612,387.953,409.612,387.953C409.612,364.284,435.179,349.513,455.704,361.318C455.704,361.318,670.684,485.477,670.684,485.477C675.37,488.146,679.285,492.061,681.955,496.688C684.684,501.375,686.107,506.714,686.107,512.112C686.107,517.51,684.684,522.79,681.955,527.476C679.285,532.162,675.37,536.018,670.684,538.688C670.684,538.688,455.704,662.787,455.704,662.787C451.018,665.516,445.738,666.94,440.34,666.94C434.942,666.94,429.603,665.516,424.976,662.787C420.29,660.118,416.434,656.203,413.705,651.576C411.036,646.889,409.612,641.61,409.612,636.212C409.612,636.212,409.612,636.212,409.612,636.212C409.612,636.212,409.612,636.212,409.612,636.212" class="icon-youtube-alt"/><glyph unicode="&#x0071;" d="M436.468,379.678C436.468,379.678,674.351,62.5,674.351,62.5C674.351,62.5,1024,62.5,1024,62.5C1024,62.5,631.463,585.96,631.463,585.96C631.463,585.96,958.076,961.654,958.076,961.654C958.076,961.654,825.706,961.654,825.706,961.654C825.706,961.654,570.111,667.686,570.111,667.686C570.111,667.686,349.649,961.654,349.649,961.654C349.649,961.654,0,961.654,0,961.654C0,961.654,375.116,461.404,375.116,461.404C375.116,461.404,28.477,62.5,28.477,62.5C28.477,62.5,160.846,62.5,160.846,62.5C160.846,62.5,436.468,379.678,436.468,379.678C436.468,379.678,436.468,379.678,436.468,379.678M724.301,162.457C724.301,162.457,199.799,861.755,199.799,861.755C199.799,861.755,299.699,861.755,299.699,861.755C299.699,861.755,824.201,162.457,824.201,162.457C824.201,162.457,724.301,162.457,724.301,162.457C724.301,162.457,724.301,162.457,724.301,162.457" class="icon-x-alt"/><glyph unicode="&#x0072;" d="M727.047,1024C727.047,1024,298.012,1024,298.012,1024C111.615,1024,0.5,912.885,0.5,726.547C0.5,726.547,0.5,297.987,0.5,297.987C0.5,111.115,111.615,0,298.012,0C298.012,0,726.513,0,726.513,0C912.911,0,1024.025,111.115,1024.025,297.453C1024.025,297.453,1024.025,726.547,1024.025,726.547C1024.5,912.885,913.445,1024,727.047,1024C727.047,1024,727.047,1024,727.047,1024M512.53,313.352C402.957,313.352,313.852,402.398,313.852,511.97C313.852,621.543,402.957,710.648,512.53,710.648C622.102,710.648,711.148,621.543,711.148,511.97C711.148,402.398,622.102,313.352,512.53,313.352C512.53,313.352,512.53,313.352,512.53,313.352M815.618,774.125C813.068,768.015,809.449,762.379,804.881,757.218C799.72,752.65,794.143,749.031,787.973,746.48C781.804,743.929,775.159,742.387,768.515,742.387C754.692,742.387,741.878,747.489,732.149,757.218C727.581,762.379,723.962,768.015,721.411,774.125C718.86,780.295,717.318,786.939,717.318,793.584C717.318,800.228,718.86,806.932,721.411,813.042C723.962,819.686,727.581,824.848,732.149,829.95C743.954,841.755,761.87,847.332,778.244,843.772C781.804,843.238,784.888,842.23,787.973,840.687C791.058,839.679,794.143,838.136,797.169,836.119C799.72,834.577,802.33,832.026,804.881,829.95C809.449,824.848,813.068,819.686,815.618,813.042C818.169,806.932,819.712,800.228,819.712,793.584C819.712,786.939,818.169,780.295,815.618,774.125C815.618,774.125,815.618,774.125,815.618,774.125" class="icon-instagram-alt"/><glyph unicode="&#x0073;" d="M768.015,1024C835.882,1024,901.02,997.007,949.014,949.014C997.067,901.02,1024,835.882,1024,768.015C1024,768.015,1024,255.985,1024,255.985C1024,188.118,997.067,122.98,949.014,74.986C901.02,26.993,835.882,0,768.015,0C768.015,0,255.985,0,255.985,0C188.118,0,122.98,26.993,74.986,74.986C26.993,122.98,0,188.118,0,255.985C0,255.985,0,768.015,0,768.015C0,835.882,26.993,901.02,74.986,949.014C122.98,997.007,188.118,1024,255.985,1024C255.985,1024,768.015,1024,768.015,1024C768.015,1024,768.015,1024,768.015,1024M307.182,614.424C293.656,614.424,280.605,609.025,270.994,599.415C261.384,589.804,255.985,576.753,255.985,563.167C255.985,563.167,255.985,307.182,255.985,307.182C255.985,293.597,261.384,280.605,270.994,270.994C280.605,261.384,293.656,255.985,307.182,255.985C320.768,255.985,333.819,261.384,343.429,270.994C353.04,280.605,358.439,293.597,358.439,307.182C358.439,307.182,358.439,563.167,358.439,563.167C358.439,576.753,353.04,589.804,343.429,599.415C333.819,609.025,320.768,614.424,307.182,614.424C307.182,614.424,307.182,614.424,307.182,614.424M614.424,614.424C593.897,614.424,573.549,610.271,554.625,602.322C554.625,602.322,548.218,599.415,548.218,599.415C541.039,606.534,531.903,611.458,521.996,613.415C512.089,615.373,501.767,614.364,492.393,610.508C483.079,606.593,475.071,600.067,469.435,591.643C463.799,583.219,460.833,573.312,460.833,563.167C460.833,563.167,460.833,307.182,460.833,307.182C460.833,293.597,466.231,280.605,475.782,270.994C485.393,261.384,498.444,255.985,512.03,255.985C525.615,255.985,538.607,261.384,548.218,270.994C557.828,280.605,563.227,293.597,563.227,307.182C563.227,307.182,563.227,460.773,563.227,460.773C563.227,474.359,568.625,487.41,578.236,497.021C587.787,506.631,600.838,511.97,614.424,511.97C628.009,511.97,641.001,506.631,650.612,497.021C660.222,487.41,665.621,474.359,665.621,460.773C665.621,460.773,665.621,307.182,665.621,307.182C665.621,293.597,671.019,280.605,680.63,270.994C690.24,261.384,703.232,255.985,716.818,255.985C730.403,255.985,743.395,261.384,753.006,270.994C762.616,280.605,768.015,293.597,768.015,307.182C768.015,307.182,768.015,460.773,768.015,460.773C768.015,501.529,751.819,540.624,723.047,569.396C694.215,598.228,655.18,614.424,614.424,614.424C614.424,614.424,614.424,614.424,614.424,614.424M307.182,768.015C294.665,768.015,282.563,763.388,273.189,755.082C263.816,746.717,257.824,735.268,256.341,722.81C256.341,722.81,255.985,716.284,255.985,716.284C256.044,703.232,261.028,690.656,269.986,681.223C278.944,671.731,291.165,665.977,304.216,665.205C317.267,664.494,330.081,668.706,340.048,677.07C350.074,685.435,356.54,697.359,358.083,710.292C358.083,710.292,358.439,716.818,358.439,716.818C358.439,730.403,353.04,743.395,343.429,753.006C333.819,762.616,320.768,768.015,307.182,768.015C307.182,768.015,307.182,768.015,307.182,768.015" class="icon-linkedin-alt"/><glyph unicode="&#x0074;" d="M1024,297.953C1024,111.555,912.885,0.5,726.547,0.5C726.547,0.5,665.621,0.5,665.621,0.5C637.442,0.5,614.364,23.518,614.364,51.697C614.364,51.697,614.364,347.133,614.364,347.133C614.364,360.956,625.636,372.702,639.459,372.702C639.459,372.702,729.573,374.244,729.573,374.244C736.751,374.778,742.921,379.88,744.463,387.058C744.463,387.058,762.379,484.825,762.379,484.825C763.921,494.02,756.743,502.741,747.014,502.741C747.014,502.741,637.976,501.199,637.976,501.199C623.619,501.199,612.347,512.47,611.813,526.293C611.813,526.293,609.796,651.764,609.796,651.764C609.796,659.951,616.441,667.129,625.161,667.129C625.161,667.129,748.022,669.146,748.022,669.146C756.743,669.146,763.388,675.791,763.388,684.511C763.388,684.511,761.37,807.372,761.37,807.372C761.37,816.093,754.667,822.737,746.005,822.737C746.005,822.737,607.72,820.72,607.72,820.72C522.767,819.178,455.137,749.531,456.68,664.519C456.68,664.519,459.231,523.742,459.231,523.742C459.765,509.385,448.493,498.173,434.196,497.639C434.196,497.639,372.736,496.631,372.736,496.631C364.015,496.631,357.371,489.927,357.371,481.266C357.371,481.266,358.913,383.973,358.913,383.973C358.913,375.253,365.557,368.608,374.278,368.608C374.278,368.608,435.679,369.617,435.679,369.617C450.036,369.617,461.307,358.345,461.841,344.523C461.841,344.523,466.409,52.706,466.409,52.706C466.943,24.052,443.925,0.5,415.212,0.5C415.212,0.5,297.453,0.5,297.453,0.5C111.115,0.5,0,111.555,0,298.487C0,298.487,0,726.988,0,726.988C0,913.385,111.115,1024.5,297.453,1024.5C297.453,1024.5,726.547,1024.5,726.547,1024.5C912.885,1024.5,1024,913.385,1024,726.988C1024,726.988,1024,297.953,1024,297.953C1024,297.953,1024,297.953,1024,297.953" class="icon-facebook-alt"/></font>
</defs>
</svg>
