<svg width="98" height="92" viewBox="0 0 98 92" fill="none" xmlns="http://www.w3.org/2000/svg">
<g clip-path="url(#clip0_3078_1617)">
<path d="M67.1721 38.1433L36.1183 65.6091C18.5956 70.3046 -3.99 53.4561 2.96234 29.8958C3.548 27.9067 4.3451 25.8684 5.3739 23.793L8.00028 17.7752C13.4077 5.89443 34.9646 -3.07845 42.2986 2.49974C40.7537 10.6779 47.8387 12.6498 53.2678 9.75203C54.1949 14.6898 56.9757 19.3189 62.8465 17.0043L65.6259 20.5378L66.8107 22.0438C67.7068 23.1826 68.2908 24.5373 68.4961 25.9708C69.0399 29.762 68.3695 33.8818 67.1721 38.1437V38.1433Z" fill="#FFA840"/>
<path d="M16.0306 9.0027C15.3524 9.39318 14.5438 10.5916 14.5972 11.4136C14.6232 11.8139 14.837 12.1434 15.1751 12.3519C15.323 12.4432 15.5672 12.5554 15.7428 12.5567C15.7989 12.5719 15.8546 12.5871 15.9107 12.6019C15.78 12.1811 15.6496 12.1609 15.5192 12.5416C15.1335 12.9644 14.9038 13.7733 14.7042 14.2979C14.5455 14.7153 14.4722 15.1819 14.8066 15.5445C14.9275 15.6755 15.1268 15.7853 15.2916 15.8396C15.753 15.9915 15.5557 15.726 15.9901 16.2806C16.1991 16.5474 16.4555 16.8584 16.5943 17.1646C16.7493 17.5059 16.7142 17.9082 16.8574 18.2589C16.8946 18.3502 17.0185 18.3593 17.053 18.2589C17.1996 17.8297 17.0986 17.485 17.0232 17.0464C16.9405 16.5663 16.9152 16.1411 16.6973 15.7028C16.5794 15.4656 16.4524 15.2032 16.3099 14.9811C16.1873 14.7901 16.188 14.6294 16.1728 14.9161C16.2032 14.344 16.7223 13.6787 16.9081 13.1265C17.1408 12.4355 17.13 11.7691 16.3964 11.4318C16.3265 11.3998 15.9407 11.3355 15.9043 11.2913C15.7823 11.1444 15.9597 10.8193 16.011 10.6835C16.1974 10.1896 16.4899 9.7877 16.4717 9.25538C16.4643 9.03471 16.2278 8.88882 16.0302 9.00236L16.0306 9.0027Z" fill="#EF6A20"/>
<g opacity="0.5">
<path d="M3.44371 31.9016C4.03748 29.9125 4.84606 27.8742 5.88972 25.7989L8.55359 19.781C13.7648 8.49321 33.7599 -0.168036 42.1223 3.77918C42.1568 3.37051 42.2139 2.94466 42.298 2.49961C34.964 -3.07825 13.4071 5.8943 8.00001 17.7754L5.37364 23.7932C4.34484 25.8686 3.5474 27.9069 2.96207 29.896C1.27161 35.6245 1.32801 40.956 2.63276 45.6778C1.80526 41.4705 1.96806 36.8333 3.44404 31.902L3.44371 31.9016Z" fill="white"/>
</g>
<path d="M15.4116 55.8612C15.389 55.4683 15.2573 55.0957 15.1093 54.7308C14.9398 54.3121 14.3953 53.6524 14.5777 53.2404C14.7614 52.8253 15.3295 52.4695 15.6254 52.1299C15.9868 51.7145 16.2344 51.2421 16.5569 50.8015C16.744 50.5461 16.5914 50.1711 16.3516 50.0195C15.7477 49.6381 15.3032 49.1752 14.9232 48.5721V49.127C15.4049 48.3623 16.0489 47.801 16.461 46.9712C16.5292 46.8337 16.3779 46.6302 16.2283 46.7387C15.542 47.235 14.9046 47.9735 14.1704 48.3751C13.915 48.5149 13.8188 48.8801 13.9728 49.127C14.4463 49.8861 15.0445 50.4902 15.774 51.0063V50.0195C14.729 50.7934 13.0031 51.727 12.8214 53.1716C12.6701 54.3737 13.8907 55.8396 15.0174 56.161C15.2032 56.2139 15.4234 56.0633 15.4116 55.8612Z" fill="#EF6A20"/>
<path d="M25.9683 31.6016C26.1649 30.9922 25.871 30.3123 25.9044 29.6792C25.6555 29.8686 25.4063 30.0583 25.1573 30.2476C26.581 30.4689 28.0326 28.8939 28.8665 27.8936C29.0101 27.7215 28.873 27.4954 28.6551 27.5311C27.5611 27.7097 25.6738 28.1072 24.9635 29.0586C24.6058 29.5377 24.7794 29.9221 24.9577 30.4272C25.1334 30.9234 25.2668 31.4295 25.7602 31.6862C25.8433 31.7293 25.9389 31.6916 25.9676 31.602L25.9683 31.6016Z" fill="#EF6A20"/>
<path d="M57.9805 17.274C57.198 18.2483 55.8294 17.339 54.806 17.1618C54.5304 17.1139 54.2382 17.0833 53.9829 17.2318C53.8968 17.2817 53.6681 17.6216 53.5989 17.6385C53.7718 17.5967 53.4077 17.4535 53.3472 17.4161C52.8173 17.091 51.8378 16.6702 51.294 17.1833C50.6671 17.7743 50.7097 19.3335 50.7425 20.1128C50.759 20.5026 51.2758 20.6599 51.4849 20.3135C51.7084 19.9426 51.8925 19.568 52.054 19.1654C52.1931 18.8183 52.2526 18.3874 52.4377 18.0647C52.2924 18.1762 52.1475 18.2874 52.0023 18.3989C52.3248 18.3544 52.7474 18.7904 53.0193 18.9245C53.2847 19.0552 53.5563 19.1337 53.8562 19.1034C54.1227 19.0764 54.4179 18.9737 54.5986 18.7665C54.8394 18.4899 54.6074 18.6644 54.5969 18.5616C54.3723 18.5515 54.3598 18.5633 54.5601 18.597C54.7013 18.629 54.8425 18.661 54.9836 18.693C55.6885 18.8527 56.5404 19.1644 57.2679 19.0107C57.9167 18.8733 58.3375 18.3436 58.7091 17.8356C59.0164 17.4151 58.3105 16.8643 57.9812 17.2746L57.9805 17.274Z" fill="#EF6A20"/>
<path d="M67.1721 38.1429L36.1183 65.6087C18.5956 70.3042 -3.99 53.4558 2.96234 29.8954C1.20568 46.7883 11.5568 61.1339 33.0691 59.668L51.2595 51.4128L63.7736 32.588C64.8582 28.6192 65.4668 24.6012 65.6259 20.5371L66.8107 22.0431C67.7068 23.1818 68.2908 24.5366 68.4961 25.9701C69.0399 29.7613 68.3695 33.881 67.1721 38.1429Z" fill="#EF6A20"/>
<path d="M4.91049 44.9332C6.89075 47.8943 8.94565 50.7351 11.6153 53.079C19.6484 60.1736 31.6941 60.8896 41.3984 57.0616C49.6565 53.9213 56.5957 47.6106 60.6295 39.7657C62.6884 35.8337 63.9131 31.5357 64.7133 27.1852C64.9061 26.3244 65.078 25.4181 65.3182 24.5654C65.3749 25.4673 65.3746 26.3726 65.2891 27.2691C65.0547 29.9654 64.3492 32.602 63.5024 35.1669C57.8957 52.6831 38.4758 64.7222 20.3891 59.2229C13.5367 57.0636 7.03396 51.9932 4.91016 44.9336L4.91049 44.9332Z" fill="#650000"/>
<path d="M29.9948 67.1747C26.899 67.1747 23.7268 66.6141 20.5975 65.4993C15.3532 63.6311 10.7347 60.3935 7.24066 56.1366C-0.188585 47.0846 -1.12383 35.1779 4.67305 23.4683L7.292 17.4676C10.9701 9.38584 21.4932 3.00008 29.9898 0.863403C35.5296 -0.530051 40.067 -0.166526 42.7663 1.88626C42.999 2.06313 43.1115 2.35624 43.0575 2.64295C42.4904 5.64447 43.1112 7.9058 44.8523 9.18235C46.8285 10.6314 50.0642 10.5873 52.9037 9.0715C53.1209 8.95561 53.3803 8.95022 53.6018 9.05634C53.8237 9.16281 53.9815 9.36832 54.0271 9.60988C54.3895 11.54 55.3565 14.9765 57.7623 16.3043C59.0775 17.03 60.6926 17.0239 62.5628 16.2867C62.8803 16.1614 63.243 16.2594 63.4538 16.5276L67.4187 21.5674C68.4009 22.8157 69.0379 24.3008 69.2615 25.8617C69.7597 29.3403 69.3321 33.309 67.9162 38.3519C67.8763 38.4947 67.7956 38.6228 67.6845 38.7211L36.631 66.1869C36.5415 66.2661 36.4345 66.3234 36.3189 66.3547C34.2755 66.9022 32.1538 67.1751 29.9948 67.1751V67.1747ZM36.0825 1.58068C34.3691 1.58068 32.4388 1.83875 30.367 2.35961C22.2292 4.40633 12.1746 10.4683 8.70347 18.0953L6.08182 24.102C6.07676 24.1135 6.07169 24.1249 6.06595 24.136C0.540627 35.284 1.40427 46.5913 8.43563 55.1586C15.1556 63.3461 26.3592 67.3381 35.7437 64.91L66.4892 37.7172C67.7966 32.9927 68.1915 29.2897 67.7318 26.0803C67.5467 24.7873 67.0181 23.5565 66.2034 22.5209L62.5847 17.9211C60.487 18.6269 58.6155 18.538 57.0145 17.6546C55.014 16.5509 53.5069 14.1619 52.7166 10.873C49.5613 12.2351 46.201 12.0855 43.9373 10.4259C41.8189 8.87273 40.9458 6.19532 41.4542 2.85184C40.1319 2.00788 38.2867 1.58034 36.0818 1.58034L36.0825 1.58068Z" fill="#650000"/>
<path d="M15.2622 32.5889C17.7879 31.7544 19.7658 32.6199 21.2874 34.9034C21.5758 37.6388 19.1639 39.448 15.963 40.041C15.5236 40.1225 15.071 39.9625 14.7961 39.6107C14.1472 38.7806 13.6879 37.8265 13.3444 36.7969C13.0411 35.8876 13.1944 34.8826 13.7794 34.1225C14.2334 33.5326 14.7265 33.0195 15.2622 32.5889Z" fill="#77223C"/>
<g opacity="0.4">
<path d="M13.9337 35.3569C14.3876 34.767 14.8808 34.2538 15.4164 33.8233C17.849 33.0194 19.7735 33.7936 21.2714 35.8916C21.317 35.5772 21.3234 35.2477 21.2873 34.9034C19.7657 32.6202 17.7875 31.7543 15.2621 32.5888C14.7264 33.0191 14.2333 33.5322 13.7794 34.1224C13.1947 34.8825 13.041 35.8875 13.3443 36.7968C13.3491 36.811 13.3541 36.8245 13.3588 36.8386C13.4061 36.307 13.599 35.7918 13.9337 35.3569Z" fill="white"/>
</g>
<path d="M15.7329 40.6793C15.1783 40.6793 14.6531 40.431 14.3086 39.9903C13.6621 39.1639 13.1551 38.1828 12.7576 36.9918C12.3854 35.876 12.584 34.6628 13.2885 33.7464C13.7759 33.113 14.3092 32.5615 14.874 32.108C14.9314 32.0618 14.9969 32.0261 15.0671 32.0029C17.8016 31.099 20.0676 31.9601 21.801 34.5614C21.8563 34.6442 21.8908 34.7396 21.9013 34.8386C22.2029 37.7 19.9703 39.926 16.075 40.6476C15.9605 40.6688 15.846 40.6793 15.7325 40.6793H15.7329ZM15.5623 33.1406C15.106 33.5193 14.6713 33.9755 14.269 34.4984C13.8148 35.089 13.6881 35.8753 13.9306 36.6017C14.2825 37.6569 14.725 38.517 15.283 39.2306C15.413 39.3967 15.6302 39.4745 15.8501 39.4337C18.3116 38.9779 20.8448 37.6057 20.6854 35.1163C19.3178 33.1406 17.6395 32.4938 15.5626 33.1406H15.5623Z" fill="#650000"/>
<path d="M26.2304 9.90557C24.6156 11.3839 23.7023 13.3269 23.3929 15.54C23.3034 16.1808 23.5537 16.8156 24.0525 17.2283C27.6084 20.1665 32.189 20.1725 33.4188 17.2832C33.5951 16.8688 33.533 16.3911 33.2773 16.0201C32.315 14.6253 31.5308 13.1881 31.0143 11.6875C30.7715 10.9823 30.2402 10.4126 29.5431 10.1458C28.3883 9.70343 27.2744 9.55283 26.2304 9.90591V9.90557Z" fill="#77223C"/>
<g opacity="0.4">
<path d="M26.5399 11.2946C27.5839 10.9412 28.6982 11.0922 29.8526 11.5345C30.5497 11.8014 31.081 12.3711 31.3239 13.0762C31.815 14.503 32.5503 15.8715 33.448 17.2017C33.5845 16.8071 33.5173 16.3671 33.2781 16.0201C32.3159 14.6253 31.5316 13.1881 31.0152 11.6875C30.7723 10.9823 30.241 10.4126 29.5439 10.1458C28.3891 9.70343 27.2752 9.55283 26.2312 9.90591C24.6164 11.3843 23.7031 13.3272 23.3937 15.5404C23.3279 16.0124 23.4474 16.4803 23.7136 16.8594C24.0321 14.6755 24.9423 12.7575 26.5399 11.2946Z" fill="white"/>
</g>
<path d="M29.6238 20.0608C27.6689 20.0608 25.4938 19.2199 23.6591 17.7042C22.99 17.1513 22.6617 16.3104 22.7809 15.455C23.1244 12.9986 24.1444 10.9785 25.8129 9.45091C25.8761 9.39297 25.9507 9.34883 26.0321 9.3212C27.1342 8.94825 28.3552 9.02944 29.7647 9.56917C30.6243 9.89833 31.293 10.5971 31.599 11.4865C32.0668 12.8453 32.7822 14.2135 33.7866 15.6696C34.1703 16.2255 34.2457 16.9192 33.9879 17.5243C33.48 18.7176 32.4424 19.5592 31.066 19.8941C30.6057 20.0059 30.1217 20.0605 29.6235 20.0605L29.6238 20.0608ZM26.5499 10.4522C25.1567 11.7702 24.3008 13.51 24.0053 15.6254C23.9455 16.0533 24.1107 16.4748 24.4471 16.7527C26.4239 18.3864 28.9078 19.1485 30.7739 18.6947C31.4727 18.5249 32.4002 18.1 32.8507 17.0415C32.9406 16.8306 32.9092 16.5732 32.769 16.37C31.7 14.8202 30.935 13.354 30.4304 11.8878C30.2436 11.345 29.8396 10.9198 29.3222 10.7217C28.2481 10.3104 27.3396 10.2218 26.5499 10.4522Z" fill="#650000"/>
<path d="M40.4448 24.5656C40.3104 22.9444 39.8983 21.245 44.1527 20.8623C46.9338 21.9424 45.4139 26.649 40.4448 24.5656Z" fill="#77223C"/>
<g opacity="0.4">
<path d="M44.6161 21.9424C44.9981 22.0907 45.2984 22.3076 45.5203 22.5661C45.4476 21.8579 45.0001 21.1915 44.1527 20.8623C39.8983 21.245 40.3104 22.9444 40.4448 24.5656C40.5776 24.6212 40.7076 24.6711 40.8356 24.7175C40.787 23.4231 41.175 22.2521 44.6164 21.9428L44.6161 21.9424Z" fill="white"/>
</g>
<path d="M42.7604 25.6346C42.0711 25.6346 41.2345 25.482 40.235 25.0629C40.0493 24.985 39.9223 24.8102 39.9054 24.6094C39.898 24.5201 39.8895 24.4305 39.8814 24.3405C39.802 23.4794 39.7119 22.5034 40.386 21.6948C41.024 20.93 42.2052 20.4944 44.1037 20.3236C44.1868 20.3158 44.2702 20.3279 44.3482 20.3583C45.2912 20.7245 45.91 21.4704 46.0454 22.4043C46.1829 23.3524 45.7759 24.322 44.9832 24.9348C44.5759 25.2495 43.8541 25.6343 42.7601 25.6343L42.7604 25.6346ZM40.9534 24.1855C42.3474 24.7017 43.5629 24.6673 44.3215 24.0811C44.8066 23.7061 45.0572 23.1233 44.9754 22.5596C44.9015 22.0499 44.5809 21.6463 44.0682 21.4125C42.5936 21.5587 41.635 21.8861 41.2176 22.3868C40.8403 22.8393 40.8872 23.4632 40.9538 24.1855H40.9534Z" fill="#650000"/>
<path d="M57.284 23.177C55.5844 22.8683 54.0621 24.1617 53.7305 25.4915C54.6289 27.4075 55.9303 28.3242 57.7474 27.9604C60.2194 26.8803 61.5015 24.2396 57.284 23.177Z" fill="#77223C"/>
<g opacity="0.4">
<path d="M57.284 24.2571C58.8613 24.6543 59.6689 25.2725 59.9333 25.9474C60.3022 24.8986 59.6854 23.782 57.284 23.177C55.5844 22.8683 54.0621 24.1617 53.7305 25.4915C53.8068 25.6546 53.8875 25.8075 53.9696 25.9561C54.5428 24.8763 55.8502 23.997 57.2836 24.2571H57.284Z" fill="white"/>
</g>
<path d="M56.9746 28.5806C55.3862 28.5806 54.1331 27.6221 53.2414 25.7203C53.1887 25.6081 53.1766 25.4811 53.2063 25.3608C53.6065 23.7561 55.3787 22.2828 57.3813 22.6453C57.3931 22.6473 57.4049 22.65 57.4168 22.653C59.8965 23.2777 60.4991 24.3989 60.568 25.2294C60.668 26.4345 59.622 27.7309 57.9649 28.4549C57.9295 28.4704 57.8923 28.4822 57.8545 28.4896C57.5508 28.5503 57.2573 28.581 56.975 28.581L56.9746 28.5806ZM54.3087 25.4437C55.1207 27.0665 56.1671 27.7036 57.585 27.4412C58.7509 26.9156 59.549 26.0292 59.4902 25.3183C59.4352 24.6529 58.5898 24.0654 57.1705 23.7049C55.8678 23.4778 54.6671 24.4093 54.3087 25.4437Z" fill="#650000"/>
<path d="M31.4842 35.9832C34.1106 30.8911 39.0546 32.4342 41.9901 37.0633C44.9255 45.3957 26.6949 42.7726 31.4842 35.9832Z" fill="#77223C"/>
<g opacity="0.4">
<path d="M31.7925 37.3719C34.4186 32.2806 39.3619 33.8226 42.2974 38.4507C42.2646 38.0269 42.1663 37.5653 41.9893 37.0633C39.0539 32.4342 34.1102 30.8911 31.4835 35.9832C30.5452 37.313 30.4932 38.482 30.9894 39.4412C31.0201 38.8071 31.2687 38.1145 31.7925 37.3719Z" fill="white"/>
</g>
<path d="M37.3295 42.887C34.9635 42.887 32.432 42.0713 31.08 40.6243C30.3123 39.8026 29.2794 38.0679 30.954 35.663C32.3878 32.9108 34.2944 32.2602 35.6444 32.2003C38.0769 32.0914 40.6432 33.7868 42.5116 36.733C42.5366 36.7724 42.5569 36.8146 42.5724 36.8583C43.6411 39.8915 42.0921 41.378 41.0735 41.9938C40.0683 42.6016 38.7274 42.8867 37.3291 42.887H37.3295ZM35.8592 33.4296C35.8059 33.4296 35.7525 33.4306 35.6995 33.433C34.2231 33.4987 32.9552 34.4781 32.0335 36.2654C32.0203 36.2907 32.0058 36.3149 31.9892 36.3382C31.0692 37.6423 31.0675 38.8006 31.9838 39.7814C33.7317 41.6526 38.2333 42.2684 40.4338 40.9373C41.6571 40.1971 41.9922 38.9849 41.4298 37.3331C39.8728 34.9076 37.7577 33.4293 35.8596 33.4293L35.8592 33.4296Z" fill="#650000"/>
<path d="M19.7422 52.647C20.9662 50.6913 23.0843 49.3531 24.97 50.6936C26.1099 51.5039 26.12 53.2302 24.9936 54.0593C23.4055 55.2287 21.0807 55.2793 19.7422 52.6467V52.647Z" fill="#77223C"/>
<g opacity="0.4">
<path d="M24.9699 51.6205C25.4057 51.9301 25.6748 52.3738 25.7802 52.8499C25.9545 52.0692 25.6843 51.202 24.9699 50.6947C23.0843 49.3541 20.9662 50.692 19.7422 52.648C19.8337 52.828 19.93 52.9941 20.03 53.1494C21.2803 51.4345 23.2241 50.38 24.9699 51.6208V51.6205Z" fill="white"/>
</g>
<path d="M22.8011 55.3656C22.5276 55.3656 22.2567 55.3349 21.9929 55.2726C21.2032 55.0856 20.088 54.521 19.2598 52.8923C19.174 52.7235 19.1828 52.5221 19.2834 52.3614C20.193 50.9076 21.4397 49.9296 22.7039 49.6779C23.608 49.4973 24.5001 49.6971 25.2833 50.254C25.9679 50.7408 26.3648 51.509 26.3722 52.3614C26.3793 53.2168 25.9939 53.9944 25.3144 54.4947C24.5402 55.0647 23.6574 55.3656 22.8011 55.3656ZM20.3713 52.6737C20.8624 53.5139 21.5048 54.0469 22.2422 54.2214C23.0217 54.4061 23.907 54.1888 24.6723 53.6255C25.0695 53.333 25.2948 52.8755 25.2904 52.3705C25.2863 51.8685 25.055 51.4177 24.6561 51.1344C24.1137 50.7486 23.5277 50.6145 22.915 50.7371C22.0284 50.9137 21.0935 51.6296 20.3713 52.6737Z" fill="#650000"/>
<path d="M4.13765 24.7877C4.10117 23.777 3.93837 22.7632 3.64791 21.7464C3.56786 21.4658 3.61413 21.1629 3.77186 20.9166C4.72163 19.4329 5.85581 18.2908 7.37131 17.8555C7.57937 17.7959 7.79924 17.7844 8.01304 17.8198C10.1064 18.1681 11.6064 19.5757 12.7578 21.6046C13.1266 22.2542 13.1199 23.0452 12.7359 23.686C11.2068 26.2361 7.85497 27.2519 5.07661 26.1239C4.52776 25.9012 4.15893 25.3787 4.13731 24.7877H4.13765Z" fill="#77223C"/>
<g opacity="0.4">
<path d="M4.0805 22.3053C5.03026 20.8215 6.16444 19.6794 7.67994 19.2441C7.888 19.1845 8.10788 19.173 8.32168 19.2084C10.3816 19.551 11.8664 20.9213 13.0107 22.8986C13.0692 22.4592 12.9851 22.0051 12.7577 21.6048C11.606 19.576 10.1064 18.1684 8.01297 17.82C7.79951 17.7843 7.57963 17.7958 7.37124 17.8557C5.85573 18.291 4.72156 19.4331 3.77179 20.9169C3.6144 21.1628 3.56779 21.4657 3.64783 21.7467C3.75625 22.1267 3.84711 22.5064 3.92006 22.8854C3.91466 22.6823 3.96938 22.4798 4.08084 22.3056L4.0805 22.3053Z" fill="white"/>
<path d="M3.97788 23.2129C4.06502 23.7385 4.11838 24.2634 4.1373 24.7876C4.14811 25.0837 4.24605 25.3624 4.40986 25.5948C4.34333 24.8028 4.19978 24.0087 3.97754 23.2129H3.97788Z" fill="white"/>
</g>
<path d="M7.46559 27.2074C6.58743 27.2074 5.69711 27.0423 4.84394 26.6956C4.06981 26.3813 3.55001 25.6408 3.51995 24.8096C3.4855 23.8518 3.32844 22.8781 3.05351 21.9152C2.92516 21.4658 2.9971 20.9803 3.2511 20.5838C4.40588 18.7803 5.69745 17.6938 7.20046 17.2622C7.49363 17.178 7.80977 17.1601 8.11442 17.211C10.2392 17.5644 11.9341 18.9019 13.2952 21.3C13.7725 22.141 13.7613 23.1766 13.2658 24.0027C12.0452 26.039 9.79948 27.2067 7.46526 27.2071L7.46559 27.2074ZM7.76991 18.4171C7.69223 18.4171 7.61522 18.4276 7.54226 18.4488C6.32432 18.7985 5.29181 19.6886 4.29239 21.2492C4.22923 21.3479 4.21099 21.4675 4.24207 21.577C4.54436 22.6355 4.71661 23.7079 4.75512 24.7651C4.76761 25.1115 4.98513 25.4204 5.30937 25.5518C7.82902 26.5747 10.8583 25.6162 12.2056 23.3687C12.4728 22.9229 12.4782 22.3637 12.2202 21.9088C11.0546 19.8554 9.64512 18.717 7.91143 18.4286C7.86448 18.4208 7.8172 18.4168 7.76991 18.4168V18.4171Z" fill="#650000"/>
<path d="M49.7632 23.6863C49.3326 23.8844 49.1275 24.4127 48.9414 24.8221C48.7496 25.2432 48.5956 25.6781 48.6209 26.1458C48.626 26.2398 48.7253 26.3058 48.8117 26.2549C49.2272 26.011 49.5291 25.6219 49.7743 25.2125C50.0236 24.7961 50.3026 24.3709 50.2259 23.8743C50.1921 23.655 49.926 23.6112 49.7632 23.6863Z" fill="#EF6A20"/>
<path d="M38.1254 3.7482C37.8664 3.46283 37.5766 3.02115 37.1301 3.02148C36.5917 3.02216 36.4725 3.38164 36.0969 3.57503C35.904 3.67441 35.594 3.57368 35.3771 3.604C35.1444 3.63668 35.0161 3.69092 34.8246 3.81288C34.2551 4.17506 33.71 4.6282 33.049 4.84382C32.9386 4.87987 32.9325 5.04058 33.049 5.07393C33.4668 5.19421 33.7748 5.31516 34.2217 5.22689C34.6679 5.13895 34.9924 4.81283 35.3988 4.66391C35.851 4.49782 36.2847 4.68446 36.6886 4.35059C37.0929 4.01604 37.2044 3.70777 37.8049 4.16259C38.0538 4.35126 38.3166 3.9591 38.1251 3.74786L38.1254 3.7482Z" fill="#EF6A20"/>
<path d="M35.087 6.05684C35.0657 6.24584 35.1599 6.43215 35.3153 6.53592C35.5142 6.66866 35.7669 6.6599 35.9053 6.44597C35.8459 6.49179 35.7865 6.53727 35.7267 6.58309C35.8321 6.55715 35.928 6.47393 35.9516 6.36578C35.9607 6.324 35.9577 6.28762 35.9516 6.24584C35.9476 6.21687 35.9614 6.31626 35.9594 6.30312C35.9459 6.21619 35.9246 6.14544 35.8587 6.08446C35.8844 6.18116 35.9101 6.27785 35.9354 6.37488C35.9516 6.2701 35.9476 6.18688 35.8979 6.09255C35.8804 6.05886 35.8564 6.02449 35.826 6.00057C35.7817 5.96553 35.8625 6.06324 35.8466 6.02854C35.8263 5.98406 35.7925 5.92073 35.752 5.90085C35.748 5.8968 35.7442 5.89276 35.7402 5.88872C35.7527 5.90523 35.7652 5.9214 35.7777 5.93791C35.7726 5.93083 35.7682 5.92376 35.7642 5.91601C35.751 5.89141 35.7574 5.90691 35.7834 5.9625C35.7219 5.7954 35.5781 5.68388 35.394 5.70847C35.3197 5.71858 35.2427 5.7489 35.1903 5.80584C35.1228 5.87929 35.0974 5.95779 35.0863 6.0565L35.087 6.05684Z" fill="#EF6A20"/>
<path d="M7.66657 33.4617C7.42473 33.5668 7.28355 33.8299 7.2079 34.0705C7.13899 34.2901 7.11164 34.6102 7.27106 34.7918C7.3332 34.8625 7.44331 34.8642 7.52133 34.8241C7.70777 34.7281 7.80572 34.4414 7.87496 34.2541C7.95467 34.0384 8.0131 33.8144 7.96987 33.5846C7.94251 33.4404 7.77769 33.4131 7.66657 33.4613V33.4617Z" fill="#EF6A20"/>
<path d="M8.63428 35.0517C8.53971 35.1554 8.44446 35.2417 8.42994 35.3903C8.42015 35.492 8.39752 35.6146 8.46169 35.7022C8.52316 35.7861 8.60118 35.8188 8.70318 35.8003C8.81025 35.7811 8.8751 35.6804 8.93894 35.6008C8.99939 35.525 9.02169 35.4573 9.02642 35.3613C9.02878 35.3128 9.02878 35.2639 9.02979 35.2154C9.03452 35.0203 8.76938 34.9028 8.63428 35.0517Z" fill="#EF6A20"/>
<path d="M10.6627 33.3399C10.6421 33.3433 10.6215 33.3477 10.6012 33.3531C10.6343 33.3575 10.6674 33.3618 10.7005 33.3662C10.5583 33.2746 10.3526 33.4242 10.2851 33.5458C10.1939 33.7102 10.152 33.9211 10.3182 34.0478C10.2962 34.0259 10.2743 34.004 10.2523 33.9821C10.2699 34.0063 10.2881 34.0299 10.307 34.0535C10.3553 34.1135 10.4489 34.0977 10.4995 34.0535C10.5127 34.0414 10.5266 34.0299 10.5407 34.0195C10.5137 34.0353 10.4867 34.0508 10.4597 34.0667C10.5982 34.0293 10.6417 33.8844 10.7002 33.7685C10.7485 33.6725 10.8055 33.5141 10.7468 33.4124L10.7596 33.5118C10.764 33.5023 10.7684 33.4932 10.7728 33.4838C10.8106 33.4043 10.7488 33.3241 10.6623 33.3403L10.6627 33.3399Z" fill="#EF6A20"/>
<path d="M34.1869 54.2672C32.024 49.4838 35.2404 45.6451 39.4397 45.9348C39.6812 40.9365 42.9159 38.1425 47.3962 39.3769C47.3962 35.8279 51.7441 33.5036 55.121 35.2107C57.9611 31.5471 63.6182 29.9644 67.1717 33.822C70.3378 31.3592 74.7421 32.1246 77.0595 35.8279C81.1875 34.0379 85.8657 35.6736 86.9472 40.7656C90.2545 41.2083 92.8181 43.6974 92.509 47.8636C96.3716 49.2524 97.7618 53.8815 95.4444 56.9676C97.9165 60.0536 97.7425 64.014 94.5173 66.5344C95.2897 70.7006 94.3116 75.2883 90.6547 75.947C90.6547 79.6503 87.5873 82.3816 84.1658 80.8847C83.3934 85.2052 78.9543 88.228 75.3595 85.5138C74.4324 89.8343 67.0305 91.9831 64.0812 87.6741C60.2187 91.2231 54.7771 91.3946 51.8762 86.4396C47.2412 88.2913 43.9079 86.3864 42.2974 81.039C38.1262 81.039 34.8929 78.7426 36.4266 73.7867C32.564 71.3178 31.7936 67.4394 33.9546 64.5285C31.3282 61.5967 31.6501 56.627 34.1863 54.2672H34.1869Z" fill="#FFB774"/>
<path d="M95.4444 56.9682C97.7617 53.8821 96.3715 49.253 92.509 47.8643C92.7522 44.5855 91.2157 42.3464 88.9382 41.3252C88.9372 41.3447 88.9369 41.3639 88.9355 41.3835C89.3949 41.8888 90.47 43.2078 90.8094 45.2411C91.1721 47.4152 90.477 49.1064 90.1913 49.7159C90.4659 49.791 92.1368 50.2752 92.6633 51.7219C92.9724 52.5709 92.7457 53.3633 92.509 54.1907C92.1547 55.4285 91.5366 56.3082 91.1184 56.8139C91.3707 57.0238 91.7355 57.3748 92.0456 57.894C92.207 58.1649 93.0116 59.5135 92.509 61.1344C92.0348 62.663 90.7398 63.3307 90.5007 63.449C91.8396 65.3879 91.6862 67.8079 90.3463 69.1582C89.0784 70.4358 87.2322 70.2687 86.9475 70.2383C87.2461 71.9903 86.599 73.7631 85.2479 74.8675C83.3883 76.3876 81.1571 75.8539 80.922 75.7933C80.8946 75.9513 80.3782 78.6385 77.8322 79.6509C75.6723 80.5097 73.7606 79.4841 73.5062 79.3423C73.436 79.5879 72.5791 82.4011 69.7214 83.3498C67.603 84.0533 65.2259 83.4526 63.6185 81.8112C62.081 83.4698 59.7819 84.1736 57.6375 83.6311C54.7224 82.8936 53.6071 80.2364 53.4963 79.9595C53.1684 80.1398 51.3952 81.0723 49.2643 80.4164C46.6527 79.6125 45.7797 77.1234 45.6969 76.8738C43.8879 77.0971 42.1366 76.3148 41.2166 74.8678C40.1672 73.218 40.6691 71.4441 40.7532 71.1645C40.1155 71.0678 38.5976 70.7407 37.5087 69.4672C35.9696 67.6671 35.9165 64.712 37.5087 62.2149C37.3935 62.1505 35.7777 61.2089 35.6548 59.2831C35.5356 57.4166 36.9247 56.2913 37.0453 56.197C36.639 55.7543 34.9448 53.8097 35.037 50.9507C35.0911 49.2715 35.7375 48.0216 36.1185 47.4017C36.3276 47.0537 36.5367 46.706 36.7454 46.3579C34.044 47.4704 32.5235 50.5885 34.1872 54.2682C31.6511 56.6276 31.3292 61.5977 33.9555 64.5294C31.7946 67.44 32.565 71.3188 36.4276 73.7877C34.8938 78.7433 38.1272 81.04 42.2984 81.04C43.9092 86.3874 47.2421 88.2923 51.8771 86.4406C54.7781 91.3955 60.22 91.224 64.0822 87.675C67.0315 91.9841 74.4334 89.8353 75.3605 85.5148C78.9552 88.2289 83.3943 85.2062 84.1668 80.8857C87.5882 82.3826 90.6557 79.6512 90.6557 75.9479C94.3126 75.2896 95.2907 70.7016 94.5183 66.5354C97.7435 64.015 97.9171 60.0546 95.4454 56.9685L95.4444 56.9682Z" fill="#E27E5A"/>
<g opacity="0.6">
<path d="M39.9798 46.0052C40.7097 42.6786 43.0152 40.7349 46.1476 40.9556C46.9565 41.0126 47.6867 40.5234 47.9667 39.7636C48.8091 37.4797 51.5503 36.0647 54.129 36.6068C54.9633 36.782 55.8333 36.5219 56.4565 35.9411C59.1609 33.419 63.3092 32.448 66.4199 34.7228C67.0893 35.2123 67.9739 35.2639 68.72 34.902C71.343 33.6302 74.4487 34.2316 76.5421 36.5758C77.0737 37.1711 77.8985 37.4312 78.6723 37.2328C82.1241 36.3481 85.656 37.7819 86.9618 41.5513C87.1776 42.1749 87.6883 42.658 88.3233 42.8396C90.2981 43.4039 91.8792 44.7741 92.5266 46.8549C92.3828 43.2971 89.9786 41.1723 86.9479 40.7666C85.8665 35.6746 81.1882 34.0389 77.0602 35.8289C74.7429 32.1256 70.3385 31.3601 67.1724 33.8229C63.6189 29.9653 57.9619 31.5481 55.1217 35.2117C51.7448 33.5046 47.3969 35.8289 47.3969 39.3779C42.9166 38.1434 39.6819 40.9371 39.4404 45.9358C35.5414 45.6666 32.4928 48.9572 33.8074 53.2578C33.7456 50.4922 35.5728 48.4107 38.0766 47.8956C39.025 47.7005 39.7728 46.9506 39.9802 46.0059L39.9798 46.0052Z" fill="white"/>
</g>
<path d="M58.0376 91.0296C57.6586 91.0296 57.2824 91.002 56.9098 90.9464C54.7428 90.6216 52.903 89.3932 51.5557 87.3809C49.437 88.1025 47.5462 88.0742 45.9277 87.2957C44.066 86.3995 42.6549 84.5512 41.7291 81.797C39.2892 81.6811 37.3609 80.8135 36.2612 79.3244C35.5529 78.3656 34.8828 76.7016 35.5333 74.1138C33.6608 72.7773 32.4496 71.0243 32.1007 69.1279C31.813 67.5643 32.1294 65.9677 32.9931 64.5725C31.8798 63.0959 31.2908 61.1563 31.3634 59.1554C31.435 57.1845 32.1257 55.3719 33.2771 54.093C32.3919 51.797 32.5722 49.5117 33.7949 47.7564C34.899 46.1713 36.705 45.2299 38.7268 45.1531C39.0007 42.6522 40.0302 40.651 41.6663 39.4678C43.07 38.4527 44.8017 38.1013 46.715 38.4335C46.9974 36.9828 47.9228 35.6769 49.3093 34.8259C51.0092 33.7825 53.0972 33.586 54.8975 34.2696C56.6815 32.2371 59.2741 30.9319 61.7981 30.8247C63.8763 30.7378 65.7495 31.4224 67.2572 32.8152C68.8285 31.7967 70.6544 31.414 72.4654 31.7337C74.4028 32.0764 76.1176 33.1861 77.3531 34.8831C79.5708 34.0924 81.8871 34.1901 83.7947 35.1725C85.6486 36.1273 86.9784 37.8611 87.5793 40.089C89.2309 40.4192 90.6707 41.2352 91.6745 42.4198C92.779 43.7233 93.338 45.42 93.3059 47.3541C95.1301 48.1796 96.4828 49.7145 97.0597 51.6386C97.6095 53.4731 97.3647 55.3753 96.3943 56.9453C97.5548 58.589 98.075 60.4572 97.8645 62.262C97.6595 64.018 96.7945 65.594 95.3547 66.845C95.8269 69.8724 95.3746 72.7213 94.1188 74.5363C93.4308 75.5308 92.5007 76.2211 91.4033 76.5584C91.2395 78.5475 90.2789 80.2785 88.7644 81.2677C87.5499 82.0608 86.1408 82.274 84.7212 81.8953C84.044 84.1985 82.3954 86.1195 80.3469 86.921C78.8034 87.5248 77.2146 87.4392 75.7818 86.6919C74.9189 88.6217 72.8734 90.1503 70.3815 90.6398C67.8284 91.1418 65.4965 90.4505 63.9763 88.7818C62.1511 90.2423 60.0631 91.0296 58.0376 91.0296ZM51.8769 85.668C52.1444 85.668 52.4018 85.8075 52.544 86.0501C53.6701 87.9732 55.2592 89.1385 57.1395 89.4205C59.2714 89.7403 61.611 88.8963 63.5595 87.1063C63.7247 86.9547 63.9479 86.8823 64.1702 86.9075C64.3931 86.9331 64.5937 87.0538 64.7204 87.2387C65.8316 88.8619 67.8358 89.5671 70.0836 89.1261C72.4019 88.6706 74.219 87.1538 74.6058 85.3524C74.6612 85.0946 74.8442 84.8827 75.0918 84.7907C75.3394 84.6994 75.6163 84.7395 75.8271 84.8986C77.3656 86.0602 78.828 85.8584 79.7839 85.4844C81.5973 84.7749 83.0196 82.9162 83.407 80.7495C83.4485 80.5167 83.5948 80.3159 83.8035 80.2044C84.0122 80.0929 84.2608 80.0835 84.4773 80.1781C85.6865 80.7074 86.9092 80.6356 87.9194 79.9763C89.1312 79.1853 89.8838 77.6415 89.8838 75.9472C89.8838 75.5739 90.1513 75.2542 90.5191 75.1882C91.483 75.0143 92.2666 74.5002 92.8482 73.6596C93.9213 72.1088 94.2702 69.4328 93.7588 66.6755C93.7065 66.3928 93.8155 66.1044 94.0425 65.9272C95.3665 64.8926 96.1575 63.5635 96.3305 62.0841C96.5129 60.5215 95.9843 58.8761 94.8423 57.4503C94.6221 57.1757 94.616 56.7869 94.8275 56.5053C95.7715 55.2482 96.0457 53.6358 95.58 52.082C95.0902 50.448 93.876 49.1755 92.2484 48.5903C91.9221 48.4727 91.714 48.1526 91.7397 47.8073C92.044 43.7034 89.4112 41.8743 86.8457 41.531C86.5217 41.4876 86.2603 41.2457 86.1924 40.9263C85.7584 38.8822 84.6847 37.3672 83.0871 36.5444C81.4203 35.686 79.336 35.683 77.3679 36.5363C77.0173 36.6883 76.608 36.5613 76.4053 36.2375C75.3894 34.6136 73.8945 33.554 72.1966 33.2539C70.602 32.9715 68.9862 33.39 67.6474 34.4313C67.3302 34.6783 66.8763 34.6406 66.6044 34.3451C65.3405 32.9729 63.701 32.2903 61.8647 32.3671C59.5939 32.4635 57.2445 33.7343 55.7331 35.6836C55.5064 35.9761 55.1042 36.0667 54.7735 35.8996C53.332 35.1709 51.549 35.2635 50.1193 36.1408C48.8804 36.9012 48.1701 38.0811 48.1701 39.3772C48.1701 39.6181 48.0573 39.8451 47.8658 39.991C47.6739 40.1369 47.425 40.1851 47.1923 40.1211C45.3951 39.6261 43.7978 39.8327 42.5735 40.7177C41.1657 41.7359 40.3271 43.602 40.2126 45.9725C40.2025 46.1797 40.1096 46.3741 39.9542 46.5119C39.7988 46.6497 39.5948 46.7177 39.3878 46.7049C37.6095 46.5806 35.9927 47.3046 35.0642 48.6374C34.0722 50.0615 34.0094 51.9977 34.8923 53.9498C35.0287 54.2513 34.9571 54.6064 34.715 54.8318C32.3574 57.0248 32.2686 61.4871 34.5322 64.0139C34.7768 64.2868 34.7953 64.6938 34.5772 64.9879C33.7037 66.1644 33.3734 67.4996 33.6216 68.8489C33.9212 70.4768 35.0659 71.9997 36.8452 73.1367C37.1377 73.3237 37.2694 73.6829 37.1667 74.0144C36.5973 75.8542 36.7114 77.3326 37.5062 78.4083C38.3786 79.5899 40.1258 80.2674 42.2996 80.2674C42.6404 80.2674 42.941 80.4908 43.0392 80.8166C43.8282 83.436 45.0263 85.1482 46.5999 85.9056C47.9647 86.5622 49.644 86.5009 51.5915 85.7233C51.6851 85.6859 51.7824 85.668 51.8783 85.668H51.8769Z" fill="#650000"/>
<path d="M36.8908 56.3502C35.2999 57.9239 35.7495 60.9278 37.849 61.7896C38.0844 61.8944 38.1898 62.17 38.0847 62.4052C37.623 63.2107 37.2424 64.0668 37.0694 64.9609C36.4588 67.7731 38.109 70.2784 40.98 70.7059C41.2694 70.747 41.4478 71.0607 41.3397 71.3302C41.0813 72.0091 40.8986 72.7183 40.9384 73.3843C40.9698 74.0511 41.265 74.6356 41.7838 75.052C42.8981 75.9243 44.4757 76.1338 45.8855 76.2561C46.1121 76.2733 46.2884 76.4502 46.3121 76.6682C46.4617 78.1169 47.5473 79.3604 48.9118 79.8442C50.3158 80.3688 51.8965 80.11 53.2009 79.3968C53.4238 79.2782 53.7001 79.3594 53.8254 79.5764C54.3145 80.4267 54.9042 81.2208 55.6311 81.8529C57.049 83.1388 59.0792 83.6749 60.8994 83.0189C61.7951 82.7133 62.6067 82.1632 63.2907 81.4823C63.4747 81.2983 63.7757 81.3027 63.9547 81.491C65.274 82.9131 67.3005 83.6469 69.2 83.1698C70.1325 82.9455 70.9989 82.459 71.6903 81.7875C72.385 81.1171 72.9011 80.2667 73.2223 79.3442C73.3047 79.1077 73.5608 78.9804 73.7985 79.0532C75.8119 79.6943 78.4643 79.6027 79.7781 77.7456C80.1784 77.1719 80.3966 76.4751 80.4604 75.7518C80.483 75.4967 80.708 75.3084 80.9633 75.3307C83.2817 75.5554 85.6179 74.9189 86.3731 72.4976C86.5971 71.7908 86.6666 71.0239 86.6389 70.2561C86.6244 69.9809 86.8635 69.7514 87.1378 69.7754C88.5662 69.9091 90.0425 69.1585 90.6332 67.8378C91.2591 66.4966 90.8879 64.9178 90.1077 63.6928C89.9645 63.463 90.0516 63.1551 90.2934 63.0335C90.8436 62.7542 91.3246 62.3614 91.6651 61.8698C92.3747 60.8773 92.3852 59.5202 91.8312 58.4455C91.5577 57.8987 91.154 57.4145 90.6724 57.0177C90.4738 56.8539 90.4454 56.5605 90.6092 56.362C91.076 55.9446 91.5144 55.4877 91.8505 54.9484C92.8536 53.4201 93.0806 51.0621 91.1189 50.1777C91.4411 50.2448 91.7576 50.3728 92.0406 50.5659C94.1759 52.1594 92.9918 55.543 91.2682 57.0082L91.2567 56.299C92.422 57.2414 93.2177 58.7042 93.1502 60.2355C93.1204 61.7842 92.0761 63.2033 90.7082 63.8616L90.894 63.2023C91.8238 64.6554 92.2477 66.5912 91.4746 68.2269C90.7345 69.8943 88.8489 70.8713 87.0662 70.6985L87.5651 70.2177C87.6205 71.497 87.3969 72.8709 86.7021 73.9881C86.5697 74.1515 86.443 74.3823 86.2988 74.5285L86.0678 74.7758C86.0286 74.8165 85.9911 74.8586 85.9509 74.8977L85.8209 75.0055C84.4618 76.1837 82.5839 76.4054 80.8779 76.2524L81.3838 75.8316C81.0299 79.9038 76.9562 81.0541 73.5229 79.9365L74.0991 79.6454C73.736 80.6905 73.144 81.6719 72.3357 82.4519C69.7495 84.9844 65.7086 84.7536 63.2822 82.1274L63.9462 82.1362C63.1799 82.8996 62.2521 83.5344 61.202 83.8935C59.0981 84.6644 56.6416 84.036 55.0201 82.5479C54.1966 81.831 53.5492 80.954 53.0182 80.0305L53.6427 80.2101C52.1289 81.0416 50.2462 81.3347 48.5913 80.7121C46.9119 80.1154 45.5731 78.5677 45.3907 76.7666L45.8173 77.1786C43.4999 77.0266 40.1582 76.3117 40.0136 73.4399C39.9653 72.5619 40.1916 71.7483 40.4757 70.995L40.8354 71.6193C37.4504 71.1088 35.4428 68.1124 36.1609 64.7773C36.3588 63.7754 36.7644 62.8404 37.2637 61.9783L37.4778 62.6363C34.9679 61.5737 34.5089 57.7669 36.8911 56.3489L36.8908 56.3502Z" fill="#650000"/>
<path d="M44.4608 59.6681C45.2288 59.6681 45.8514 59.2535 45.8514 58.7422C45.8514 58.2309 45.2288 57.8164 44.4608 57.8164C43.6929 57.8164 43.0703 58.2309 43.0703 58.7422C43.0703 59.2535 43.6929 59.6681 44.4608 59.6681Z" fill="#E27E5A"/>
<path d="M49.8691 70.7013C50.637 70.7013 51.2596 70.2867 51.2596 69.7754C51.2596 69.2641 50.637 68.8496 49.8691 68.8496C49.1011 68.8496 48.4785 69.2641 48.4785 69.7754C48.4785 70.2867 49.1011 70.7013 49.8691 70.7013Z" fill="#E27E5A"/>
<path d="M65.3192 75.3604C65.9839 74.9764 66.3145 74.3065 66.0577 73.8642C65.8009 73.4219 65.0538 73.3747 64.3891 73.7587C63.7244 74.1428 63.3937 74.8127 63.6506 75.2549C63.9074 75.6972 64.6545 75.7445 65.3192 75.3604Z" fill="#E27E5A"/>
<path d="M66.8214 65.5651C67.4242 65.2168 67.724 64.6094 67.4911 64.2083C67.2582 63.8072 66.5808 63.7644 65.978 64.1126C65.3753 64.4609 65.0755 65.0683 65.3084 65.4694C65.5413 65.8705 66.2187 65.9133 66.8214 65.5651Z" fill="#E27E5A"/>
<path d="M64.3121 58.3488C64.9487 58.2887 65.4321 57.8963 65.3919 57.4725C65.3516 57.0487 64.8029 56.7538 64.1663 56.814C63.5297 56.8741 63.0463 57.2664 63.0865 57.6903C63.1268 58.1141 63.6755 58.4089 64.3121 58.3488Z" fill="#E27E5A"/>
<path d="M55.741 58.5411C56.4057 58.157 56.7364 57.4872 56.4796 57.0449C56.2227 56.6026 55.4757 56.5554 54.811 56.9394C54.1463 57.3234 53.8156 57.9933 54.0725 58.4356C54.3293 58.8779 55.0763 58.9251 55.741 58.5411Z" fill="#E27E5A"/>
<path d="M51.2606 47.586C51.9253 47.202 52.2559 46.5321 51.9991 46.0898C51.7423 45.6475 50.9952 45.6003 50.3305 45.9843C49.6658 46.3684 49.3352 47.0382 49.592 47.4805C49.8488 47.9228 50.5959 47.9701 51.2606 47.586Z" fill="#E27E5A"/>
<path d="M62.7595 50.9823C63.2983 50.671 63.5664 50.1281 63.3583 49.7697C63.1502 49.4113 62.5447 49.3731 62.0059 49.6844C61.4671 49.9957 61.199 50.5386 61.4071 50.897C61.6152 51.2554 62.2207 51.2936 62.7595 50.9823Z" fill="#E27E5A"/>
<path d="M73.574 55.9208C74.1128 55.6095 74.3809 55.0666 74.1727 54.7082C73.9646 54.3498 73.3591 54.3116 72.8203 54.6229C72.2815 54.9342 72.0134 55.4771 72.2216 55.8355C72.4297 56.1939 73.0352 56.2321 73.574 55.9208Z" fill="#E27E5A"/>
<path d="M77.3318 68.3503C77.9412 67.9982 78.2443 67.3841 78.0089 66.9787C77.7734 66.5733 77.0886 66.53 76.4793 66.8821C75.8699 67.2341 75.5668 67.8482 75.8022 68.2536C76.0377 68.659 76.7225 68.7023 77.3318 68.3503Z" fill="#E27E5A"/>
<path d="M82.6182 55.5629C83.011 55.3375 83.0543 54.6781 82.7151 54.0901C82.3758 53.5021 81.7825 53.2082 81.3898 53.4336C80.9971 53.659 80.9537 54.3185 81.2929 54.9065C81.6322 55.4944 82.2255 55.7884 82.6182 55.5629Z" fill="#E27E5A"/>
<path d="M62.1266 42.3092C62.8932 42.2649 63.4907 41.8151 63.461 41.3046C63.4313 40.7942 62.7857 40.4163 62.0191 40.4607C61.2524 40.5051 60.6549 40.9548 60.6846 41.4653C60.7143 41.9757 61.3599 42.3536 62.1266 42.3092Z" fill="#E27E5A"/>
<path d="M75.4137 44.9333C76.1804 44.8889 76.7778 44.4391 76.7481 43.9287C76.7184 43.4182 76.0728 43.0403 75.3062 43.0847C74.5395 43.1291 73.942 43.5789 73.9717 44.0893C74.0014 44.5998 74.647 44.9776 75.4137 44.9333Z" fill="#E27E5A"/>
<path d="M60.9922 3.11725C57.6846 5.51975 59.9884 9.63609 63.4811 10.1785C63.6736 10.2085 63.8709 10.2001 64.0593 10.1512C66.3432 9.55928 67.4956 7.21574 66.3996 5.27717C64.8365 3.09401 63.1423 1.71234 60.9922 3.11691V3.11725Z" fill="#FFA840"/>
<path d="M60.5299 3.16992C59.8709 3.99299 60.1266 5.25033 60.7504 6.10002C61.7572 7.47157 63.6456 8.12787 65.2871 7.67675C65.4742 7.6252 65.6593 7.56051 65.8272 7.46281C66.3146 7.17947 66.6061 6.65457 66.8276 6.1364C67.108 7.44226 66.3801 8.78619 65.3827 9.67596C65.1574 9.8771 64.9112 10.0654 64.6234 10.1577C64.2097 10.2901 63.7591 10.2093 63.3406 10.0934C61.9349 9.70426 60.5812 8.86233 59.9422 7.55276C59.3099 6.25735 59.5017 4.60279 60.414 3.48628" fill="#EF6A20"/>
<path d="M63.7075 10.7357C63.6048 10.7357 63.5018 10.7276 63.3981 10.7115C61.252 10.3783 59.4275 8.80052 58.9614 6.87475C58.5753 5.28016 59.1995 3.75127 60.6745 2.6799C60.6816 2.67451 60.689 2.66946 60.6964 2.66474C63.7609 0.662831 65.9975 3.78665 66.8395 4.96279C66.8507 4.97829 66.8611 4.99446 66.8706 5.01131C67.4444 6.02608 67.514 7.21873 67.0614 8.28303C66.5612 9.45985 65.5165 10.3311 64.1952 10.6734C64.0355 10.7148 63.8723 10.7357 63.7075 10.7357ZM61.2997 3.56159C60.1885 4.37354 59.7315 5.45973 60.0125 6.62106C60.3729 8.10918 61.8668 9.38101 63.5643 9.64447C63.6856 9.66334 63.8099 9.65761 63.9237 9.6283C64.9174 9.3709 65.6982 8.72674 66.0661 7.86122C66.3873 7.1052 66.3434 6.29156 65.9424 5.56687C64.1969 3.13742 62.8496 2.55592 61.2997 3.56159Z" fill="#650000"/>
<path d="M60.2389 3.68793C59.4206 4.81893 60.4126 6.23125 61.2735 6.99603C62.1088 7.7379 63.4746 8.72707 64.5642 7.85178C64.6092 7.81573 64.5808 7.74161 64.5315 7.7278C64.1424 7.61931 63.7884 7.75441 63.3959 7.69175C62.7228 7.58427 62.2168 7.16449 61.7183 6.73526C60.7767 5.92466 60.268 5.08947 60.5733 3.82842C60.624 3.61852 60.3578 3.52385 60.2389 3.68759V3.68793Z" fill="#650000"/>
<path d="M64.9089 3.80718C64.9163 3.80718 64.9163 3.7959 64.9089 3.7959C64.9015 3.7959 64.9015 3.80718 64.9089 3.80718Z" fill="#EF6A20"/>
<path d="M63.7094 4.40604C63.7414 4.42726 63.8644 4.47443 63.8799 4.51284C63.8995 4.56068 63.8586 4.63008 63.8556 4.68432C63.8472 4.8393 63.9137 4.96699 64.0116 5.08322C64.1093 5.19912 64.2342 5.27661 64.3383 5.3824C64.4126 5.45786 64.4845 5.54917 64.5828 5.59297C64.6152 5.60745 64.6432 5.60408 64.6706 5.58151C64.9499 5.35309 64.6541 4.95351 64.4669 4.77967C64.3119 4.63547 64.395 4.45085 64.2845 4.27835C64.195 4.13819 64.0349 4.04723 63.8769 4.00983C63.6334 3.95222 63.5043 4.27026 63.7094 4.40637V4.40604Z" fill="#EF6A20"/>
<path d="M63.981 5.90023C64.0512 6.00029 64.1208 6.08991 64.2096 6.17414C64.2846 6.24522 64.388 6.3281 64.4879 6.35842C64.5342 6.37257 64.5788 6.32608 64.566 6.2806C64.5373 6.1802 64.4548 6.07508 64.3849 5.99894C64.3022 5.90899 64.2134 5.83824 64.1144 5.76648C64.036 5.70954 63.9256 5.82207 63.9806 5.90023H63.981Z" fill="#EF6A20"/>
<path d="M72.8428 9.30826C71.967 10.4591 71.3131 11.8647 71.101 13.7763C70.8466 16.068 71.9724 18.3283 74.0053 19.4209C75.8383 20.4064 78.0773 20.6597 80.6702 20.274C81.1059 20.2093 81.5028 19.9866 81.7929 19.6554C82.6731 18.6501 83.2902 17.4874 83.6256 16.1556C83.482 13.1756 82.8876 10.5137 81.0458 8.73148C80.7496 8.44477 80.3615 8.26789 79.9501 8.23757C78.1205 8.10213 76.3405 8.12605 74.6112 8.31101C73.9104 8.38581 73.269 8.74799 72.8428 9.30826Z" fill="#FFA840"/>
<path d="M72.631 9.32617C72.2659 10.19 72.2632 11.1569 72.2662 12.0945C72.2672 12.3846 72.2683 12.6757 72.3108 12.9628C72.449 13.8933 73.0198 14.717 73.7318 15.3326C74.4437 15.9481 75.2932 16.3804 76.1416 16.7887C76.7503 17.0815 77.3781 17.3689 78.0503 17.4369C78.948 17.5279 79.8515 17.2119 80.603 16.7129C81.3545 16.2139 81.9723 15.5408 82.5522 14.8505C82.9278 14.403 83.3051 13.9135 83.3797 13.3347C83.6972 13.9917 83.7323 14.7568 83.6107 15.4761C83.4891 16.1954 83.2203 16.8807 82.9494 17.5582C82.7197 18.133 82.4772 18.7222 82.0469 19.1673C81.3461 19.8923 80.2845 20.1076 79.2915 20.2861C78.8609 20.3636 78.4232 20.4415 77.9878 20.3983C77.6953 20.3694 77.4109 20.2865 77.1289 20.2043C76.7891 20.1049 76.4493 20.0058 76.1092 19.9064C74.9071 19.5554 73.6578 19.1784 72.7418 18.3253C71.7697 17.4204 71.2989 16.0701 71.2435 14.744C71.1881 13.4179 71.5107 12.1043 71.9251 10.8433C72.0984 10.3157 72.3145 9.75843 72.7732 9.44476" fill="#EF6A20"/>
<path d="M72.7177 9.79503C71.9814 10.9129 71.7842 12.4546 72.1398 13.7453C72.5134 15.1007 73.836 15.7415 74.9503 16.3984C76.1216 17.0894 77.2858 18.0237 78.7196 17.7838C80.0831 17.5557 81.2322 16.4301 81.9411 15.2984C82.0076 15.192 81.8607 15.0906 81.7732 15.1691C80.839 16.0083 80.0777 17.0214 78.7527 17.2528C77.473 17.4765 76.302 16.4786 75.2667 15.858C74.2369 15.2405 73.2206 14.7489 72.7241 13.5846C72.1871 12.3252 72.6795 11.1396 72.9167 9.87892C72.9393 9.75898 72.788 9.68924 72.7181 9.79537L72.7177 9.79503Z" fill="#650000"/>
<path d="M81.1027 9.17373C80.9085 8.728 80.3346 8.2415 79.8209 8.43219C79.5321 8.53933 79.4156 8.80414 79.2717 9.05513C79.0799 9.39036 78.9992 9.69155 78.5685 9.82733C78.3449 9.89774 78.0028 9.81924 77.7718 9.82059C77.3952 9.82227 76.5734 9.68178 76.5254 10.2501C76.492 10.643 76.7571 10.5338 76.1691 10.5008C75.782 10.4792 75.4673 10.4991 75.1295 10.6669C75.0599 10.7016 75.0569 10.8205 75.1295 10.8542C75.5747 11.0604 76.4353 11.1403 76.8872 10.9442C77.0648 10.867 77.1624 10.7788 77.2499 10.609C77.2817 10.547 77.2101 10.4169 77.2361 10.3799C77.2118 10.2859 77.2192 10.2983 77.258 10.4169C77.2834 10.5823 77.4016 10.614 77.6127 10.5123C78.2297 10.5999 79.111 10.7498 79.5659 10.2242C79.7172 10.0494 79.9857 9.28423 80.1124 9.23774C80.2266 9.19562 80.7649 9.40282 81.0429 9.32197C81.1115 9.30209 81.1294 9.23268 81.1034 9.17305L81.1027 9.17373Z" fill="#EF6A20"/>
<path d="M77.4905 11.7162C77.5057 11.973 77.7482 11.9901 77.9533 12.0208C78.0624 12.037 78.1904 12.0572 78.3005 12.0488C78.4187 12.0397 78.465 11.9666 78.546 11.8985C78.571 11.8776 78.5788 11.8267 78.5588 11.7998C78.5187 11.7452 78.4964 11.6809 78.4403 11.6374C78.3694 11.5825 78.263 11.5781 78.1768 11.5626C78.0151 11.5336 77.8374 11.5137 77.6763 11.5306C77.5811 11.5407 77.4841 11.6074 77.4905 11.7162Z" fill="#EF6A20"/>
<path d="M78.4795 20.9844C76.6806 20.9844 75.0959 20.6209 73.7489 19.8966C71.564 18.7218 70.2836 16.2384 70.5636 13.717C70.7652 11.9 71.3698 10.3513 72.4121 8.98174C72.9272 8.30455 73.7077 7.86455 74.5534 7.77426C76.3047 7.58728 78.134 7.56201 79.9896 7.69947C80.5243 7.73888 81.0329 7.96798 81.4217 8.34431C83.1398 10.0073 83.9859 12.4084 84.1653 16.1303C84.168 16.1835 84.1626 16.2364 84.1494 16.2883C83.7981 17.6821 83.1419 18.9347 82.1992 20.0118C81.8219 20.443 81.3069 20.726 80.7492 20.8089C79.9592 20.9265 79.2016 20.9851 78.4792 20.9851L78.4795 20.9844ZM77.6534 8.69234C76.6391 8.69234 75.6414 8.74422 74.6686 8.84832C74.1174 8.90728 73.6091 9.19399 73.273 9.63534C72.3398 10.8617 71.82 12.1965 71.6383 13.8363C71.4066 15.9244 72.4607 17.9779 74.2613 18.9458C75.9393 19.8477 78.0688 20.1149 80.5905 19.7399C80.8944 19.6948 81.1768 19.5384 81.3855 19.3002C82.1972 18.3731 82.7676 17.297 83.0814 16.101C82.9085 12.7204 82.1634 10.5655 80.6695 9.11987C80.4625 8.91941 80.1926 8.79745 79.9099 8.77656C79.1516 8.7203 78.3981 8.69234 77.6534 8.69234Z" fill="#650000"/>
</g>
<defs>
<clipPath id="clip0_3078_1617">
<rect width="97" height="91" fill="white" transform="translate(0.910156 0.0302734)"/>
</clipPath>
</defs>
</svg>
