<svg width="706" height="802" viewBox="0 0 706 802" fill="none" xmlns="http://www.w3.org/2000/svg">
<g opacity="0.5">
<path d="M-288.234 305.045C-288.234 173.957 -237.241 54.6722 -154.093 -34.2266L-66.9268 52.9143L-52.3572 67.4797L-37.7876 82.045C-91.2933 141.06 -123.949 219.411 -123.949 305.045C-123.949 488.368 25.2637 637.537 208.64 637.537C392.016 637.537 541.229 488.368 541.229 305.045C541.229 219.411 508.573 141.06 455.319 82.045L469.888 67.4797L542.485 -5.09589L557.055 -19.6612L571.625 -34.2266C654.772 54.6722 705.766 173.957 705.766 305.045C705.766 579.024 482.951 801.773 208.891 801.773C-65.1684 801.773 -288.234 578.773 -288.234 305.045Z" fill="white" fill-opacity="0.02"/>
<path d="M571.611 -33.5068C654.467 55.2634 705.266 174.275 705.266 305.045C705.266 578.747 482.675 801.273 208.892 801.273C-64.8922 801.273 -287.734 578.496 -287.734 305.045C-287.734 174.275 -236.937 55.2633 -154.081 -33.5068L-67.2803 53.2676L-52.7109 67.833L-38.4775 82.0615C-91.8736 141.124 -124.449 219.452 -124.449 305.045C-124.449 488.643 24.9875 638.037 208.64 638.037C392.292 638.037 541.729 488.644 541.729 305.045C541.729 219.452 509.153 141.124 456.007 82.0625L470.242 67.833L542.839 -4.74219L557.408 -19.3076L571.611 -33.5068Z" stroke="white" stroke-opacity="0.06"/>
<path d="M0.351562 305.036C0.351562 253.555 18.9404 206.343 50.0893 169.93L208.597 328.39L367.104 169.93C398.253 206.343 416.842 253.555 416.842 305.036C416.842 420.052 323.647 513.22 208.597 513.22C93.5469 513.22 0.351562 420.052 0.351562 305.036Z" fill="white" fill-opacity="0.02"/>
<path d="M367.073 170.667C397.936 206.936 416.342 253.871 416.342 305.036C416.342 419.776 323.37 512.72 208.597 512.72C93.8231 512.72 0.851782 419.776 0.851562 305.036C0.851562 253.871 19.257 206.936 50.1191 170.667L208.243 328.744L208.597 329.098L208.95 328.744L367.073 170.667Z" stroke="white" stroke-opacity="0.06"/>
</g>
</svg>
