<svg width="412" height="97" viewBox="0 0 412 97" fill="none" xmlns="http://www.w3.org/2000/svg">
<path d="M0.632812 39.0534C0.632812 23.9821 6.4939 10.2677 16.0507 0.046875L26.0694 10.0656L27.744 11.7402L29.4186 13.4148C23.2687 20.1998 19.5153 29.208 19.5153 39.0534C19.5153 60.1303 36.6655 77.2804 57.7423 77.2804C78.8192 77.2804 95.9693 60.1303 95.9693 39.0534C95.9693 29.208 92.2159 20.1998 86.0661 13.4148L87.7407 11.7402L96.0848 3.39607L97.7594 1.72147L99.434 0.046875C108.991 10.2677 114.852 23.9821 114.852 39.0534C114.852 70.5532 89.2421 96.163 57.7423 96.163C26.2426 96.163 0.632812 70.5243 0.632812 39.0534Z" fill="white"/>
<path d="M33.8047 39.0548C33.8047 33.136 35.9412 27.708 39.5214 23.5215L57.7399 41.7399L75.9583 23.5215C79.5385 27.708 81.6751 33.136 81.6751 39.0548C81.6751 52.2784 70.9634 62.99 57.7399 62.99C44.5163 62.99 33.8047 52.2784 33.8047 39.0548Z" fill="white"/>
<path d="M156.476 26.1719V65.0341H149.2V26.1719H136.063V20.3975H169.555V26.1719H156.476Z" fill="white"/>
<path d="M260.499 64.4625C259.373 64.7801 258.074 65.011 256.63 65.1843C255.36 65.3575 253.858 65.5019 252.126 65.6462C250.394 65.7906 248.43 65.8483 246.236 65.8483C244.302 65.8483 242.483 65.7906 240.75 65.6751C239.018 65.5596 237.488 65.1843 236.16 64.5202C234.831 63.8561 233.763 62.8167 232.984 61.402C232.204 59.9873 231.8 57.9662 231.8 55.3388C231.8 52.8846 232.089 51.0079 232.666 49.6509C233.243 48.3228 234.052 47.3412 235.091 46.7348C236.131 46.1285 237.401 45.7532 238.874 45.6666C240.346 45.5511 241.963 45.4933 243.753 45.4933H253.656V43.1835C253.656 41.4223 253.512 40.0942 253.252 39.1414C252.992 38.1886 252.559 37.4957 251.982 37.0337C251.404 36.5718 250.596 36.283 249.585 36.1676C248.575 36.0521 247.362 35.9943 245.89 35.9943C244.042 35.9943 242.367 36.0232 240.866 36.1387C239.364 36.2253 238.065 36.3119 236.968 36.3985C235.698 36.5429 234.572 36.6584 233.561 36.8027V32.8761C234.572 32.6163 235.784 32.3853 237.17 32.212C238.354 32.0388 239.769 31.8656 241.443 31.7212C243.118 31.5769 244.994 31.4902 247.073 31.4902C249.152 31.4902 251.058 31.5768 252.732 31.779C254.407 31.9811 255.793 32.4719 256.948 33.2514C258.074 34.031 258.969 35.2148 259.575 36.7739C260.181 38.333 260.499 40.4695 260.499 43.1835V64.4625ZM253.656 49.6798H245.254C243.984 49.6798 242.945 49.7087 242.107 49.7664C241.27 49.8242 240.606 50.0263 240.144 50.4016C239.653 50.7481 239.335 51.3255 239.133 52.0762C238.931 52.8558 238.845 53.9241 238.845 55.3388C238.845 56.8402 238.989 57.9662 239.278 58.7746C239.566 59.583 240 60.1894 240.606 60.5358C241.183 60.9112 241.963 61.1133 242.945 61.1999C243.897 61.2576 245.052 61.2865 246.351 61.2865C248.661 61.2865 250.48 61.2288 251.751 61.0844C252.501 60.9978 253.136 60.9112 253.714 60.8245V49.6509L253.656 49.6798Z" fill="white"/>
<path d="M285.886 36.9466C285.222 36.8599 284.5 36.7445 283.721 36.629C283.028 36.5423 282.19 36.4557 281.238 36.398C280.285 36.3402 279.188 36.3114 278.004 36.3114C276.993 36.3114 276.098 36.3114 275.319 36.3691C274.539 36.4269 273.846 36.4846 273.298 36.5712C272.634 36.6578 272.056 36.7156 271.594 36.7733V65.0682H264.78V32.9044C265.56 32.6446 266.513 32.4136 267.61 32.2404C268.534 32.0671 269.631 31.8939 270.93 31.7495C272.229 31.6052 273.702 31.5186 275.376 31.5186C277.051 31.5186 278.466 31.6052 279.765 31.7495C281.093 31.8939 282.19 32.0671 283.114 32.2404C284.211 32.4136 285.135 32.6446 285.944 32.9044V36.9754L285.886 36.9466Z" fill="white"/>
<path d="M317.296 64.4637C316.17 64.7813 314.871 65.0123 313.427 65.1855C312.157 65.3588 310.656 65.5031 308.923 65.6475C307.191 65.7919 305.228 65.8496 303.033 65.8496C299.742 65.8496 297.143 65.6475 295.209 65.2722C293.275 64.868 291.831 64.0884 290.849 62.9046C289.868 61.7209 289.232 60.0174 288.973 57.8231C288.713 55.6288 288.568 52.6549 288.568 48.9882C288.568 45.3214 288.742 42.1165 289.088 39.8356C289.435 37.5258 290.127 35.7646 291.167 34.552C292.206 33.3105 293.65 32.502 295.527 32.1267C297.403 31.7225 299.915 31.5492 303.005 31.5492C304.015 31.5492 304.968 31.5492 305.863 31.607C306.758 31.6647 307.566 31.7225 308.259 31.8091C309.039 31.8957 309.761 31.9823 310.425 32.069V17.4307H317.239V64.5215L317.296 64.4637ZM310.482 36.6308C309.963 36.573 309.328 36.5442 308.577 36.4864C307.971 36.4287 307.22 36.3998 306.354 36.3421C305.488 36.3132 304.477 36.2843 303.322 36.2843C301.532 36.2843 300.117 36.3421 299.136 36.4864C298.125 36.6308 297.374 37.0639 296.826 37.8434C296.306 38.623 295.96 39.8356 295.844 41.5102C295.7 43.1848 295.642 45.5812 295.642 48.6417V49.2191C295.642 52.193 295.7 54.4739 295.786 56.0908C295.873 57.6787 296.162 58.8625 296.681 59.6132C297.172 60.3639 297.952 60.7969 298.991 60.9124C300.031 61.0568 301.474 61.1145 303.351 61.1145C304.477 61.1145 305.488 61.1145 306.383 61.0568C307.249 60.9991 307.999 60.9413 308.606 60.8547C309.356 60.7681 309.992 60.6815 310.511 60.5948V36.6308H310.482Z" fill="white"/>
<path d="M348.815 56.1178C348.815 58.341 348.556 60.1022 348.036 61.4014C347.516 62.7007 346.708 63.6535 345.611 64.3176C344.513 64.9816 343.128 65.3858 341.453 65.5591C339.778 65.7323 337.786 65.8189 335.505 65.8189C333.398 65.8189 331.521 65.7612 329.846 65.6168C328.172 65.4724 326.786 65.3281 325.66 65.1549C324.245 64.9816 323.061 64.7506 322.051 64.433V60.6219C322.888 60.7663 323.87 60.8529 324.996 60.9395C325.949 61.0261 327.103 61.1127 328.432 61.1705C329.76 61.2282 331.261 61.2571 332.936 61.2571C334.726 61.2571 336.198 61.2571 337.382 61.1993C338.537 61.1416 339.461 60.9684 340.154 60.6508C340.818 60.3332 341.309 59.8135 341.568 59.1205C341.828 58.4276 341.973 57.4459 341.973 56.1756C341.973 55.165 341.973 54.3566 341.915 53.7791C341.857 53.2017 341.742 52.7109 341.511 52.3355C341.28 51.9602 340.933 51.7003 340.385 51.5271C339.865 51.3539 339.143 51.2095 338.219 51.0651L330.337 49.9391C328.287 49.6215 326.699 49.1884 325.602 48.6399C324.505 48.0624 323.697 47.3984 323.206 46.5899C322.686 45.8104 322.397 44.8865 322.311 43.8759C322.224 42.8365 322.166 41.7394 322.166 40.5556C322.166 38.5057 322.513 36.8599 323.177 35.6762C323.841 34.4635 324.765 33.5685 325.891 32.9622C327.017 32.3559 328.345 31.9516 329.875 31.7784C331.377 31.6052 332.993 31.5186 334.697 31.5186C336.66 31.5186 338.421 31.6052 339.952 31.7495C341.482 31.8939 342.81 32.0671 343.878 32.2404C345.149 32.4136 346.275 32.6446 347.227 32.9044V36.7156C346.448 36.629 345.553 36.5135 344.542 36.398C343.676 36.3114 342.637 36.2248 341.424 36.167C340.211 36.1093 338.854 36.0804 337.324 36.0804C335.707 36.0804 334.379 36.0804 333.311 36.1381C332.243 36.1959 331.405 36.3402 330.77 36.629C330.135 36.9177 329.702 37.3508 329.442 37.986C329.211 38.5923 329.096 39.4585 329.096 40.5556C329.096 41.4218 329.096 42.1436 329.153 42.6922C329.182 43.2407 329.327 43.6738 329.558 43.9625C329.76 44.2801 330.135 44.5111 330.684 44.6555C331.203 44.7998 331.925 44.9442 332.849 45.0886L340.731 46.3301C342.752 46.6477 344.311 47.0519 345.38 47.6005C346.477 48.149 347.285 48.8131 347.776 49.6504C348.267 50.4588 348.584 51.4116 348.671 52.5088C348.758 53.6059 348.815 54.8186 348.815 56.1756" fill="white"/>
<path d="M370.391 69.8261C369.641 72.0492 368.976 73.8971 368.341 75.3118C367.619 77.0153 367.129 77.8526 366.32 78.661C364.501 80.4222 362.018 80.7109 360.488 80.7398H350.44V75.947H359.016C359.737 75.947 360.459 75.7449 361.065 75.3118L361.123 75.2541C361.412 75.0808 361.672 74.8498 361.874 74.59C362.278 74.0414 362.451 73.464 362.682 72.9154C363.058 71.9915 363.491 70.6922 364.039 68.9888L365.367 65.0621H361.441L351.076 32.292H358.034L366.753 60.0672L375.415 32.292H382.431L370.42 69.8549L370.391 69.8261Z" fill="white"/>
<path d="M411.162 56.1178C411.162 58.341 410.902 60.1022 410.383 61.4014C409.863 62.7007 409.054 63.6535 407.957 64.3176C406.86 64.9816 405.474 65.3858 403.8 65.5591C402.125 65.7323 400.133 65.8189 397.852 65.8189C395.744 65.8189 393.868 65.7612 392.193 65.6168C390.518 65.4724 389.133 65.3281 388.007 65.1549C386.592 64.9816 385.408 64.7506 384.397 64.433V60.6219C385.235 60.7663 386.216 60.8529 387.342 60.9395C388.295 61.0261 389.45 61.1127 390.778 61.1705C392.106 61.2282 393.608 61.2571 395.282 61.2571C397.072 61.2571 398.545 61.2571 399.729 61.1993C400.912 61.1416 401.808 60.9684 402.5 60.6508C403.165 60.3332 403.655 59.8135 403.915 59.1205C404.175 58.4276 404.319 57.4459 404.319 56.1756C404.319 55.165 404.319 54.3566 404.262 53.7791C404.204 53.2017 404.088 52.7109 403.857 52.3355C403.626 51.9602 403.28 51.7003 402.731 51.5271C402.212 51.3539 401.49 51.2095 400.566 51.0651L392.684 49.9391C390.634 49.6215 389.046 49.1884 387.949 48.6399C386.852 48.0624 386.043 47.3984 385.552 46.5899C385.033 45.8104 384.744 44.8865 384.657 43.8759C384.571 42.8365 384.513 41.7394 384.513 40.5556C384.513 38.5057 384.859 36.8599 385.523 35.6762C386.188 34.4635 387.111 33.5685 388.237 32.9622C389.364 32.3559 390.692 31.9516 392.222 31.7784C393.723 31.6052 395.34 31.5186 397.044 31.5186C399.007 31.5186 400.768 31.6052 402.298 31.7495C403.829 31.8939 405.157 32.0671 406.225 32.2404C407.495 32.4136 408.621 32.6446 409.574 32.9044V36.7156C408.795 36.629 407.9 36.5135 406.889 36.398C406.023 36.3114 404.983 36.2248 403.771 36.167C402.558 36.1093 401.201 36.0804 399.671 36.0804C398.054 36.0804 396.726 36.0804 395.658 36.1381C394.589 36.1959 393.752 36.3402 393.117 36.629C392.482 36.9177 392.049 37.3508 391.789 37.986C391.558 38.5923 391.442 39.4585 391.442 40.5556C391.442 41.4218 391.442 42.1436 391.5 42.6922C391.529 43.2407 391.673 43.6738 391.904 43.9625C392.106 44.2801 392.482 44.5111 393.03 44.6555C393.55 44.7998 394.272 44.9442 395.196 45.0886L403.078 46.3301C405.099 46.6477 406.658 47.0519 407.726 47.6005C408.823 48.149 409.632 48.8131 410.123 49.6504C410.614 50.4588 410.931 51.4116 411.018 52.5088C411.104 53.6059 411.162 54.8186 411.162 56.1756" fill="white"/>
<path d="M190.325 61.8343C189.805 62.1808 188.823 62.6139 187.351 63.1625C185.878 63.711 184.146 63.9709 182.183 63.9709C180.219 63.9709 178.285 63.6533 176.524 63.0181C174.762 62.3829 173.203 61.3724 171.875 60.0442C170.547 58.6872 169.508 57.0126 168.728 55.0204C167.949 52.9994 167.573 50.6318 167.573 47.8312C167.573 45.4059 167.949 43.1539 168.67 41.1328C169.392 39.1118 170.46 37.3506 171.846 35.8781C173.232 34.4056 174.936 33.2507 176.928 32.4134C178.949 31.5761 181.201 31.1719 183.713 31.1719C186.485 31.1719 188.91 31.374 190.989 31.7782C193.068 32.1824 194.8 32.5577 196.215 32.9042V62.6427C196.215 67.782 194.886 71.4777 192.23 73.7875C189.574 76.0973 185.561 77.2522 180.19 77.2522C178.083 77.2522 176.119 77.0789 174.272 76.7325C172.424 76.386 170.807 75.9818 169.421 75.5198L170.518 70.3228C171.702 70.7848 173.174 71.2178 174.907 71.5643C176.639 71.9108 178.429 72.1129 180.335 72.1129C183.886 72.1129 186.427 71.4199 187.986 70.0052C189.545 68.5905 190.325 66.3384 190.325 63.2779V61.8632V61.8343ZM190.267 37.0907C189.661 36.9175 188.881 36.7731 187.871 36.5999C186.86 36.4555 185.503 36.3689 183.8 36.3689C180.595 36.3689 178.141 37.4083 176.408 39.516C174.676 41.6237 173.81 44.3954 173.81 47.8601C173.81 49.7945 174.041 51.4403 174.56 52.7973C175.051 54.1543 175.715 55.3092 176.553 56.2042C177.39 57.0993 178.343 57.7633 179.44 58.1964C180.537 58.6295 181.663 58.8316 182.818 58.8316C184.406 58.8316 185.849 58.6006 187.178 58.1675C188.506 57.7056 189.545 57.1859 190.325 56.6084V37.1196L190.267 37.0907Z" fill="white"/>
<path d="M227.912 64.1975C226.555 64.544 224.736 64.8905 222.484 65.2947C220.231 65.67 217.633 65.8721 214.688 65.8721C212.118 65.8721 209.953 65.4968 208.221 64.7461C206.459 63.9954 205.045 62.956 203.976 61.5701C202.908 60.2131 202.129 58.5963 201.667 56.7196C201.205 54.8717 200.974 52.7929 200.974 50.5409V31.8316H206.921V49.2705C206.921 53.3415 207.557 56.2287 208.856 57.99C210.126 59.7512 212.292 60.6173 215.323 60.6173C215.958 60.6173 216.622 60.6173 217.315 60.5596C218.008 60.5019 218.644 60.473 219.25 60.3864C219.856 60.3286 220.405 60.2709 220.896 60.1843C221.386 60.1265 221.733 60.0399 221.964 59.9533V31.8027H227.912V64.1686V64.1975Z" fill="white"/>
</svg>
