<svg width="279" height="66" viewBox="0 0 279 66" fill="none" xmlns="http://www.w3.org/2000/svg">
<path d="M0.425781 26.4833C0.425781 16.2869 4.39105 7.00855 10.8566 0.09375L17.6346 6.87182L18.7676 8.00475L19.9005 9.13768C15.7399 13.728 13.2006 19.8224 13.2006 26.4833C13.2006 40.7426 24.8034 52.3454 39.0627 52.3454C53.322 52.3454 64.9248 40.7426 64.9248 26.4833C64.9248 19.8224 62.3855 13.728 58.2249 9.13768L59.3578 8.00475L65.003 2.35962L66.1359 1.22668L67.2688 0.09375C73.7344 7.00855 77.6996 16.2869 77.6996 26.4833C77.6996 47.7941 60.3736 65.1202 39.0627 65.1202C17.7518 65.1202 0.425781 47.7746 0.425781 26.4833Z" fill="#213668"/>
<path d="M22.8672 26.4855C22.8672 22.4812 24.3127 18.8089 26.7348 15.9766L39.0603 28.3021L51.3859 15.9766C53.808 18.8089 55.2535 22.4812 55.2535 26.4855C55.2535 35.4318 48.0066 42.6786 39.0603 42.6786C30.1141 42.6786 22.8672 35.4318 22.8672 26.4855Z" fill="#213668"/>
<path d="M105.861 17.7699V44.0618H100.938V17.7699H92.0508V13.8633H114.709V17.7699H105.861Z" fill="#213668"/>
<path d="M176.236 43.6743C175.475 43.8891 174.596 44.0454 173.619 44.1626C172.76 44.2798 171.744 44.3775 170.572 44.4751C169.4 44.5728 168.072 44.6119 166.587 44.6119C165.278 44.6119 164.048 44.5728 162.876 44.4947C161.704 44.4165 160.668 44.1626 159.77 43.7133C158.871 43.2641 158.149 42.5609 157.621 41.6037C157.094 40.6466 156.82 39.2793 156.82 37.5017C156.82 35.8414 157.016 34.5717 157.406 33.6537C157.797 32.7551 158.344 32.091 159.047 31.6808C159.75 31.2706 160.61 31.0167 161.606 30.9581C162.602 30.8799 163.696 30.8409 164.907 30.8409H171.607V29.2782C171.607 28.0867 171.509 27.1881 171.334 26.5435C171.158 25.8989 170.865 25.4301 170.474 25.1176C170.083 24.8051 169.537 24.6097 168.853 24.5316C168.169 24.4535 167.349 24.4144 166.353 24.4144C165.102 24.4144 163.97 24.4339 162.954 24.5121C161.938 24.5707 161.059 24.6293 160.317 24.6879C159.457 24.7855 158.696 24.8637 158.012 24.9613V22.3048C158.696 22.129 159.516 21.9727 160.454 21.8555C161.254 21.7383 162.212 21.6211 163.344 21.5235C164.477 21.4258 165.747 21.3672 167.153 21.3672C168.56 21.3672 169.849 21.4258 170.982 21.5625C172.115 21.6993 173.053 22.0313 173.834 22.5587C174.596 23.0861 175.201 23.887 175.611 24.9418C176.022 25.9966 176.236 27.4421 176.236 29.2782V43.6743ZM171.607 33.6732H165.923C165.063 33.6732 164.36 33.6927 163.794 33.7318C163.227 33.7709 162.778 33.9076 162.465 34.1615C162.133 34.3959 161.919 34.7866 161.782 35.2945C161.645 35.8219 161.586 36.5446 161.586 37.5017C161.586 38.5175 161.684 39.2793 161.879 39.8262C162.075 40.3731 162.368 40.7833 162.778 41.0177C163.169 41.2717 163.696 41.4084 164.36 41.467C165.005 41.5061 165.786 41.5256 166.665 41.5256C168.228 41.5256 169.458 41.4865 170.318 41.3889C170.826 41.3303 171.255 41.2717 171.646 41.2131V33.6537L171.607 33.6732Z" fill="#213668"/>
<path d="M193.412 25.059C192.962 25.0004 192.474 24.9223 191.947 24.8441C191.478 24.7855 190.911 24.7269 190.267 24.6879C189.622 24.6488 188.88 24.6293 188.079 24.6293C187.395 24.6293 186.79 24.6293 186.262 24.6683C185.735 24.7074 185.266 24.7465 184.895 24.8051C184.446 24.8637 184.055 24.9027 183.743 24.9418V44.0845H179.133V22.3243C179.66 22.1485 180.305 21.9923 181.047 21.8751C181.672 21.7579 182.414 21.6407 183.293 21.543C184.172 21.4453 185.169 21.3867 186.302 21.3867C187.434 21.3867 188.392 21.4453 189.271 21.543C190.169 21.6407 190.911 21.7579 191.536 21.8751C192.279 21.9923 192.904 22.1485 193.451 22.3243V25.0785L193.412 25.059Z" fill="#213668"/>
<path d="M214.662 43.6753C213.9 43.8901 213.021 44.0464 212.045 44.1636C211.185 44.2808 210.17 44.3785 208.998 44.4761C207.826 44.5738 206.497 44.6129 205.013 44.6129C202.786 44.6129 201.028 44.4761 199.719 44.2222C198.41 43.9487 197.434 43.4213 196.77 42.6205C196.106 41.8196 195.676 40.6671 195.5 39.1826C195.324 37.6981 195.227 35.6861 195.227 33.2054C195.227 30.7247 195.344 28.5565 195.578 27.0133C195.813 25.4507 196.281 24.2591 196.985 23.4387C197.688 22.5988 198.664 22.0519 199.934 21.7979C201.204 21.5245 202.903 21.4073 204.993 21.4073C205.677 21.4073 206.321 21.4073 206.927 21.4463C207.533 21.4854 208.079 21.5245 208.548 21.5831C209.076 21.6417 209.564 21.7003 210.013 21.7589V11.8555H214.623V43.7143L214.662 43.6753ZM210.052 24.8451C209.701 24.8061 209.271 24.7865 208.763 24.7475C208.353 24.7084 207.845 24.6889 207.259 24.6498C206.673 24.6303 205.989 24.6107 205.208 24.6107C203.997 24.6107 203.04 24.6498 202.376 24.7475C201.692 24.8451 201.184 25.1381 200.813 25.6655C200.461 26.1929 200.227 27.0133 200.149 28.1463C200.051 29.2792 200.012 30.9005 200.012 32.971V33.3617C200.012 35.3736 200.051 36.9167 200.11 38.0106C200.168 39.0849 200.364 39.8858 200.715 40.3937C201.047 40.9015 201.575 41.1945 202.278 41.2727C202.981 41.3703 203.958 41.4094 205.228 41.4094C205.989 41.4094 206.673 41.4094 207.279 41.3703C207.865 41.3313 208.372 41.2922 208.783 41.2336C209.291 41.175 209.72 41.1164 210.072 41.0578V24.8451H210.052Z" fill="#213668"/>
<path d="M235.986 38.0291C235.986 39.5332 235.811 40.7247 235.459 41.6037C235.107 42.4827 234.56 43.1273 233.818 43.5766C233.076 44.0259 232.138 44.2993 231.005 44.4165C229.872 44.5337 228.525 44.5923 226.981 44.5923C225.555 44.5923 224.286 44.5532 223.153 44.4556C222.02 44.3579 221.082 44.2603 220.321 44.1431C219.363 44.0259 218.563 43.8696 217.879 43.6547V41.0763C218.445 41.174 219.109 41.2326 219.871 41.2912C220.516 41.3498 221.297 41.4084 222.196 41.4475C223.094 41.4865 224.11 41.5061 225.243 41.5061C226.454 41.5061 227.45 41.5061 228.251 41.467C229.032 41.4279 229.657 41.3107 230.126 41.0959C230.576 40.881 230.908 40.5294 231.083 40.0606C231.259 39.5918 231.357 38.9277 231.357 38.0682C231.357 37.3845 231.357 36.8376 231.318 36.4469C231.279 36.0563 231.201 35.7242 231.044 35.4703C230.888 35.2163 230.654 35.0405 230.283 34.9233C229.931 34.8061 229.443 34.7085 228.818 34.6108L223.485 33.849C222.098 33.6341 221.024 33.3411 220.281 32.97C219.539 32.5793 218.992 32.1301 218.66 31.5831C218.309 31.0557 218.113 30.4307 218.055 29.747C217.996 29.0438 217.957 28.3015 217.957 27.5007C217.957 26.1138 218.191 25.0004 218.641 24.1995C219.09 23.3791 219.715 22.7736 220.477 22.3634C221.239 21.9532 222.137 21.6797 223.172 21.5625C224.188 21.4453 225.282 21.3867 226.435 21.3867C227.763 21.3867 228.954 21.4453 229.99 21.543C231.025 21.6407 231.923 21.7579 232.646 21.8751C233.506 21.9923 234.267 22.1485 234.912 22.3243V24.9027C234.385 24.8441 233.779 24.766 233.095 24.6879C232.509 24.6293 231.806 24.5707 230.986 24.5316C230.165 24.4925 229.247 24.473 228.212 24.473C227.118 24.473 226.22 24.473 225.497 24.5121C224.774 24.5511 224.208 24.6488 223.778 24.8441C223.348 25.0395 223.055 25.3325 222.879 25.7622C222.723 26.1724 222.645 26.7584 222.645 27.5007C222.645 28.0867 222.645 28.575 222.684 28.9461C222.704 29.3173 222.801 29.6103 222.958 29.8056C223.094 30.0205 223.348 30.1767 223.719 30.2744C224.071 30.3721 224.559 30.4697 225.184 30.5674L230.517 31.4073C231.884 31.6222 232.939 31.8957 233.662 32.2668C234.404 32.6379 234.951 33.0872 235.283 33.6537C235.615 34.2006 235.83 34.8452 235.889 35.5875C235.947 36.3297 235.986 37.1501 235.986 38.0682" fill="#3072B9"/>
<path d="M250.583 47.3035C250.076 48.8076 249.626 50.0577 249.197 51.0148C248.708 52.1673 248.376 52.7338 247.829 53.2807C246.599 54.4722 244.919 54.6676 243.884 54.6871H237.086V51.4446H242.887C243.376 51.4446 243.864 51.3078 244.274 51.0148L244.313 50.9758C244.509 50.8586 244.684 50.7023 244.821 50.5265C245.095 50.1554 245.212 49.7647 245.368 49.3936C245.622 48.7685 245.915 47.8895 246.286 46.737L247.185 44.0805H244.528L237.516 21.9102H242.223L248.122 40.7012L253.982 21.9102H258.729L250.603 47.323L250.583 47.3035Z" fill="#3072B9"/>
<path d="M278.166 38.0291C278.166 39.5332 277.99 40.7247 277.639 41.6037C277.287 42.4827 276.74 43.1273 275.998 43.5766C275.256 44.0259 274.318 44.2993 273.185 44.4165C272.052 44.5337 270.704 44.5923 269.161 44.5923C267.735 44.5923 266.466 44.5532 265.333 44.4556C264.2 44.3579 263.262 44.2603 262.5 44.1431C261.543 44.0259 260.742 43.8696 260.059 43.6547V41.0763C260.625 41.174 261.289 41.2326 262.051 41.2912C262.696 41.3498 263.477 41.4084 264.375 41.4475C265.274 41.4865 266.29 41.5061 267.423 41.5061C268.634 41.5061 269.63 41.5061 270.431 41.467C271.232 41.4279 271.837 41.3107 272.306 41.0959C272.755 40.881 273.087 40.5294 273.263 40.0606C273.439 39.5918 273.537 38.9277 273.537 38.0682C273.537 37.3845 273.537 36.8376 273.498 36.4469C273.458 36.0563 273.38 35.7242 273.224 35.4703C273.068 35.2163 272.833 35.0405 272.462 34.9233C272.111 34.8061 271.622 34.7085 270.997 34.6108L265.665 33.849C264.278 33.6341 263.203 33.3411 262.461 32.97C261.719 32.5793 261.172 32.1301 260.84 31.5831C260.488 31.0557 260.293 30.4307 260.234 29.747C260.176 29.0438 260.137 28.3015 260.137 27.5007C260.137 26.1138 260.371 25.0004 260.82 24.1995C261.27 23.3791 261.895 22.7736 262.657 22.3634C263.418 21.9532 264.317 21.6797 265.352 21.5625C266.368 21.4453 267.462 21.3867 268.614 21.3867C269.942 21.3867 271.134 21.4453 272.169 21.543C273.205 21.6407 274.103 21.7579 274.826 21.8751C275.685 21.9923 276.447 22.1485 277.092 22.3243V24.9027C276.564 24.8441 275.959 24.766 275.275 24.6879C274.689 24.6293 273.986 24.5707 273.165 24.5316C272.345 24.4925 271.427 24.473 270.392 24.473C269.298 24.473 268.399 24.473 267.677 24.5121C266.954 24.5511 266.387 24.6488 265.958 24.8441C265.528 25.0395 265.235 25.3325 265.059 25.7622C264.903 26.1724 264.825 26.7584 264.825 27.5007C264.825 28.0867 264.825 28.575 264.864 28.9461C264.883 29.3173 264.981 29.6103 265.137 29.8056C265.274 30.0205 265.528 30.1767 265.899 30.2744C266.251 30.3721 266.739 30.4697 267.364 30.5674L272.697 31.4073C274.064 31.6222 275.119 31.8957 275.842 32.2668C276.584 32.6379 277.131 33.0872 277.463 33.6537C277.795 34.2006 278.01 34.8452 278.068 35.5875C278.127 36.3297 278.166 37.1501 278.166 38.0682" fill="#3072B9"/>
<path d="M128.759 41.8967C128.408 42.1311 127.744 42.4241 126.748 42.7953C125.751 43.1664 124.579 43.3422 123.251 43.3422C121.923 43.3422 120.614 43.1273 119.423 42.6976C118.231 42.2679 117.176 41.5842 116.278 40.6857C115.379 39.7676 114.676 38.6347 114.149 37.2869C113.621 35.9195 113.367 34.3178 113.367 32.4231C113.367 30.7823 113.621 29.2587 114.109 27.8913C114.598 26.524 115.321 25.3325 116.258 24.3363C117.196 23.3401 118.348 22.5587 119.696 21.9923C121.063 21.4258 122.587 21.1523 124.286 21.1523C126.162 21.1523 127.802 21.2891 129.209 21.5625C130.615 21.836 131.787 22.0899 132.744 22.3243V42.4437C132.744 45.9206 131.846 48.4209 130.049 49.9835C128.252 51.5462 125.536 52.3275 121.903 52.3275C120.477 52.3275 119.149 52.2103 117.899 51.9759C116.649 51.7415 115.555 51.4681 114.617 51.1555L115.36 47.6395C116.16 47.9521 117.157 48.2451 118.329 48.4795C119.501 48.7139 120.712 48.8506 122.001 48.8506C124.404 48.8506 126.122 48.3818 127.177 47.4247C128.232 46.4675 128.759 44.9439 128.759 42.8734V41.9163V41.8967ZM128.72 25.1567C128.31 25.0395 127.783 24.9418 127.099 24.8246C126.415 24.7269 125.497 24.6683 124.345 24.6683C122.177 24.6683 120.516 25.3715 119.344 26.7975C118.172 28.2234 117.586 30.0986 117.586 32.4426C117.586 33.7513 117.743 34.8647 118.094 35.7828C118.426 36.7009 118.876 37.4822 119.442 38.0877C120.009 38.6933 120.653 39.1425 121.395 39.4355C122.138 39.7285 122.899 39.8653 123.681 39.8653C124.755 39.8653 125.732 39.709 126.63 39.416C127.529 39.1035 128.232 38.7519 128.759 38.3612V25.1762L128.72 25.1567Z" fill="#213668"/>
<path d="M154.189 43.4945C153.271 43.7289 152.041 43.9633 150.517 44.2368C148.994 44.4907 147.236 44.6275 145.243 44.6275C143.505 44.6275 142.04 44.3735 140.868 43.8657C139.676 43.3578 138.719 42.6546 137.996 41.717C137.274 40.7989 136.746 39.7051 136.434 38.4354C136.121 37.1853 135.965 35.7789 135.965 34.2553V21.5977H139.989V33.3958C139.989 36.15 140.418 38.1033 141.297 39.2949C142.157 40.4864 143.622 41.0724 145.673 41.0724C146.103 41.0724 146.552 41.0724 147.021 41.0333C147.49 40.9943 147.919 40.9747 148.329 40.9161C148.74 40.8771 149.111 40.838 149.443 40.7794C149.775 40.7403 150.009 40.6817 150.166 40.6231V21.5781H154.189V43.475V43.4945Z" fill="#213668"/>
</svg>
