<svg width="1127" height="837" viewBox="0 0 1127 837" fill="none" xmlns="http://www.w3.org/2000/svg">
<g opacity="0.6" clip-path="url(#clip0_3001_62759)">
<path d="M-0.449219 444.432C-0.449219 295.782 57.3676 160.516 151.64 59.707L250.47 158.522L266.989 175.039L283.508 191.556C222.843 258.477 185.818 347.325 185.818 444.432C185.818 652.314 354.996 821.467 562.908 821.467C770.821 821.467 939.999 652.314 939.999 444.432C939.999 347.325 902.974 258.477 842.594 191.556L859.113 175.039L941.423 92.7404L957.942 76.2237L974.461 59.707C1068.73 160.516 1126.55 295.782 1126.55 444.432C1126.55 755.116 873.923 1007.71 563.193 1007.71C252.464 1007.71 -0.449219 754.831 -0.449219 444.432Z" fill="url(#paint0_linear_3001_62759)" fill-opacity="0.05"/>
<path d="M974.428 61.5C1067.98 161.988 1125.31 296.573 1125.31 444.432C1125.31 754.428 873.235 1006.46 563.193 1006.46C253.151 1006.46 0.795932 754.143 0.795898 444.432C0.795898 296.573 58.1256 161.988 151.673 61.5L249.59 159.402L266.108 175.919L281.792 191.6C221.4 258.638 184.572 347.428 184.572 444.432C184.572 653.002 354.308 822.712 562.908 822.712C771.508 822.712 941.244 653.002 941.244 444.432C941.244 347.428 904.417 258.639 844.308 191.602L859.993 175.919L942.304 93.6211L958.822 77.1045L974.428 61.5Z" stroke="url(#paint1_linear_3001_62759)" stroke-opacity="0.08" stroke-width="2.48979"/>
<path d="M326.742 444.421C326.742 386.043 347.818 332.507 383.135 291.215L562.851 470.905L742.567 291.215C777.884 332.507 798.96 386.043 798.96 444.421C798.96 574.846 693.295 680.496 562.851 680.496C432.407 680.496 326.742 574.846 326.742 444.421Z" fill="url(#paint2_linear_3001_62759)" fill-opacity="0.05"/>
<path d="M742.49 293.051C777.094 333.982 797.715 386.83 797.715 444.421C797.715 574.158 692.608 679.251 562.852 679.251C433.095 679.251 327.987 574.158 327.987 444.421C327.987 386.83 348.607 333.982 383.211 293.051L561.971 471.785L562.852 472.665L563.731 471.785L742.49 293.051Z" stroke="url(#paint3_linear_3001_62759)" stroke-opacity="0.08" stroke-width="2.48979"/>
</g>
<defs>
<linearGradient id="paint0_linear_3001_62759" x1="563.051" y1="59.707" x2="563.051" y2="1274.85" gradientUnits="userSpaceOnUse">
<stop stop-color="#1C2F5C"/>
<stop offset="0.54403" stop-color="#1C2F5C" stop-opacity="0"/>
</linearGradient>
<linearGradient id="paint1_linear_3001_62759" x1="563.051" y1="59.707" x2="563.051" y2="1485.25" gradientUnits="userSpaceOnUse">
<stop stop-color="#1C2F5C"/>
<stop offset="0.541097" stop-color="#1C2F5C" stop-opacity="0"/>
</linearGradient>
<linearGradient id="paint2_linear_3001_62759" x1="562.851" y1="291.215" x2="562.851" y2="680.496" gradientUnits="userSpaceOnUse">
<stop stop-color="#1C2F5C"/>
<stop offset="1" stop-color="#1C2F5C" stop-opacity="0"/>
</linearGradient>
<linearGradient id="paint3_linear_3001_62759" x1="562.851" y1="291.215" x2="562.851" y2="680.496" gradientUnits="userSpaceOnUse">
<stop stop-color="#1C2F5C"/>
<stop offset="1" stop-color="#1C2F5C" stop-opacity="0"/>
</linearGradient>
<clipPath id="clip0_3001_62759">
<rect width="1127" height="837" fill="white"/>
</clipPath>
</defs>
</svg>
