<svg xmlns="http://www.w3.org/2000/svg" version="1.1" xmlns:xlink="http://www.w3.org/1999/xlink" width="1000" height="1000"><g clip-path="url(#SvgjsClipPath1046)"><rect width="1000" height="1000" fill="#ffffff"></rect><g transform="matrix(1.3671875,0,0,1.3671875,150,150)"><svg xmlns="http://www.w3.org/2000/svg" version="1.1" xmlns:xlink="http://www.w3.org/1999/xlink" width="512" height="512"><svg width="512" height="512" viewBox="0 0 512 512" fill="none" xmlns="http://www.w3.org/2000/svg">
<path d="M0.571655 215.581C0.571655 148.162 26.7901 86.8138 69.5403 41.093L114.357 85.9097L121.848 93.4007L129.339 100.892C101.829 131.243 85.0389 171.539 85.0389 215.581C85.0389 309.864 161.757 386.582 256.04 386.582C350.323 386.582 427.041 309.864 427.041 215.581C427.041 171.539 410.25 131.243 382.741 100.892L390.232 93.4007L427.557 56.075L435.048 48.584L442.539 41.093C485.289 86.8138 511.508 148.162 511.508 215.581C511.508 356.489 396.948 471.049 256.04 471.049C115.132 471.049 0.571655 356.36 0.571655 215.581Z" fill="#213668"></path>
<path d="M148.966 215.572C148.966 189.096 158.524 164.815 174.539 146.087L256.036 227.584L337.532 146.087C353.547 164.815 363.105 189.096 363.105 215.572C363.105 274.725 315.188 322.642 256.036 322.642C196.883 322.642 148.966 274.725 148.966 215.572Z" fill="#213668"></path>
</svg></svg></g></g><defs><clipPath id="SvgjsClipPath1046"><rect width="1000" height="1000" x="0" y="0" rx="250" ry="250"></rect></clipPath></defs></svg>