<svg width="1663" height="1370" viewBox="0 0 1663 1370" fill="none" xmlns="http://www.w3.org/2000/svg">
<path opacity="0.08" d="M225.057 0.230469C86.0333 145.872 0.771484 341.296 0.771484 556.056C0.771729 1004.91 373.321 1369.84 831.552 1369.84C1289.78 1369.84 1662.33 1004.5 1662.33 556.056C1662.33 341.296 1577.07 145.872 1438.05 0.230469L1292.3 142.992L1243.58 190.717C1333.04 287.4 1387.65 415.762 1387.65 556.056C1387.65 856.39 1138.16 1100.77 831.552 1100.77C524.944 1100.77 275.458 856.39 275.458 556.056C275.458 415.762 330.059 287.4 419.521 190.717L395.161 166.854L273.778 47.9551L249.418 24.0928L225.057 0.230469ZM566.543 334.684C514.462 394.339 483.381 471.686 483.381 556.026C483.381 744.455 639.205 897.091 831.569 897.091C1023.93 897.091 1179.76 744.455 1179.76 556.026C1179.76 471.686 1148.68 394.339 1096.6 334.684L831.569 594.288L566.543 334.684Z" fill="url(#paint0_linear_3001_62566)"/>
<defs>
<linearGradient id="paint0_linear_3001_62566" x1="-688.922" y1="627.198" x2="1665.79" y2="627.198" gradientUnits="userSpaceOnUse">
<stop stop-color="#2F629D"/>
<stop offset="1" stop-color="#E9FAFF"/>
</linearGradient>
</defs>
</svg>
