<svg width="799" height="673" viewBox="0 0 799 673" fill="none" xmlns="http://www.w3.org/2000/svg">
<g opacity="0.8">
<path d="M0.0585938 273.199C0.0585938 167.877 41.0046 72.0382 107.769 0.612793L177.76 70.6258L189.459 82.3283L201.158 94.0307C158.195 141.446 131.973 204.397 131.973 273.199C131.973 420.489 251.786 540.338 399.03 540.338C546.274 540.338 666.087 420.489 666.087 273.199C666.087 204.397 639.865 141.446 597.104 94.0307L608.803 82.3283L667.095 24.0177L678.794 12.3153L690.493 0.612793C757.257 72.0382 798.203 167.877 798.203 273.199C798.203 493.327 619.291 672.294 399.232 672.294C179.172 672.294 0.0585938 493.125 0.0585938 273.199Z" fill="url(#paint0_linear_3001_62587)" fill-opacity="0.05"/>
<path d="M690.46 2.40576C756.499 73.5102 796.958 168.669 796.958 273.2C796.958 492.64 618.603 671.049 399.231 671.049C179.86 671.049 1.30383 492.437 1.30371 273.2C1.30371 168.669 41.7626 73.5102 107.802 2.40576L176.88 71.5063L188.579 83.2085L199.441 94.0747C156.751 141.607 130.729 204.5 130.729 273.2C130.729 421.176 251.098 541.583 399.03 541.583C546.962 541.583 667.332 421.176 667.332 273.2C667.332 204.5 641.309 141.608 598.817 94.0767L609.684 83.2085L667.976 24.8979L679.675 13.1958L690.46 2.40576Z" stroke="url(#paint1_linear_3001_62587)" stroke-opacity="0.08" stroke-width="2.48979"/>
<path d="M231.781 273.191C231.781 231.829 246.707 193.897 271.719 164.641L398.994 291.955L526.27 164.641C551.281 193.897 566.207 231.829 566.207 273.191C566.207 365.6 491.375 440.456 398.994 440.456C306.614 440.456 231.781 365.6 231.781 273.191Z" fill="#1C2F5C" fill-opacity="0.05"/>
<path d="M526.192 166.478C550.492 195.373 564.962 232.616 564.962 273.191C564.962 364.913 490.687 439.211 398.994 439.211C307.302 439.211 233.027 364.913 233.026 273.191C233.026 232.617 247.496 195.373 271.795 166.478L398.114 292.836L398.994 293.716L399.875 292.836L526.192 166.478Z" stroke="#1C2F5C" stroke-opacity="0.08" stroke-width="2.48979"/>
</g>
<defs>
<linearGradient id="paint0_linear_3001_62587" x1="399.131" y1="0.612793" x2="399.131" y2="861.571" gradientUnits="userSpaceOnUse">
<stop stop-color="#1C2F5C"/>
<stop offset="1" stop-color="#1C2F5C" stop-opacity="0"/>
</linearGradient>
<linearGradient id="paint1_linear_3001_62587" x1="399.131" y1="0.612793" x2="399.131" y2="1010.65" gradientUnits="userSpaceOnUse">
<stop stop-color="#1C2F5C"/>
<stop offset="1" stop-color="#1C2F5C" stop-opacity="0"/>
</linearGradient>
</defs>
</svg>
