<svg width="388" height="400" viewBox="0 0 388 400" fill="none" xmlns="http://www.w3.org/2000/svg">
<mask id="path-1-inside-1_3001_66068" fill="white">
<path d="M694.762 -60.3008C767.344 17.3255 811.859 121.485 811.859 235.951L811.851 238.752C810.339 476.705 616.421 669.693 378.117 669.693L375.315 669.685C138.296 668.177 -54.1107 475.556 -55.6162 238.75L-55.625 235.951C-55.625 121.485 -11.1101 17.3255 61.4727 -60.3008L150.282 28.5088L163 41.2275L161.909 42.4385C115.85 93.8286 87.7861 161.76 87.7861 235.951L87.792 237.825C88.8 396.419 217.649 525.267 376.242 526.275L378.117 526.282C537.569 526.282 667.43 397.043 668.442 237.825L668.448 235.951C668.448 161.76 640.385 93.8286 594.325 42.4385L593.234 41.2275L605.952 28.5088L669.325 -34.8643L682.044 -47.582L694.762 -60.3008ZM682.751 -46.875L670.032 -34.1572L594.612 41.2627C641.101 92.8885 669.448 161.258 669.448 235.951C669.448 396.58 538.746 527.282 378.117 527.282C217.488 527.282 86.7863 396.58 86.7861 235.951C86.7861 161.258 115.133 92.8884 161.621 41.2627L149.575 29.2158L136.856 16.498L61.498 -58.8604C-10.5018 18.5084 -54.625 122.121 -54.625 235.951C-54.6248 474.418 139.432 668.693 378.117 668.693C616.803 668.693 810.859 474.637 810.859 235.951C810.859 122.121 766.735 18.5084 694.735 -58.8604L682.751 -46.875ZM516.235 85.6992C551.334 123.236 572.859 173.604 572.859 228.956C572.859 344.643 478.804 438.698 363.117 438.698C247.43 438.698 153.375 344.537 153.375 228.956C153.375 173.604 174.901 123.236 209.999 85.6992L259.095 134.795C236.509 159.714 222.724 192.797 222.724 228.956C222.724 306.363 285.71 369.35 363.117 369.35C440.524 369.35 503.511 306.363 503.511 228.956C503.511 192.797 489.726 159.714 467.14 134.795L516.235 85.6992ZM429.994 171.895C443.143 187.27 450.99 207.205 450.99 228.942C450.99 277.507 411.65 316.848 363.085 316.848C314.52 316.848 275.18 277.508 275.18 228.942C275.18 207.205 283.026 187.27 296.175 171.895L363.085 238.804L429.994 171.895Z"/>
</mask>
<path d="M694.762 -60.3008L695.492 -60.9838L694.786 -61.7392L694.055 -61.0079L694.762 -60.3008ZM811.859 235.951L812.859 235.954V235.951H811.859ZM811.851 238.752L812.851 238.758V238.755L811.851 238.752ZM378.117 669.693L378.114 670.693H378.117V669.693ZM375.315 669.685L375.309 670.685H375.312L375.315 669.685ZM-55.6162 238.75L-56.6162 238.753L-56.6162 238.756L-55.6162 238.75ZM-55.625 235.951H-56.625L-56.625 235.954L-55.625 235.951ZM61.4727 -60.3008L62.1798 -61.0079L61.4485 -61.7391L60.7422 -60.9838L61.4727 -60.3008ZM150.282 28.5088L150.989 27.8017L150.989 27.8017L150.282 28.5088ZM163 41.2275L163.743 41.8968L164.378 41.1916L163.707 40.5205L163 41.2275ZM161.909 42.4385L161.166 41.7692L161.165 41.771L161.909 42.4385ZM87.7861 235.951H86.7861V235.954L87.7861 235.951ZM87.792 237.825L86.792 237.828L86.792 237.832L87.792 237.825ZM376.242 526.275L376.236 527.275H376.239L376.242 526.275ZM378.117 526.282L378.114 527.282H378.117V526.282ZM668.442 237.825L669.442 237.832V237.828L668.442 237.825ZM668.448 235.951L669.448 235.954V235.951H668.448ZM594.325 42.4385L595.07 41.771L595.068 41.7692L594.325 42.4385ZM593.234 41.2275L592.527 40.5205L591.856 41.1916L592.491 41.8968L593.234 41.2275ZM605.952 28.5088L605.245 27.8017L605.245 27.8017L605.952 28.5088ZM669.325 -34.8643L668.618 -35.5714V-35.5714L669.325 -34.8643ZM682.044 -47.582L682.751 -46.8749L682.751 -46.875L682.044 -47.582ZM682.751 -46.875L683.458 -46.1679L683.458 -46.1679L682.751 -46.875ZM670.032 -34.1572L669.325 -34.8644V-34.8643L670.032 -34.1572ZM594.612 41.2627L593.905 40.5556L593.234 41.2266L593.869 41.9319L594.612 41.2627ZM669.448 235.951H670.448H669.448ZM378.117 527.282V528.282V527.282ZM86.7861 235.951H85.7861H86.7861ZM161.621 41.2627L162.364 41.9319L162.999 41.2267L162.328 40.5556L161.621 41.2627ZM149.575 29.2158L150.282 28.5087L150.282 28.5087L149.575 29.2158ZM136.856 16.498L136.149 17.2052L136.149 17.2052L136.856 16.498ZM61.498 -58.8604L62.2052 -59.5675L61.4722 -60.3004L60.766 -59.5416L61.498 -58.8604ZM-54.625 235.951H-55.625H-55.625H-54.625ZM378.117 668.693V669.693V668.693ZM810.859 235.951H811.859H810.859ZM694.735 -58.8604L695.467 -59.5416L694.761 -60.3005L694.028 -59.5674L694.735 -58.8604ZM516.235 85.6992L516.966 85.0162L516.26 84.2609L515.528 84.9921L516.235 85.6992ZM572.859 228.956H573.859H572.859ZM363.117 438.698V439.698V438.698ZM153.375 228.956H152.375H153.375ZM209.999 85.6992L210.706 84.9921L209.975 84.2609L209.269 85.0162L209.999 85.6992ZM259.095 134.795L259.836 135.466L260.475 134.761L259.802 134.088L259.095 134.795ZM222.724 228.956H221.724H222.724ZM363.117 369.35V370.35V369.35ZM503.511 228.956H504.511H503.511ZM467.14 134.795L466.433 134.088L465.759 134.761L466.399 135.466L467.14 134.795ZM429.994 171.895L430.754 171.245L430.051 170.423L429.287 171.187L429.994 171.895ZM450.99 228.942H451.99H450.99ZM363.085 316.848V317.848V316.848ZM275.18 228.942H274.18H275.18ZM296.175 171.895L296.882 171.187L296.117 170.423L295.415 171.245L296.175 171.895ZM363.085 238.804L362.378 239.511L363.085 240.218L363.792 239.511L363.085 238.804ZM694.762 -60.3008L694.031 -59.6178C766.448 17.8314 810.859 121.75 810.859 235.951H811.859H812.859C812.859 121.221 768.24 16.8196 695.492 -60.9838L694.762 -60.3008ZM811.859 235.951L810.859 235.948L810.851 238.749L811.851 238.752L812.851 238.755L812.859 235.954L811.859 235.951ZM811.851 238.752L810.851 238.746C809.343 476.149 615.871 668.693 378.117 668.693V669.693V670.693C616.971 670.693 811.336 477.261 812.851 238.758L811.851 238.752ZM378.117 669.693L378.12 668.693L375.319 668.685L375.315 669.685L375.312 670.685L378.114 670.693L378.117 669.693ZM375.315 669.685L375.322 668.685C138.85 667.181 -53.1142 475.002 -54.6162 238.744L-55.6162 238.75L-56.6162 238.756C-55.1072 476.109 137.742 669.174 375.309 670.685L375.315 669.685ZM-55.6162 238.75L-54.6162 238.747L-54.625 235.948L-55.625 235.951L-56.625 235.954L-56.6162 238.753L-55.6162 238.75ZM-55.625 235.951H-54.625C-54.625 121.75 -10.2141 17.8314 62.2031 -59.6178L61.4727 -60.3008L60.7422 -60.9838C-12.0061 16.8196 -56.625 121.221 -56.625 235.951H-55.625ZM61.4727 -60.3008L60.7655 -59.5937L149.575 29.2159L150.282 28.5088L150.989 27.8017L62.1798 -61.0079L61.4727 -60.3008ZM150.282 28.5088L149.575 29.2159L162.293 41.9346L163 41.2275L163.707 40.5205L150.989 27.8017L150.282 28.5088ZM163 41.2275L162.257 40.5582L161.166 41.7692L161.909 42.4385L162.652 43.1078L163.743 41.8968L163 41.2275ZM161.909 42.4385L161.165 41.771C114.947 93.3368 86.7861 161.503 86.7861 235.951H87.7861H88.7861C88.7861 162.016 116.752 94.3203 162.654 43.1059L161.909 42.4385ZM87.7861 235.951L86.7861 235.954L86.792 237.828L87.792 237.825L88.792 237.822L88.7861 235.948L87.7861 235.951ZM87.792 237.825L86.792 237.832C87.8035 396.972 217.095 526.263 376.236 527.275L376.242 526.275L376.249 525.275C218.203 524.271 89.7965 395.865 88.792 237.819L87.792 237.825ZM376.242 526.275L376.239 527.275L378.114 527.282L378.117 526.282L378.121 525.282L376.246 525.275L376.242 526.275ZM378.117 526.282V527.282C538.119 527.282 668.427 397.599 669.442 237.832L668.442 237.825L667.442 237.819C666.434 396.487 537.018 525.282 378.117 525.282V526.282ZM668.442 237.825L669.442 237.828L669.448 235.954L668.448 235.951L667.448 235.948L667.442 237.822L668.442 237.825ZM668.448 235.951H669.448C669.448 161.503 641.287 93.3368 595.07 41.771L594.325 42.4385L593.581 43.1059C639.483 94.3203 667.448 162.016 667.448 235.951H668.448ZM594.325 42.4385L595.068 41.7692L593.977 40.5582L593.234 41.2275L592.491 41.8968L593.582 43.1078L594.325 42.4385ZM593.234 41.2275L593.942 41.9346L606.659 29.2159L605.952 28.5088L605.245 27.8017L592.527 40.5205L593.234 41.2275ZM605.952 28.5088L606.659 29.2159L670.032 -34.1572L669.325 -34.8643L668.618 -35.5714L605.245 27.8017L605.952 28.5088ZM669.325 -34.8643L670.032 -34.1571L682.751 -46.8749L682.044 -47.582L681.337 -48.2892L668.618 -35.5714L669.325 -34.8643ZM682.044 -47.582L682.751 -46.875L695.469 -59.5937L694.762 -60.3008L694.055 -61.0079L681.337 -48.2891L682.044 -47.582ZM682.751 -46.875L682.044 -47.5821L669.325 -34.8644L670.032 -34.1572L670.739 -33.4501L683.458 -46.1679L682.751 -46.875ZM670.032 -34.1572L669.325 -34.8643L593.905 40.5556L594.612 41.2627L595.319 41.9698L670.739 -33.4501L670.032 -34.1572ZM594.612 41.2627L593.869 41.9319C640.199 93.3818 668.448 161.516 668.448 235.951H669.448H670.448C670.448 161.001 642.002 92.3952 595.355 40.5935L594.612 41.2627ZM669.448 235.951H668.448C668.448 396.028 538.194 526.282 378.117 526.282V527.282V528.282C539.298 528.282 670.448 397.132 670.448 235.951H669.448ZM378.117 527.282V526.282C218.041 526.282 87.7863 396.028 87.7861 235.951H86.7861H85.7861C85.7863 397.132 216.936 528.282 378.117 528.282V527.282ZM86.7861 235.951H87.7861C87.7861 161.516 116.034 93.3817 162.364 41.9319L161.621 41.2627L160.878 40.5935C114.231 92.3951 85.7861 161.001 85.7861 235.951H86.7861ZM161.621 41.2627L162.328 40.5556L150.282 28.5087L149.575 29.2158L148.868 29.9229L160.914 41.9698L161.621 41.2627ZM149.575 29.2158L150.282 28.5087L137.564 15.7909L136.856 16.498L136.149 17.2052L148.868 29.923L149.575 29.2158ZM136.856 16.498L137.564 15.7909L62.2052 -59.5675L61.498 -58.8604L60.7909 -58.1532L136.149 17.2052L136.856 16.498ZM61.498 -58.8604L60.766 -59.5416C-11.3986 18.004 -55.625 121.858 -55.625 235.951H-54.625H-53.625C-53.625 122.385 -9.60514 19.0127 62.2301 -58.1791L61.498 -58.8604ZM-54.625 235.951H-55.625C-55.6248 474.97 138.879 669.693 378.117 669.693V668.693V667.693C139.985 667.693 -53.6248 473.866 -53.625 235.951H-54.625ZM378.117 668.693V669.693C617.355 669.693 811.859 475.189 811.859 235.951H810.859H809.859C809.859 474.084 616.25 667.693 378.117 667.693V668.693ZM810.859 235.951H811.859C811.859 121.857 767.632 18.0041 695.467 -59.5416L694.735 -58.8604L694.003 -58.1791C765.839 19.0127 809.859 122.385 809.859 235.951H810.859ZM694.735 -58.8604L694.028 -59.5674L682.044 -47.5821L682.751 -46.875L683.458 -46.1679L695.443 -58.1533L694.735 -58.8604ZM516.235 85.6992L515.505 86.3822C550.438 123.742 571.859 173.869 571.859 228.956H572.859H573.859C573.859 173.34 552.23 122.731 516.966 85.0162L516.235 85.6992ZM572.859 228.956H571.859C571.859 344.091 478.252 437.698 363.117 437.698V438.698V439.698C479.356 439.698 573.859 345.195 573.859 228.956H572.859ZM363.117 438.698V437.698C247.983 437.698 154.375 343.985 154.375 228.956H153.375H152.375C152.375 345.089 246.878 439.698 363.117 439.698V438.698ZM153.375 228.956H154.375C154.375 173.869 175.797 123.742 210.729 86.3822L209.999 85.6992L209.269 85.0162C174.005 122.731 152.375 173.34 152.375 228.956H153.375ZM209.999 85.6992L209.292 86.4063L258.388 135.502L259.095 134.795L259.802 134.088L210.706 84.9921L209.999 85.6992ZM259.095 134.795L258.354 134.123C235.608 159.218 221.724 192.539 221.724 228.956H222.724H223.724C223.724 193.056 237.409 160.209 259.836 135.466L259.095 134.795ZM222.724 228.956H221.724C221.724 306.916 285.158 370.35 363.117 370.35V369.35V368.35C286.262 368.35 223.724 305.811 223.724 228.956H222.724ZM363.117 369.35V370.35C441.077 370.35 504.511 306.916 504.511 228.956H503.511H502.511C502.511 305.811 439.972 368.35 363.117 368.35V369.35ZM503.511 228.956H504.511C504.511 192.539 490.626 159.218 467.881 134.123L467.14 134.795L466.399 135.466C488.825 160.209 502.511 193.056 502.511 228.956H503.511ZM467.14 134.795L467.847 135.502L516.942 86.4063L516.235 85.6992L515.528 84.9921L466.433 134.088L467.14 134.795ZM429.994 171.895L429.234 172.544C442.232 187.744 449.99 207.45 449.99 228.942H450.99H451.99C451.99 206.96 444.053 186.796 430.754 171.245L429.994 171.895ZM450.99 228.942H449.99C449.99 276.955 411.098 315.848 363.085 315.848V316.848V317.848C412.202 317.848 451.99 278.06 451.99 228.942H450.99ZM363.085 316.848V315.848C315.072 315.848 276.18 276.955 276.18 228.942H275.18H274.18C274.18 278.06 313.967 317.848 363.085 317.848V316.848ZM275.18 228.942H276.18C276.18 207.45 283.937 187.744 296.935 172.544L296.175 171.895L295.415 171.245C282.116 186.796 274.18 206.96 274.18 228.942H275.18ZM296.175 171.895L295.468 172.602L362.378 239.511L363.085 238.804L363.792 238.097L296.882 171.187L296.175 171.895ZM363.085 238.804L363.792 239.511L430.701 172.602L429.994 171.895L429.287 171.187L362.378 238.097L363.085 238.804Z" fill="#548DCE" fill-opacity="0.2" mask="url(#path-1-inside-1_3001_66068)"/>
</svg>
