<svg width="986" height="830" viewBox="0 0 986 830" fill="none" xmlns="http://www.w3.org/2000/svg">
<path opacity="0.1" d="M133.2 0.277344C50.7991 88.4042 0.262695 206.654 0.262695 336.604C0.262817 608.204 221.079 829.019 492.679 829.019C764.279 829.018 985.094 607.954 985.094 336.604C985.094 206.654 934.557 88.4042 852.156 0.277344L736.895 115.539C789.92 174.041 822.283 251.713 822.283 336.604C822.283 518.334 674.409 666.208 492.679 666.208C310.948 666.208 163.074 518.334 163.074 336.604C163.074 251.713 195.436 174.041 248.462 115.539L162.078 29.1553L147.64 14.7158L133.2 0.277344ZM335.609 202.652C304.74 238.749 286.317 285.551 286.317 336.585C286.317 450.602 378.677 542.962 492.694 542.962C606.711 542.962 699.07 450.602 699.07 336.585C699.07 285.551 680.648 238.749 649.779 202.652L492.694 359.737L335.609 202.652Z" fill="url(#paint0_linear_3001_65311)"/>
<defs>
<linearGradient id="paint0_linear_3001_65311" x1="-26.3468" y1="379.651" x2="987.141" y2="379.651" gradientUnits="userSpaceOnUse">
<stop stop-color="#E9FAFF"/>
<stop offset="1" stop-color="#2F629D"/>
</linearGradient>
</defs>
</svg>
