<svg width="1203" height="939" viewBox="0 0 1203 939" fill="none" xmlns="http://www.w3.org/2000/svg">
<path d="M0.203125 381.072C0.203125 233.833 61.8675 99.8516 162.414 0L267.821 97.8771L285.439 114.237L303.057 130.597C238.355 196.883 198.866 284.887 198.866 381.072C198.866 586.981 379.302 754.528 601.051 754.528C822.8 754.528 1003.24 586.981 1003.24 381.072C1003.24 284.887 963.747 196.883 899.349 130.597L916.967 114.237L1004.76 32.7197L1022.37 16.3599L1039.99 0C1140.54 99.8516 1202.2 233.833 1202.2 381.072C1202.2 688.807 932.763 939 601.355 939C269.947 939 0.203125 688.525 0.203125 381.072Z" fill="url(#paint0_linear_3001_65231)" fill-opacity="0.5"/>
<path d="M1039.95 2.0625C1139.65 101.552 1200.72 234.756 1200.72 381.072C1200.72 687.884 932.048 937.513 601.355 937.514C270.662 937.514 1.68956 687.602 1.68945 381.072C1.68945 234.756 62.7597 101.552 162.451 2.0625L266.81 98.9668L284.428 115.326L300.932 130.651C236.611 197.065 197.379 284.996 197.379 381.072C197.379 587.904 378.588 756.015 601.052 756.015C823.516 756.014 1004.72 587.903 1004.72 381.072C1004.72 284.996 965.491 197.067 901.471 130.654L917.979 115.326L1005.77 33.8086L1023.39 17.4492L1039.95 2.0625Z" stroke="url(#paint1_linear_3001_65231)" stroke-opacity="0.74" stroke-width="2.97286"/>
<path d="M349.176 381.064C349.176 323.241 371.654 270.212 409.321 229.312L600.997 407.297L792.673 229.312C830.34 270.212 852.819 323.241 852.819 381.064C852.819 510.251 740.122 614.898 600.997 614.898C461.873 614.898 349.176 510.251 349.176 381.064Z" fill="#1C2F5C" fill-opacity="0.05"/>
<path d="M792.584 231.422C829.408 271.913 851.333 324.154 851.333 381.064C851.333 509.328 739.406 613.411 600.997 613.411C462.588 613.411 350.662 509.328 350.662 381.064C350.662 324.155 372.586 271.913 409.409 231.422L599.986 408.386L600.997 409.325L602.009 408.386L792.584 231.422Z" stroke="#1C2F5C" stroke-opacity="0.08" stroke-width="2.97286"/>
<path d="M792.584 231.422C829.408 271.913 851.333 324.154 851.333 381.064C851.333 509.328 739.406 613.411 600.997 613.411C462.588 613.411 350.662 509.328 350.662 381.064C350.662 324.155 372.586 271.913 409.409 231.422L599.986 408.386L600.997 409.325L602.009 408.386L792.584 231.422Z" stroke="white" stroke-opacity="0.01" stroke-width="2.97286"/>
<defs>
<linearGradient id="paint0_linear_3001_65231" x1="601.203" y1="0" x2="601.203" y2="1203.61" gradientUnits="userSpaceOnUse">
<stop stop-color="#1C2F5C"/>
<stop offset="1" stop-color="#1C2F5C" stop-opacity="0"/>
</linearGradient>
<linearGradient id="paint1_linear_3001_65231" x1="601.203" y1="0" x2="601.203" y2="1412.01" gradientUnits="userSpaceOnUse">
<stop stop-color="#2F629D" stop-opacity="0.55"/>
<stop offset="1" stop-color="#1C2F5C" stop-opacity="0"/>
</linearGradient>
</defs>
</svg>
