<svg width="521" height="350" viewBox="0 0 521 350" fill="none" xmlns="http://www.w3.org/2000/svg">
<line x1="70.4574" y1="-68.3766" x2="-360.694" y2="678.399" stroke="#266FD0" stroke-opacity="0.12" stroke-width="1.25929"/>
<line x1="92.4496" y1="-68.3766" x2="-338.702" y2="678.399" stroke="#266FD0" stroke-opacity="0.12" stroke-width="1.25929"/>
<line x1="114.457" y1="-68.3766" x2="-316.694" y2="678.399" stroke="#266FD0" stroke-opacity="0.12" stroke-width="1.25929"/>
<line x1="136.45" y1="-68.3766" x2="-294.702" y2="678.399" stroke="#266FD0" stroke-opacity="0.12" stroke-width="1.25929"/>
<line x1="158.457" y1="-68.3766" x2="-272.694" y2="678.399" stroke="#266FD0" stroke-opacity="0.12" stroke-width="1.25929"/>
<line x1="180.45" y1="-68.3766" x2="-250.702" y2="678.399" stroke="#266FD0" stroke-opacity="0.12" stroke-width="1.25929"/>
<line x1="202.461" y1="-68.3766" x2="-228.69" y2="678.399" stroke="#266FD0" stroke-opacity="0.12" stroke-width="1.25929"/>
<line x1="224.457" y1="-68.3766" x2="-206.694" y2="678.399" stroke="#266FD0" stroke-opacity="0.12" stroke-width="1.25929"/>
<line x1="246.461" y1="-68.3766" x2="-184.69" y2="678.399" stroke="#266FD0" stroke-opacity="0.12" stroke-width="1.25929"/>
<line x1="268.457" y1="-68.3766" x2="-162.694" y2="678.399" stroke="#266FD0" stroke-opacity="0.12" stroke-width="1.25929"/>
<line x1="290.461" y1="-68.3766" x2="-140.69" y2="678.399" stroke="#266FD0" stroke-opacity="0.12" stroke-width="1.25929"/>
<line x1="312.461" y1="-68.3766" x2="-118.69" y2="678.399" stroke="#266FD0" stroke-opacity="0.12" stroke-width="1.25929"/>
<line x1="334.461" y1="-68.3766" x2="-96.69" y2="678.399" stroke="#266FD0" stroke-opacity="0.12" stroke-width="1.25929"/>
<line x1="356.461" y1="-68.3766" x2="-74.69" y2="678.399" stroke="#266FD0" stroke-opacity="0.12" stroke-width="1.25929"/>
<line x1="378.465" y1="-68.3766" x2="-52.6861" y2="678.399" stroke="#266FD0" stroke-opacity="0.12" stroke-width="1.25929"/>
<line x1="400.465" y1="-68.3766" x2="-30.6861" y2="678.399" stroke="#266FD0" stroke-opacity="0.12" stroke-width="1.25929"/>
<line x1="422.465" y1="-68.3766" x2="-8.68606" y2="678.399" stroke="#266FD0" stroke-opacity="0.12" stroke-width="1.25929"/>
<line x1="444.465" y1="-68.3766" x2="13.3139" y2="678.399" stroke="#266FD0" stroke-opacity="0.12" stroke-width="1.25929"/>
<line x1="466.465" y1="-68.3766" x2="35.3139" y2="678.399" stroke="#266FD0" stroke-opacity="0.12" stroke-width="1.25929"/>
<line x1="488.465" y1="-68.3766" x2="57.3139" y2="678.399" stroke="#266FD0" stroke-opacity="0.12" stroke-width="1.25929"/>
<line x1="510.465" y1="-68.3766" x2="79.3139" y2="678.399" stroke="#266FD0" stroke-opacity="0.12" stroke-width="1.25929"/>
<line x1="532.465" y1="-68.3766" x2="101.314" y2="678.399" stroke="#266FD0" stroke-opacity="0.12" stroke-width="1.25929"/>
<line x1="554.469" y1="-68.3766" x2="123.318" y2="678.399" stroke="#266FD0" stroke-opacity="0.12" stroke-width="1.25929"/>
<line x1="576.469" y1="-68.3766" x2="145.318" y2="678.399" stroke="#266FD0" stroke-opacity="0.12" stroke-width="1.25929"/>
<line x1="598.469" y1="-68.3766" x2="167.318" y2="678.399" stroke="#266FD0" stroke-opacity="0.12" stroke-width="1.25929"/>
<line x1="620.469" y1="-68.3766" x2="189.318" y2="678.399" stroke="#266FD0" stroke-opacity="0.12" stroke-width="1.25929"/>
<line x1="642.469" y1="-68.3766" x2="211.318" y2="678.399" stroke="#266FD0" stroke-opacity="0.12" stroke-width="1.25929"/>
<line x1="664.469" y1="-68.3766" x2="233.318" y2="678.399" stroke="#266FD0" stroke-opacity="0.12" stroke-width="1.25929"/>
<line x1="686.473" y1="-68.3766" x2="255.322" y2="678.399" stroke="#266FD0" stroke-opacity="0.12" stroke-width="1.25929"/>
<line x1="708.469" y1="-68.3766" x2="277.318" y2="678.399" stroke="#266FD0" stroke-opacity="0.12" stroke-width="1.25929"/>
<line x1="730.473" y1="-68.3766" x2="299.322" y2="678.399" stroke="#266FD0" stroke-opacity="0.12" stroke-width="1.25929"/>
<line x1="752.473" y1="-68.3766" x2="321.322" y2="678.399" stroke="#266FD0" stroke-opacity="0.12" stroke-width="1.25929"/>
<line x1="774.477" y1="-68.3766" x2="343.326" y2="678.399" stroke="#266FD0" stroke-opacity="0.12" stroke-width="1.25929"/>
<line x1="796.473" y1="-68.3766" x2="365.322" y2="678.399" stroke="#266FD0" stroke-opacity="0.12" stroke-width="1.25929"/>
<line x1="818.477" y1="-68.3766" x2="387.326" y2="678.399" stroke="#266FD0" stroke-opacity="0.12" stroke-width="1.25929"/>
<line x1="840.473" y1="-68.3766" x2="409.322" y2="678.399" stroke="#266FD0" stroke-opacity="0.12" stroke-width="1.25929"/>
<line x1="862.477" y1="-68.3766" x2="431.326" y2="678.399" stroke="#266FD0" stroke-opacity="0.12" stroke-width="1.25929"/>
<line x1="884.473" y1="-68.3766" x2="453.322" y2="678.399" stroke="#266FD0" stroke-opacity="0.12" stroke-width="1.25929"/>
<line x1="906.481" y1="-68.3766" x2="475.33" y2="678.399" stroke="#266FD0" stroke-opacity="0.12" stroke-width="1.25929"/>
<line x1="928.477" y1="-68.3766" x2="497.326" y2="678.399" stroke="#266FD0" stroke-opacity="0.12" stroke-width="1.25929"/>
<line x1="950.481" y1="-68.3766" x2="519.33" y2="678.399" stroke="#266FD0" stroke-opacity="0.12" stroke-width="1.25929"/>
</svg>
