<svg width="1017" height="774" viewBox="0 0 1017 774" fill="none" xmlns="http://www.w3.org/2000/svg">
<g clip-path="url(#clip0_3001_55068)">
<path opacity="0.1" d="M137.445 0.583984C52.4602 91.4744 0.339844 213.432 0.339844 347.457C0.339966 627.574 228.079 855.313 508.196 855.313C788.313 855.313 1016.05 627.317 1016.05 347.457C1016.05 213.432 963.932 91.4744 878.947 0.583984L789.854 89.6768L774.962 104.568L760.07 119.461C814.758 179.798 848.137 259.904 848.137 347.457C848.137 534.886 695.626 687.397 508.196 687.397C320.767 687.397 168.256 534.886 168.256 347.457C168.256 259.904 201.634 179.798 256.322 119.461L241.431 104.568L167.229 30.3672L137.445 0.583984ZM359.568 198.811C328.699 234.908 310.276 281.709 310.276 332.743C310.276 446.76 402.636 539.12 516.653 539.12C630.67 539.12 723.029 446.76 723.029 332.743C723.029 281.709 704.607 234.908 673.738 198.811L516.653 355.896L359.568 198.811Z" fill="url(#paint0_linear_3001_55068)"/>
</g>
<defs>
<linearGradient id="paint0_linear_3001_55068" x1="504.36" y1="-130.935" x2="504.36" y2="882.553" gradientUnits="userSpaceOnUse">
<stop stop-color="#E9FAFF" stop-opacity="0.63"/>
<stop offset="1" stop-color="#2F629D" stop-opacity="0"/>
</linearGradient>
<clipPath id="clip0_3001_55068">
<rect width="1016" height="773" fill="white" transform="translate(0.0917969 0.748047)"/>
</clipPath>
</defs>
</svg>
