<svg width="986" height="830" viewBox="0 0 986 830" fill="none" xmlns="http://www.w3.org/2000/svg">
<path opacity="0.1" d="M133.497 0.679688C51.096 88.8066 0.55957 207.056 0.55957 337.006C0.559692 608.606 221.376 829.421 492.976 829.421C764.575 829.421 985.391 608.357 985.391 337.006C985.391 207.056 934.854 88.8066 852.453 0.679688L737.191 115.941C790.217 174.444 822.58 252.115 822.58 337.006C822.58 518.736 674.706 666.61 492.976 666.61C311.245 666.61 163.371 518.736 163.371 337.006C163.371 252.115 195.733 174.444 248.759 115.941L162.375 29.5576L147.937 15.1182L133.497 0.679688ZM335.902 203.055C305.033 239.152 286.61 285.953 286.61 336.987C286.61 451.005 378.97 543.364 492.987 543.364C607.004 543.364 699.363 451.004 699.363 336.987C699.363 285.954 680.941 239.152 650.072 203.055L492.987 360.14L335.902 203.055Z" fill="url(#paint0_linear_3001_54142)"/>
<defs>
<linearGradient id="paint0_linear_3001_54142" x1="-26.0499" y1="380.053" x2="987.438" y2="380.053" gradientUnits="userSpaceOnUse">
<stop stop-color="#E9FAFF"/>
<stop offset="1" stop-color="#2F629D"/>
</linearGradient>
</defs>
</svg>
