<svg width="518" height="1003" viewBox="0 0 518 1003" fill="none" xmlns="http://www.w3.org/2000/svg">
<path opacity="0.04" d="M-535.078 0C-636.905 106.657 -699.354 249.772 -699.354 407.046C-699.354 735.755 -426.483 1003 -90.8545 1003C244.774 1003 517.645 735.454 517.646 407.046C517.646 249.772 455.196 106.657 353.369 0L246.62 104.549L210.935 139.498C276.461 210.302 316.453 304.305 316.453 407.046C316.453 626.989 133.718 805.956 -90.8545 805.956C-315.427 805.956 -498.162 626.989 -498.162 407.046C-498.162 304.305 -458.17 210.302 -392.644 139.498L-410.486 122.023L-499.393 34.9502L-517.235 17.4756L-535.078 0ZM-290.154 213.535C-329.321 258.398 -352.695 316.566 -352.695 379.993C-352.695 521.699 -235.51 636.488 -90.8438 636.488C53.8221 636.488 171.008 521.699 171.008 379.993C171.008 316.566 147.634 258.398 108.467 213.535L-90.8438 408.768L-290.154 213.535Z" fill="url(#paint0_linear_3001_54953)"/>
<defs>
<linearGradient id="paint0_linear_3001_54953" x1="-1234.31" y1="433.516" x2="536.524" y2="433.516" gradientUnits="userSpaceOnUse">
<stop stop-color="white"/>
<stop offset="1" stop-color="#E9FAFF"/>
</linearGradient>
</defs>
</svg>
